<?xml version="1.0" standalone="no"?>
<!DOCTYPE svg PUBLIC "-//W3C//DTD SVG 20010904//EN"
 "http://www.w3.org/TR/2001/REC-SVG-20010904/DTD/svg10.dtd">
<svg version="1.0" xmlns="http://www.w3.org/2000/svg"
 width="600.000000pt" height="600.000000pt" viewBox="0 0 600.000000 600.000000"
 preserveAspectRatio="xMidYMid meet">
<metadata>
Created by potrace 1.16, written by Peter Selinger 2001-2019
</metadata>
<g transform="translate(0.000000,600.000000) scale(0.100000,-0.100000)"
fill="#000000" stroke="none">
<path d="M2530 4255 c0 -9 25 -61 55 -116 30 -55 55 -101 55 -103 0 -2 -27
-20 -59 -40 -108 -66 -212 -187 -262 -303 -24 -55 -49 -162 -49 -210 l0 -33
730 0 730 0 0 28 c-1 87 -54 240 -114 329 -39 58 -121 137 -185 180 -31 20
-60 40 -64 44 -5 4 16 52 47 108 59 107 67 135 39 129 -10 -2 -42 -48 -76
-109 l-59 -106 -65 24 c-148 54 -358 54 -506 0 l-65 -24 -58 106 c-35 62 -66
107 -76 109 -11 2 -18 -3 -18 -13z"/>
<path d="M1985 3406 c-41 -18 -83 -69 -90 -109 -3 -18 -5 -199 -3 -404 3 -357
4 -373 24 -399 35 -47 70 -67 126 -72 59 -4 102 17 142 71 20 28 21 38 21 427
0 387 -1 399 -21 426 -11 15 -32 37 -46 47 -33 25 -113 32 -153 13z"/>
<path d="M3885 3406 c-41 -18 -83 -69 -90 -109 -3 -18 -5 -199 -3 -404 3 -359
4 -373 24 -400 40 -54 83 -75 142 -71 56 5 91 25 126 72 20 27 21 39 21 426 0
387 -1 399 -21 426 -11 15 -32 37 -46 47 -33 25 -113 32 -153 13z"/>
<path d="M2280 2836 l0 -553 23 -33 c41 -62 69 -74 170 -80 l92 -5 5 -210 c5
-202 6 -211 29 -244 50 -70 142 -86 219 -39 64 39 72 72 72 298 l0 200 110 0
110 0 0 -200 c0 -182 2 -204 20 -241 24 -45 66 -75 122 -84 30 -5 49 -1 85 17
85 42 87 49 93 291 l5 212 92 5 c101 6 129 18 171 80 l22 33 0 553 0 554 -720
0 -720 0 0 -554z"/>
</g>
</svg>
