<?xml version="1.0" standalone="no"?>
<!DOCTYPE svg PUBLIC "-//W3C//DTD SVG 20010904//EN"
 "http://www.w3.org/TR/2001/REC-SVG-20010904/DTD/svg10.dtd">
<svg version="1.0" xmlns="http://www.w3.org/2000/svg"
 width="600.000000pt" height="600.000000pt" viewBox="0 0 600.000000 600.000000"
 preserveAspectRatio="xMidYMid meet">

<g transform="translate(0.000000,600.000000) scale(0.100000,-0.100000)"
fill="#000000" stroke="none">
<path d="M2815 4194 c-231 -44 -432 -150 -600 -319 -146 -146 -251 -327 -301
-522 -35 -133 -44 -340 -20 -467 88 -463 393 -798 836 -919 170 -47 399 -48
571 -4 508 132 859 585 859 1107 0 524 -347 972 -860 1107 -122 32 -360 41
-485 17z m435 -213 c329 -85 591 -347 681 -681 30 -113 33 -317 6 -434 -51
-217 -174 -408 -347 -541 -364 -279 -873 -253 -1210 62 -239 224 -344 547
-280 861 79 390 368 673 763 748 101 19 280 12 387 -15z"/>
<path d="M2429 3141 c-23 -23 -29 -38 -29 -71 0 -33 6 -48 29 -71 l29 -29 562
0 562 0 29 29 c41 41 41 101 0 142 l-29 29 -562 0 -562 0 -29 -29z"/>
</g>
</svg>
