<?xml version="1.0" standalone="no"?>
<!DOCTYPE svg PUBLIC "-//W3C//DTD SVG 20010904//EN"
 "http://www.w3.org/TR/2001/REC-SVG-20010904/DTD/svg10.dtd">
<svg version="1.0" xmlns="http://www.w3.org/2000/svg"
 width="600.000000pt" height="600.000000pt" viewBox="0 0 600.000000 600.000000"
 preserveAspectRatio="xMidYMid meet">
<metadata>
Created by potrace 1.16, written by Peter Selinger 2001-2019
</metadata>
<g transform="translate(0.000000,600.000000) scale(0.100000,-0.100000)"
fill="#000000" stroke="none">
<path d="M3715 5213 c-11 -3 -60 -18 -108 -34 -305 -101 -512 -297 -615 -584
-53 -148 -96 -405 -71 -421 31 -19 228 14 316 52 64 28 189 118 243 175 118
124 224 296 264 429 39 129 60 323 40 374 -6 16 -29 19 -69 9z"/>
<path d="M3735 4230 c-44 -4 -107 -13 -140 -20 -33 -7 -67 -14 -75 -15 -8 -1
-22 -5 -30 -8 -74 -28 -361 -112 -374 -108 -4 1 -14 -3 -21 -9 -17 -14 -178
-14 -204 0 -11 5 -24 9 -28 9 -4 -1 -15 0 -23 4 -8 3 -44 12 -80 21 -64 14
-335 84 -335 86 0 1 -27 4 -60 8 -119 14 -421 7 -451 -10 -5 -3 -34 -13 -64
-23 -78 -25 -179 -77 -220 -114 -19 -17 -39 -31 -45 -31 -18 0 -177 -175 -223
-245 -74 -114 -129 -228 -163 -337 -17 -57 -34 -110 -37 -118 -3 -8 -4 -19 -3
-24 1 -5 -1 -16 -5 -25 -3 -9 -8 -27 -9 -41 -1 -14 -8 -65 -14 -115 -21 -157
-19 -331 5 -570 7 -71 10 -99 14 -105 1 -3 4 -14 6 -25 14 -84 72 -284 123
-420 38 -104 214 -474 230 -485 5 -3 36 -52 71 -110 35 -58 76 -121 92 -140
215 -260 334 -354 498 -396 111 -28 279 -8 396 47 22 10 47 19 55 19 8 0 20 5
27 12 7 7 12 8 12 4 0 -5 6 -4 13 2 22 18 172 60 256 72 60 8 107 8 170 1 88
-11 248 -50 305 -75 134 -58 287 -90 408 -84 88 3 100 7 190 51 154 76 303
226 465 467 70 104 100 156 184 320 62 120 129 288 129 324 0 6 -22 19 -48 28
-103 37 -219 127 -312 243 -158 199 -230 400 -231 645 -1 302 101 516 363 765
l110 103 -68 72 c-91 97 -237 212 -321 254 -153 77 -352 112 -538 96z"/>
</g>
</svg>
