<?xml version="1.0" standalone="no"?>
<!DOCTYPE svg PUBLIC "-//W3C//DTD SVG 20010904//EN"
 "http://www.w3.org/TR/2001/REC-SVG-20010904/DTD/svg10.dtd">
<svg version="1.0" xmlns="http://www.w3.org/2000/svg"
 width="1024.000000pt" height="1024.000000pt" viewBox="0 0 1024.000000 1024.000000"
 preserveAspectRatio="xMidYMid meet">

<g transform="translate(0.000000,1024.000000) scale(0.100000,-0.100000)"
fill="#000000" stroke="none">
<path d="M2286 6525 c-188 -52 -341 -206 -391 -395 -22 -83 -22 -1938 0 -2023
48 -184 190 -329 380 -390 l70 -22 2590 0 c2457 1 2593 2 2654 19 135 37 253
121 321 226 64 100 83 176 89 364 l6 169 50 4 c134 10 239 88 285 211 20 52
21 73 18 446 l-3 391 -24 50 c-52 105 -150 173 -266 184 l-60 6 -6 170 c-5
134 -11 182 -27 226 -64 178 -176 291 -345 350 l-82 29 -2605 -1 c-2148 -1
-2614 -3 -2654 -14z m5299 -183 c78 -36 124 -71 165 -130 64 -88 69 -117 72
-382 l3 -235 125 -5 c139 -6 175 -19 211 -76 18 -29 19 -53 19 -395 0 -347 -1
-366 -20 -397 -34 -55 -86 -72 -222 -72 l-117 0 -3 -253 -3 -253 -33 -66 c-38
-77 -97 -134 -181 -175 l-56 -28 -2605 0 -2605 0 -67 33 c-83 41 -158 120
-187 198 -21 54 -21 73 -25 982 -2 522 0 949 5 977 25 136 134 255 268 291 36
10 603 12 2626 11 l2580 -2 50 -23z"/>
<path d="M2354 6161 c-45 -21 -85 -67 -103 -120 -15 -47 -16 -1789 0 -1846 17
-60 84 -120 151 -135 39 -8 708 -10 2569 -8 l2516 3 48 30 c33 21 56 45 72 75
l23 45 1 910 c1 996 4 948 -57 1009 -60 60 130 56 -2636 56 -2462 0 -2544 -1
-2584 -19z"/>
</g>
</svg>
