<svg version="1.1" id="Layer_1" xmlns="http://www.w3.org/2000/svg" xmlns:xlink="http://www.w3.org/1999/xlink" x="0px" y="0px"
	 width="100%" viewBox="0 0 832 800" enable-background="new 0 0 832 800" xml:space="preserve">
<path fill="#000000" opacity="1.000000" stroke="none" 
	d="
M597.999878,558.360840 
	C464.338501,558.360413 331.176788,558.191589 198.016068,558.488281 
	C168.212448,558.554688 146.774643,535.357910 146.872894,507.452057 
	C147.054214,455.954712 147.006775,404.456238 146.920044,352.958466 
	C146.874954,326.188110 167.918167,302.541168 197.182709,302.574493 
	C347.676544,302.745605 498.170715,302.587738 648.664612,302.730347 
	C672.591797,302.753021 692.963562,319.887238 696.477722,344.553650 
	C697.593567,352.386322 697.167480,360.154663 697.273254,367.950989 
	C697.318420,371.274048 698.188416,372.596283 701.782349,372.746216 
	C717.734009,373.411835 729.373169,385.804108 729.367065,401.715851 
	C729.359619,421.048401 729.369629,440.380951 729.370422,459.713501 
	C729.371033,475.452515 717.767639,487.733032 702.043762,488.258148 
	C698.183289,488.387054 697.242981,489.944183 697.300720,493.428223 
	C697.476929,504.062195 697.545044,514.664185 694.455811,525.064758 
	C688.855896,543.918457 670.112305,558.295166 650.496338,558.345459 
	C633.164246,558.389832 615.832092,558.358459 597.999878,558.360840 
M186.017349,320.333130 
	C172.040009,325.773712 163.671356,336.121124 163.539352,350.929871 
	C163.067062,403.910858 163.248642,456.898926 163.414841,509.883606 
	C163.468948,527.132080 178.141907,541.978760 194.629913,541.981201 
	C346.254181,542.003540 497.878479,541.979736 649.502747,541.992310 
	C653.941895,541.992676 658.045349,540.936951 661.958130,538.895142 
	C674.947937,532.116638 680.792786,521.114197 680.900879,506.778198 
	C680.974976,496.948303 680.999146,487.115570 680.839233,477.287506 
	C680.776428,473.429474 682.259705,471.810455 686.122742,471.953461 
	C690.281982,472.107391 694.452515,471.985413 698.617676,471.940948 
	C707.831360,471.842590 713.593323,466.205566 713.629639,457.016144 
	C713.700134,439.188080 713.694641,421.359375 713.630981,403.531250 
	C713.600403,394.955627 707.839722,389.242340 699.198425,389.063965 
	C695.034668,388.978027 690.858887,388.871033 686.704712,389.086090 
	C682.409607,389.308441 680.755798,387.628113 680.845093,383.262848 
	C681.052979,373.103455 680.799316,362.935455 680.917419,352.773102 
	C681.147888,332.949005 663.060730,318.794922 647.017212,318.836365 
	C496.560333,319.225159 346.101990,319.032288 195.644089,319.006500 
	C192.647156,319.005981 189.637878,318.886169 186.017349,320.333130 
z"/>
<path fill="#000000" opacity="1.000000" stroke="none" 
	d="
M448.793976,526.247803 
	C365.169647,526.274963 282.027466,526.288696 198.885269,526.275452 
	C187.227386,526.273621 180.390762,519.623413 180.728088,508.021729 
	C181.120895,494.512573 179.066833,481.085815 179.681152,467.595032 
	C181.142838,435.495941 178.347534,403.377380 180.108383,371.302307 
	C180.490204,364.347229 179.500214,357.450378 180.506821,350.467987 
	C181.753571,341.819855 187.752609,335.356659 196.469864,334.754822 
	C197.465347,334.686096 198.468521,334.721344 199.468140,334.721405 
	C281.277405,334.724823 363.086700,334.727509 444.895966,334.737457 
	C452.316467,334.738373 452.341370,334.760223 452.341766,342.125549 
	C452.344910,401.274811 452.357300,460.424133 452.265503,519.573242 
	C452.261719,522.011597 453.864105,525.648743 448.793976,526.247803 
z"/>
</svg>