<svg version="1.1" id="Layer_1" xmlns="http://www.w3.org/2000/svg" xmlns:xlink="http://www.w3.org/1999/xlink" x="0px" y="0px"
	 width="100%" viewBox="0 0 1024 1024" enable-background="new 0 0 1024 1024" xml:space="preserve">
<path fill="#000000" opacity="1.000000" stroke="none" 
	d="
M477.000000,1025.000000 
	C318.000000,1025.000000 159.500000,1025.000000 1.000000,1025.000000 
	C1.000000,683.666687 1.000000,342.333344 1.000000,1.000000 
	C342.333344,1.000000 683.666687,1.000000 1025.000000,1.000000 
	C1025.000000,342.333344 1025.000000,683.666687 1025.000000,1025.000000 
	C842.500000,1025.000000 660.000000,1025.000000 477.000000,1025.000000 
M638.944580,656.039673 
	C641.558044,656.358948 644.173950,656.974121 646.784607,656.952515 
	C678.562927,656.689148 710.340271,656.137695 742.118408,656.093567 
	C755.161926,656.075439 766.955383,653.897156 778.205994,646.297668 
	C787.852051,639.781982 793.956360,631.523560 798.083618,621.145081 
	C802.697998,609.541748 802.314514,597.369812 801.852051,585.296204 
	C801.644043,579.865723 804.024170,578.194214 808.587158,578.057495 
	C813.687805,577.904724 817.874878,576.082458 822.177368,573.181641 
	C831.900391,566.626160 837.855164,558.169373 837.943604,546.308044 
	C838.106262,524.480164 838.414673,502.638977 837.836243,480.825226 
	C837.477844,467.309387 828.495056,454.049774 813.857117,450.980865 
	C810.955688,450.372559 807.937805,450.027496 805.224609,448.936707 
	C803.863586,448.389496 802.227051,446.480286 802.158386,445.114532 
	C801.832581,438.631897 802.864807,431.977814 801.790405,425.660858 
	C800.285461,416.811859 798.992493,407.271698 794.687805,399.684540 
	C784.369568,381.498138 768.008972,371.945251 746.619568,371.991425 
	C726.715820,372.034393 706.811890,372.000549 686.908081,372.000549 
	C605.502136,372.000519 524.095947,372.116943 442.690338,371.955841 
	C395.747955,371.862946 348.806732,371.264313 301.864288,371.036102 
	C293.584564,370.995880 285.302826,371.873352 277.019379,371.927948 
	C271.072998,371.967163 265.122925,371.101685 259.173248,371.084808 
	C253.926880,371.069885 248.681442,371.899445 243.430923,371.961609 
	C219.437210,372.245636 202.338852,388.147766 193.010849,407.746338 
	C191.966431,409.940704 191.206329,412.468750 191.098953,414.877045 
	C190.584671,426.411194 190.072922,437.956726 190.047028,449.499329 
	C189.937363,498.393524 189.971741,547.288147 190.043350,596.182495 
	C190.050842,601.302307 190.506073,606.435486 191.005081,611.537842 
	C192.390167,625.700134 200.830719,636.215942 210.920074,644.693359 
	C221.674774,653.729797 235.323212,657.015381 249.408447,656.960632 
	C311.855774,656.717896 374.302338,656.150269 436.749664,656.072205 
	C474.026062,656.025635 511.302917,656.745239 548.580444,656.968628 
	C569.073303,657.091370 589.567993,656.899414 610.495850,656.908508 
	C610.495850,656.908508 610.931763,656.865479 611.869507,656.999084 
	C620.261658,656.963440 628.653870,656.927734 637.537598,656.805237 
	C637.830750,656.613403 638.021240,656.347900 638.944580,656.039673 
z"/>
<path fill="#434D51" opacity="1.000000" stroke="none" 
	d="
M637.046021,656.892090 
	C628.653870,656.927734 620.261658,656.963440 611.295837,656.977295 
	C610.488342,657.001709 610.268250,656.966309 610.061890,656.849304 
	C589.567993,656.899414 569.073303,657.091370 548.580444,656.968628 
	C511.302917,656.745239 474.026062,656.025635 436.749664,656.072205 
	C374.302338,656.150269 311.855774,656.717896 249.408447,656.960632 
	C235.323212,657.015381 221.674774,653.729797 210.920074,644.693359 
	C200.830719,636.215942 192.390167,625.700134 191.005081,611.537842 
	C190.506073,606.435486 190.050842,601.302307 190.043350,596.182495 
	C189.971741,547.288147 189.937363,498.393524 190.047028,449.499329 
	C190.072922,437.956726 190.584671,426.411194 191.098953,414.877045 
	C191.206329,412.468750 191.966431,409.940704 193.010849,407.746338 
	C202.338852,388.147766 219.437210,372.245636 243.430923,371.961609 
	C248.681442,371.899445 253.926880,371.069885 259.173248,371.084808 
	C265.122925,371.101685 271.072998,371.967163 277.019379,371.927948 
	C285.302826,371.873352 293.584564,370.995880 301.864288,371.036102 
	C348.806732,371.264313 395.747955,371.862946 442.690338,371.955841 
	C524.095947,372.116943 605.502136,372.000519 686.908081,372.000549 
	C706.811890,372.000549 726.715820,372.034393 746.619568,371.991425 
	C768.008972,371.945251 784.369568,381.498138 794.687805,399.684540 
	C798.992493,407.271698 800.285461,416.811859 801.790405,425.660858 
	C802.864807,431.977814 801.832581,438.631897 802.158386,445.114532 
	C802.227051,446.480286 803.863586,448.389496 805.224609,448.936707 
	C807.937805,450.027496 810.955688,450.372559 813.857117,450.980865 
	C828.495056,454.049774 837.477844,467.309387 837.836243,480.825226 
	C838.414673,502.638977 838.106262,524.480164 837.943604,546.308044 
	C837.855164,558.169373 831.900391,566.626160 822.177368,573.181641 
	C817.874878,576.082458 813.687805,577.904724 808.587158,578.057495 
	C804.024170,578.194214 801.644043,579.865723 801.852051,585.296204 
	C802.314514,597.369812 802.697998,609.541748 798.083618,621.145081 
	C793.956360,631.523560 787.852051,639.781982 778.205994,646.297668 
	C766.955383,653.897156 755.161926,656.075439 742.118408,656.093567 
	C710.340271,656.137695 678.562927,656.689148 646.784607,656.952515 
	C644.173950,656.974121 641.558044,656.358948 638.353760,656.176392 
	C637.517639,656.498108 637.278625,656.691162 637.046021,656.892090 
M624.826111,639.371643 
	C633.531128,639.289856 642.236084,639.208069 651.879456,639.008057 
	C671.999695,639.267883 692.119568,639.677490 712.240356,639.732483 
	C724.700623,639.766541 737.197266,639.750305 749.613892,638.864746 
	C762.606689,637.938110 773.299194,631.544250 779.504700,620.207581 
	C782.661682,614.440125 783.414612,606.961426 783.817810,600.171021 
	C784.488403,588.877747 784.117310,577.513977 783.940552,566.183716 
	C783.879456,562.264832 785.297668,560.799194 789.189148,560.954041 
	C794.513733,561.165894 799.944214,561.592651 805.156494,560.796387 
	C809.004517,560.208618 812.920227,558.324219 816.199036,556.116394 
	C822.836121,551.647156 819.813782,544.052734 820.438293,538.054138 
	C821.444397,528.390137 820.069763,518.498169 820.065125,508.702393 
	C820.061768,501.583771 820.750977,494.467712 820.945129,487.345428 
	C821.270935,475.391571 816.365479,467.068878 802.294556,467.002502 
	C797.794800,466.981293 793.292664,466.898499 788.795837,467.010559 
	C786.003174,467.080139 785.033508,465.909515 784.977539,463.164246 
	C784.723572,450.714417 783.845642,438.258331 784.094849,425.822571 
	C784.350952,413.047699 778.549561,403.892853 768.638489,397.022461 
	C764.384766,394.073730 759.497681,391.148102 754.542297,390.305542 
	C746.596680,388.954529 738.354431,389.058258 730.238525,389.073853 
	C720.620972,389.092346 711.002991,389.978821 701.387817,389.933624 
	C685.761292,389.860199 670.137085,389.053802 654.511597,389.045074 
	C517.515137,388.968781 380.518707,388.998993 243.522263,389.020020 
	C241.708038,389.020294 239.846176,389.099976 238.086960,389.497986 
	C219.751251,393.646240 207.353134,407.423248 207.069000,428.366211 
	C206.985992,434.483032 207.984268,440.613037 207.930939,446.732117 
	C207.825302,458.849609 207.009247,470.965210 207.065262,483.078918 
	C207.189896,510.038239 207.729309,536.995361 207.982422,563.954468 
	C208.116043,578.185547 207.506882,592.442200 208.170227,606.643494 
	C208.642349,616.750854 213.195175,625.344971 221.769028,631.437012 
	C230.290375,637.491638 240.039337,638.958557 250.070038,638.963379 
	C368.566956,639.020813 487.063873,638.998596 605.560791,639.005188 
	C611.724670,639.005554 617.888489,639.076050 624.826111,639.371643 
z"/>
<path fill="#555D61" opacity="1.000000" stroke="none" 
	d="
M610.278870,656.878906 
	C610.268250,656.966309 610.488342,657.001709 610.826965,656.910522 
	C610.931763,656.865479 610.495850,656.908508 610.278870,656.878906 
z"/>
<path fill="#555D61" opacity="1.000000" stroke="none" 
	d="
M637.291809,656.848633 
	C637.278625,656.691162 637.517639,656.498108 637.935974,656.160889 
	C638.021240,656.347900 637.830750,656.613403 637.291809,656.848633 
z"/>
<path fill="#000000" opacity="1.000000" stroke="none" 
	d="
M624.052368,639.113892 
	C617.888489,639.076050 611.724670,639.005554 605.560791,639.005188 
	C487.063873,638.998596 368.566956,639.020813 250.070038,638.963379 
	C240.039337,638.958557 230.290375,637.491638 221.769028,631.437012 
	C213.195175,625.344971 208.642349,616.750854 208.170227,606.643494 
	C207.506882,592.442200 208.116043,578.185547 207.982422,563.954468 
	C207.729309,536.995361 207.189896,510.038239 207.065262,483.078918 
	C207.009247,470.965210 207.825302,458.849609 207.930939,446.732117 
	C207.984268,440.613037 206.985992,434.483032 207.069000,428.366211 
	C207.353134,407.423248 219.751251,393.646240 238.086960,389.497986 
	C239.846176,389.099976 241.708038,389.020294 243.522263,389.020020 
	C380.518707,388.998993 517.515137,388.968781 654.511597,389.045074 
	C670.137085,389.053802 685.761292,389.860199 701.387817,389.933624 
	C711.002991,389.978821 720.620972,389.092346 730.238525,389.073853 
	C738.354431,389.058258 746.596680,388.954529 754.542297,390.305542 
	C759.497681,391.148102 764.384766,394.073730 768.638489,397.022461 
	C778.549561,403.892853 784.350952,413.047699 784.094849,425.822571 
	C783.845642,438.258331 784.723572,450.714417 784.977539,463.164246 
	C785.033508,465.909515 786.003174,467.080139 788.795837,467.010559 
	C793.292664,466.898499 797.794800,466.981293 802.294556,467.002502 
	C816.365479,467.068878 821.270935,475.391571 820.945129,487.345428 
	C820.750977,494.467712 820.061768,501.583771 820.065125,508.702393 
	C820.069763,518.498169 821.444397,528.390137 820.438293,538.054138 
	C819.813782,544.052734 822.836121,551.647156 816.199036,556.116394 
	C812.920227,558.324219 809.004517,560.208618 805.156494,560.796387 
	C799.944214,561.592651 794.513733,561.165894 789.189148,560.954041 
	C785.297668,560.799194 783.879456,562.264832 783.940552,566.183716 
	C784.117310,577.513977 784.488403,588.877747 783.817810,600.171021 
	C783.414612,606.961426 782.661682,614.440125 779.504700,620.207581 
	C773.299194,631.544250 762.606689,637.938110 749.613892,638.864746 
	C737.197266,639.750305 724.700623,639.766541 712.240356,639.732483 
	C692.119568,639.677490 671.999695,639.267883 650.947510,639.020264 
	C641.361145,639.059631 632.706726,639.086792 624.052368,639.113892 
M706.516724,603.931824 
	C706.635132,603.634521 706.753540,603.337280 707.022522,602.108215 
	C706.978455,584.733887 706.934387,567.359497 706.890259,549.450867 
	C706.601868,549.259155 706.313538,549.067505 706.005859,547.992188 
	C705.955200,545.332581 705.904480,542.672974 705.990173,539.103455 
	C705.944275,535.731140 705.898438,532.358826 705.968201,528.057129 
	C706.313232,515.629150 706.928833,503.201202 706.928772,490.773254 
	C706.928711,477.835571 706.216553,464.899536 706.034607,451.959717 
	C705.868347,440.130676 706.054443,428.297119 705.968323,416.466400 
	C705.920471,409.889282 704.956787,409.029572 698.566589,409.022186 
	C690.068237,409.012329 681.567383,409.128448 673.072510,408.952942 
	C668.019348,408.848602 663.564758,409.270721 661.848999,415.138092 
	C661.625977,415.900787 660.511597,416.437561 659.753784,417.003540 
	C654.254272,421.110840 650.662231,426.346069 649.960205,433.333008 
	C649.649719,436.423615 649.225403,439.503387 648.948242,442.596649 
	C647.613708,457.492615 645.882141,472.371094 645.174316,487.297668 
	C644.804260,495.103149 646.392944,502.988159 646.774109,510.852875 
	C646.859619,512.617065 645.595215,514.446655 644.952271,516.246155 
	C644.244080,516.073914 643.535889,515.901672 642.827698,515.729492 
	C642.827698,497.158203 642.827698,478.586914 642.970642,459.085907 
	C642.969971,452.930023 643.073853,446.771637 642.925781,440.619293 
	C642.848633,437.411926 642.327393,434.215240 642.002441,430.077301 
	C642.039490,425.086090 641.987427,420.092163 642.140869,415.104553 
	C642.271606,410.857025 640.102539,408.130768 635.936340,408.033844 
	C619.338623,407.647614 602.739319,407.323181 586.139832,407.019165 
	C583.070801,406.962952 579.998047,407.107269 576.504272,407.101746 
	C576.504272,407.101746 576.079285,407.139923 575.367310,407.022675 
	C574.889038,407.057892 574.410706,407.093109 573.006470,407.054016 
	C556.860168,407.033051 540.713745,406.984985 524.567627,407.034576 
	C523.013428,407.039368 521.460999,407.650574 518.982117,407.992432 
	C498.232605,407.640503 477.483948,407.218933 456.733246,406.964447 
	C445.419922,406.825684 434.103149,406.972290 422.787933,406.986542 
	C389.510132,407.028351 356.232300,407.068390 322.233002,407.041595 
	C321.509521,407.065918 320.786072,407.090240 319.192902,406.998352 
	C317.441254,407.039764 315.689606,407.081177 313.012726,407.040863 
	C306.980164,407.354248 300.947601,407.667664 293.988434,407.992798 
	C278.823334,407.995209 263.641541,408.441864 248.498016,407.871521 
	C234.176132,407.332123 225.960037,416.673218 225.975815,430.768463 
	C226.037918,486.262817 225.992081,541.757263 226.005447,597.251648 
	C226.009109,612.489685 234.496780,620.998962 249.631088,620.999268 
	C378.284790,621.001526 506.938507,621.000732 635.592224,620.993408 
	C637.756958,620.993286 639.921692,620.900269 642.942505,620.958557 
	C648.827393,621.304382 654.709595,621.878662 660.597778,621.949768 
	C674.021606,622.112000 687.448364,622.027771 701.336914,622.732117 
	C702.765259,622.796448 704.193604,622.860779 706.031372,622.943604 
	C706.031372,616.381348 706.031372,610.244019 706.516724,603.931824 
z"/>
<path fill="#555D61" opacity="1.000000" stroke="none" 
	d="
M624.439209,639.242798 
	C632.706726,639.086792 641.361145,639.059631 650.478271,639.079407 
	C642.236084,639.208069 633.531128,639.289856 624.439209,639.242798 
z"/>
<path fill="#414A4F" opacity="1.000000" stroke="none" 
	d="
M642.086426,620.850647 
	C639.921692,620.900269 637.756958,620.993286 635.592224,620.993408 
	C506.938507,621.000732 378.284790,621.001526 249.631088,620.999268 
	C234.496780,620.998962 226.009109,612.489685 226.005447,597.251648 
	C225.992081,541.757263 226.037918,486.262817 225.975815,430.768463 
	C225.960037,416.673218 234.176132,407.332123 248.498016,407.871521 
	C263.641541,408.441864 278.823334,407.995209 294.925232,407.989777 
	C301.887360,407.698700 307.912659,407.410645 313.937958,407.122589 
	C315.689606,407.081177 317.441254,407.039764 319.866913,407.114075 
	C321.345459,407.189606 322.149963,407.149353 322.954498,407.109100 
	C356.232300,407.068390 389.510132,407.028351 422.787933,406.986542 
	C434.103149,406.972290 445.419922,406.825684 456.733246,406.964447 
	C477.483948,407.218933 498.232605,407.640503 519.919556,407.992493 
	C534.934814,407.987335 549.013000,408.038177 563.090027,407.938171 
	C566.705872,407.912506 570.318420,407.411163 573.932434,407.128357 
	C574.410706,407.093109 574.889038,407.057892 575.823120,407.025818 
	C576.278992,407.028931 576.618835,407.018066 576.618835,407.018066 
	C576.618835,407.018066 576.927002,407.159058 576.927002,407.159058 
	C579.998047,407.107269 583.070801,406.962952 586.139832,407.019165 
	C602.739319,407.323181 619.338623,407.647614 635.936340,408.033844 
	C640.102539,408.130768 642.271606,410.857025 642.140869,415.104553 
	C641.987427,420.092163 642.039490,425.086090 642.031006,431.012573 
	C642.100159,441.311096 642.140625,450.674377 642.145996,460.502777 
	C642.128052,496.629608 642.145264,532.291260 642.116516,568.422668 
	C642.075867,586.211792 642.081116,603.531250 642.086426,620.850647 
z"/>
<path fill="#73797B" opacity="1.000000" stroke="none" 
	d="
M642.514404,620.904602 
	C642.081116,603.531250 642.075867,586.211792 642.423950,568.268066 
	C643.857910,565.374207 645.620300,563.186584 645.904419,560.821289 
	C647.351318,548.774414 648.132690,536.644470 649.710510,524.617493 
	C650.820679,516.155029 655.818787,512.096130 664.401184,512.114563 
	C669.535400,512.125549 674.686768,512.747742 679.797485,513.366943 
	C691.929199,514.836670 698.440674,510.836609 700.095154,498.631866 
	C701.668945,487.022827 702.631409,475.163483 698.889404,463.572937 
	C696.799866,457.100647 698.975098,447.138611 703.439697,443.436249 
	C703.641907,446.084961 703.957153,448.322815 703.961365,450.561249 
	C704.005859,474.023682 703.941528,497.486542 704.090027,520.948181 
	C704.106995,523.631226 705.238098,526.307190 705.852600,528.986511 
	C705.898438,532.358826 705.944275,535.731140 705.687256,539.842163 
	C704.926025,543.144958 704.082703,545.706970 704.069763,548.273254 
	C703.960449,569.866272 704.124207,591.461548 703.861694,613.051941 
	C703.825012,616.060913 701.916138,619.046997 700.874023,622.043579 
	C687.448364,622.027771 674.021606,622.112000 660.597778,621.949768 
	C654.709595,621.878662 648.827393,621.304382 642.514404,620.904602 
z"/>
<path fill="#7D8285" opacity="1.000000" stroke="none" 
	d="
M705.910400,528.521851 
	C705.238098,526.307190 704.106995,523.631226 704.090027,520.948181 
	C703.941528,497.486542 704.005859,474.023682 703.961365,450.561249 
	C703.957153,448.322815 703.641907,446.084961 703.439697,443.436249 
	C698.975098,447.138611 696.799866,457.100647 698.889404,463.572937 
	C702.631409,475.163483 701.668945,487.022827 700.095154,498.631866 
	C698.440674,510.836609 691.929199,514.836670 679.797485,513.366943 
	C674.686768,512.747742 669.535400,512.125549 664.401184,512.114563 
	C655.818787,512.096130 650.820679,516.155029 649.710510,524.617493 
	C648.132690,536.644470 647.351318,548.774414 645.904419,560.821289 
	C645.620300,563.186584 643.857910,565.374207 642.469849,567.798340 
	C642.145264,532.291260 642.128052,496.629608 642.307617,460.497925 
	C642.504456,460.027893 642.827698,460.015625 642.827698,460.015625 
	C642.827698,478.586914 642.827698,497.158203 642.827698,515.729492 
	C643.535889,515.901672 644.244080,516.073914 644.952271,516.246155 
	C645.595215,514.446655 646.859619,512.617065 646.774109,510.852875 
	C646.392944,502.988159 644.804260,495.103149 645.174316,487.297668 
	C645.882141,472.371094 647.613708,457.492615 648.948242,442.596649 
	C649.225403,439.503387 649.649719,436.423615 649.960205,433.333008 
	C650.662231,426.346069 654.254272,421.110840 659.753784,417.003540 
	C660.511597,416.437561 661.625977,415.900787 661.848999,415.138092 
	C663.564758,409.270721 668.019348,408.848602 673.072510,408.952942 
	C681.567383,409.128448 690.068237,409.012329 698.566589,409.022186 
	C704.956787,409.029572 705.920471,409.889282 705.968323,416.466400 
	C706.054443,428.297119 705.868347,440.130676 706.034607,451.959717 
	C706.216553,464.899536 706.928711,477.835571 706.928772,490.773254 
	C706.928833,503.201202 706.313232,515.629150 705.910400,528.521851 
z"/>
<path fill="#7D8285" opacity="1.000000" stroke="none" 
	d="
M701.105469,622.387878 
	C701.916138,619.046997 703.825012,616.060913 703.861694,613.051941 
	C704.124207,591.461548 703.960449,569.866272 704.069763,548.273254 
	C704.082703,545.706970 704.926025,543.144958 705.619141,540.297119 
	C705.904480,542.672974 705.955200,545.332581 706.172852,548.608276 
	C706.522156,549.478882 706.705627,549.732483 706.890320,549.985168 
	C706.934387,567.359497 706.978455,584.733887 706.816650,602.759521 
	C706.448181,603.668274 706.255066,603.900269 706.031372,604.106750 
	C706.031372,610.244019 706.031372,616.381348 706.031372,622.943604 
	C704.193604,622.860779 702.765259,622.796448 701.105469,622.387878 
z"/>
<path fill="#555D61" opacity="1.000000" stroke="none" 
	d="
M573.469482,407.091187 
	C570.318420,407.411163 566.705872,407.912506 563.090027,407.938171 
	C549.013000,408.038177 534.934814,407.987335 520.382446,407.986450 
	C521.460999,407.650574 523.013428,407.039368 524.567627,407.034576 
	C540.713745,406.984985 556.860168,407.033051 573.469482,407.091187 
z"/>
<path fill="#73797B" opacity="1.000000" stroke="none" 
	d="
M642.899170,459.550781 
	C642.827698,460.015625 642.504456,460.027893 642.342773,460.032776 
	C642.140625,450.674377 642.100159,441.311096 642.033203,431.480774 
	C642.327393,434.215240 642.848633,437.411926 642.925781,440.619293 
	C643.073853,446.771637 642.969971,452.930023 642.899170,459.550781 
z"/>
<path fill="#555D61" opacity="1.000000" stroke="none" 
	d="
M313.475342,407.081726 
	C307.912659,407.410645 301.887360,407.698700 295.388550,407.983917 
	C300.947601,407.667664 306.980164,407.354248 313.475342,407.081726 
z"/>
<path fill="#4B5458" opacity="1.000000" stroke="none" 
	d="
M322.593750,407.075348 
	C322.149963,407.149353 321.345459,407.189606 320.301758,407.172211 
	C320.786072,407.090240 321.509521,407.065918 322.593750,407.075348 
z"/>
<path fill="#555D61" opacity="1.000000" stroke="none" 
	d="
M576.715637,407.130402 
	C576.927002,407.159058 576.618835,407.018066 576.618835,407.018066 
	C576.618835,407.018066 576.278992,407.028931 576.179138,407.084412 
	C576.079285,407.139923 576.504272,407.101746 576.715637,407.130402 
z"/>
<path fill="#8B9092" opacity="1.000000" stroke="none" 
	d="
M706.890259,549.718018 
	C706.705627,549.732483 706.522156,549.478882 706.182495,549.050110 
	C706.313538,549.067505 706.601868,549.259155 706.890259,549.718018 
z"/>
<path fill="#8B9092" opacity="1.000000" stroke="none" 
	d="
M706.274048,604.019287 
	C706.255066,603.900269 706.448181,603.668274 706.741333,603.225403 
	C706.753540,603.337280 706.635132,603.634521 706.274048,604.019287 
z"/>
</svg>