<?xml version="1.0" standalone="no"?>
<!DOCTYPE svg PUBLIC "-//W3C//DTD SVG 20010904//EN"
 "http://www.w3.org/TR/2001/REC-SVG-20010904/DTD/svg10.dtd">
<svg version="1.0" xmlns="http://www.w3.org/2000/svg"
 width="837.000000pt" height="801.000000pt" viewBox="0 0 837.000000 801.000000"
 preserveAspectRatio="xMidYMid meet">

<g transform="translate(0.000000,801.000000) scale(0.100000,-0.100000)"
fill="#000000" stroke="none">
<path d="M1830 4971 c-99 -33 -144 -58 -196 -107 -88 -84 -130 -154 -150 -249
-19 -87 -19 -1713 0 -1800 32 -148 144 -278 291 -338 l80 -32 2360 0 2360 0
88 39 c140 62 223 157 274 316 9 27 17 105 20 193 l6 147 44 0 c58 0 164 50
199 94 15 18 37 57 50 87 23 53 23 61 24 390 0 329 0 337 -23 393 -13 31 -39
73 -57 93 -45 47 -142 93 -197 93 l-43 0 0 118 c0 138 -17 227 -58 308 -60
118 -135 186 -267 240 l-70 29 -2340 2 c-2239 2 -2342 1 -2395 -16z m4776
-164 c76 -35 123 -83 166 -167 l33 -65 3 -217 4 -216 113 -4 c127 -3 155 -15
187 -79 16 -30 18 -69 18 -344 0 -275 -2 -314 -18 -344 -32 -64 -60 -76 -187
-79 l-113 -4 -4 -211 c-4 -194 -6 -217 -28 -270 -33 -83 -91 -143 -174 -183
l-70 -34 -2321 0 c-1898 1 -2327 3 -2357 14 -110 39 -201 134 -224 234 -20 85
-20 1684 0 1759 18 68 67 134 131 179 100 69 -105 63 2455 61 l2325 -2 61 -28z"/>
<path d="M1930 4660 c-8 -5 -18 -6 -22 -4 -4 3 -8 0 -8 -5 0 -6 -3 -10 -7 -9
-20 4 -46 -18 -71 -61 l-27 -46 1 -820 c1 -766 2 -822 19 -855 23 -45 45 -71
56 -64 5 3 9 1 9 -4 0 -6 8 -13 18 -17 21 -10 2436 -18 2540 -9 l72 6 -2 946
-3 947 -1280 2 c-722 1 -1287 -2 -1295 -7z"/>
</g>
</svg>
