<?xml version="1.0" standalone="no"?>
<!DOCTYPE svg PUBLIC "-//W3C//DTD SVG 20010904//EN"
 "http://www.w3.org/TR/2001/REC-SVG-20010904/DTD/svg10.dtd">
<svg version="1.0" xmlns="http://www.w3.org/2000/svg"
 width="1024.000000pt" height="1024.000000pt" viewBox="0 0 1024.000000 1024.000000"
 preserveAspectRatio="xMidYMid meet">

<g transform="translate(0.000000,1024.000000) scale(0.100000,-0.100000)"
fill="#000000" stroke="none">
<path d="M2351 6519 c-165 -21 -266 -90 -374 -255 -26 -39 -55 -100 -67 -141
-20 -71 -21 -81 -18 -1035 4 -1109 -6 -1008 108 -1168 89 -124 165 -175 316
-215 53 -14 334 -15 2636 -15 2971 0 2657 -11 2821 104 97 67 142 118 181 208
40 91 50 155 51 310 l0 147 61 10 c33 6 68 11 76 11 9 0 52 29 95 64 63 50 85
76 104 118 l24 53 0 395 c0 385 -1 396 -22 442 -50 109 -153 182 -275 196
l-59 7 -4 160 c-4 205 -30 298 -112 407 -42 55 -194 160 -270 186 -44 16 -239
17 -2628 18 -1419 1 -2609 -2 -2644 -7z m5249 -198 c77 -32 104 -49 142 -90
82 -89 91 -127 96 -408 l4 -241 128 -4 c143 -3 166 -12 205 -79 19 -32 20 -52
20 -394 0 -329 -2 -363 -18 -393 -30 -55 -81 -72 -218 -72 l-116 0 -5 -242
c-5 -222 -7 -248 -28 -302 -35 -91 -91 -145 -204 -195 l-94 -41 -2571 0
c-2342 0 -2575 1 -2618 16 -111 38 -204 126 -240 229 -17 47 -18 116 -18 1000
0 720 3 960 12 990 35 114 127 209 238 245 59 18 121 19 2625 19 l2565 1 95
-39z"/>
<path d="M2385 6159 c-52 -20 -83 -48 -107 -97 l-23 -47 0 -910 0 -910 25 -41
c14 -23 51 -62 82 -88 l58 -46 1110 0 1110 0 0 1064 0 1064 -27 6 c-16 3 -516
8 -1113 11 -804 4 -1093 2 -1115 -6z"/>
</g>
</svg>
