<svg version="1.1" id="Layer_1" xmlns="http://www.w3.org/2000/svg" xmlns:xlink="http://www.w3.org/1999/xlink" x="0px" y="0px"
	 width="100%" viewBox="0 0 1024 1024" enable-background="new 0 0 1024 1024" xml:space="preserve">
<path fill="#000000" opacity="1.000000" stroke="none" 
	d="
M649.000000,693.254272 
	C519.867126,693.263000 391.234283,693.300415 262.601410,693.259766 
	C230.872238,693.249695 202.306473,672.499756 192.938583,642.777649 
	C190.680496,635.613342 189.650162,628.215149 189.654861,620.641174 
	C189.699448,548.660095 189.637207,476.679077 189.671356,404.698029 
	C189.687500,370.643158 215.852905,340.086670 249.444458,334.636139 
	C253.239929,334.020325 257.024445,333.669220 260.871338,333.669708 
	C418.329987,333.690186 575.788635,333.669434 733.247253,333.702576 
	C768.113953,333.709900 798.896790,360.932953 803.403748,395.580505 
	C805.324829,410.349030 803.912659,425.192810 804.288269,439.997589 
	C804.569580,451.086182 802.813965,449.463318 814.254578,449.729309 
	C820.392029,449.872009 826.555420,449.055115 832.667236,450.538757 
	C842.729980,452.981415 850.143982,460.713196 851.342468,470.898071 
	C852.924133,484.339874 851.832825,497.859192 852.046692,511.341949 
	C852.250183,524.168213 852.116211,537.001160 852.026978,549.830383 
	C851.910645,566.544189 841.510864,576.993896 824.892700,577.183838 
	C819.561340,577.244812 814.224487,577.353638 808.898621,577.180847 
	C805.437073,577.068604 804.223022,578.383240 804.258057,581.848389 
	C804.394836,595.343445 804.353577,608.840881 804.302979,622.337158 
	C804.159546,660.571106 771.690186,693.148926 733.475769,693.278015 
	C705.484192,693.372559 677.491943,693.269226 649.000000,693.254272 
M216.005585,424.500000 
	C216.016464,489.315247 216.348892,554.132812 215.878922,618.944580 
	C215.692673,644.628723 235.918991,666.764587 264.101929,666.743286 
	C419.893555,666.625549 575.685242,666.688110 731.476929,666.663818 
	C757.052795,666.659790 777.705750,646.283325 777.736023,620.751709 
	C777.820801,549.271057 777.758118,477.790253 777.718567,406.309509 
	C777.717102,403.658447 777.627258,400.952148 777.110107,398.365265 
	C772.522034,375.415710 754.136902,360.265228 730.644897,360.241974 
	C631.505066,360.143890 532.365173,360.092194 433.225342,360.070923 
	C375.575165,360.058563 317.924286,359.986023 260.275208,360.257629 
	C241.130676,360.347809 223.916306,374.026367 218.037567,392.245758 
	C214.712448,402.551056 216.380127,413.065857 216.005585,424.500000 
z"/>
<path fill="#000000" opacity="1.000000" stroke="none" 
	d="
M703.216125,64.067726 
	C703.794067,67.748505 704.422913,71.008682 704.864746,74.294014 
	C705.175476,76.604210 705.213989,78.959480 703.923096,81.063538 
	C703.234863,82.185425 702.522095,83.490555 700.894226,83.150299 
	C699.520935,82.863266 699.285095,81.557175 699.113647,80.431450 
	C698.915100,79.127670 698.882629,77.790337 698.875488,76.467033 
	C698.834290,68.839279 698.813904,61.211380 698.801819,53.583508 
	C698.789001,45.509918 702.311157,42.432098 710.475769,43.437695 
	C711.584473,43.574253 712.654541,44.024738 714.432373,44.523357 
	C708.559509,50.046577 704.797241,56.261299 703.216125,64.067726 
z"/>
<path fill="#000000" opacity="1.000000" stroke="none" 
	d="
M884.889893,49.431396 
	C885.145325,47.453773 884.729370,45.606651 887.680115,44.526379 
	C888.564819,52.268593 888.487305,59.601246 886.649780,67.936249 
	C884.698853,61.356201 884.807373,55.611637 884.889893,49.431396 
z"/>
<path fill="#000000" opacity="1.000000" stroke="none" 
	d="
M450.627808,648.286377 
	C452.369720,652.299744 450.298767,652.999756 447.274597,653.009399 
	C437.946167,653.039307 428.617798,653.136841 419.289429,653.136475 
	C365.983398,653.134583 312.677307,653.136841 259.371338,653.080872 
	C244.128860,653.064880 233.962738,645.785339 230.367889,632.685547 
	C229.782242,630.551453 229.681595,628.423462 229.681458,626.260132 
	C229.676483,550.964966 229.653275,475.669769 229.692490,400.374603 
	C229.700592,384.812988 240.464294,373.464203 256.897217,373.156036 
	C284.706482,372.634583 312.532562,373.052490 340.350830,372.921875 
	C344.525513,372.902313 345.660156,375.550568 346.831909,378.576599 
	C357.350342,405.740417 367.919342,432.884705 378.391144,460.066467 
	C398.555603,512.407471 418.673950,564.766357 438.792877,617.124939 
	C442.733582,627.380371 446.590393,637.668030 450.627808,648.286377 
z"/>
</svg>