<?xml version="1.0" standalone="no"?>
<!DOCTYPE svg PUBLIC "-//W3C//DTD SVG 20010904//EN"
 "http://www.w3.org/TR/2001/REC-SVG-20010904/DTD/svg10.dtd">
<svg version="1.0" xmlns="http://www.w3.org/2000/svg"
 width="610.000000pt" height="584.000000pt" viewBox="0 0 610.000000 584.000000"
 preserveAspectRatio="xMidYMid meet">

<g transform="translate(0.000000,584.000000) scale(0.100000,-0.100000)"
fill="#000000" stroke="none">
<path d="M1325 3616 c-64 -20 -99 -42 -148 -92 -81 -82 -91 -114 -98 -309 -9
-230 -9 -789 0 -1010 6 -159 10 -185 30 -223 36 -70 97 -129 174 -167 l70 -35
1714 0 1713 0 64 29 c84 38 139 90 177 167 26 53 33 81 40 171 4 59 8 116 8
126 1 11 9 17 25 17 66 0 145 49 179 113 21 40 22 52 22 302 0 235 -2 263 -19
295 -37 70 -92 111 -169 125 -36 7 -37 8 -37 54 -2 215 -67 343 -212 416 l-71
35 -1711 -1 c-1350 0 -1719 -3 -1751 -13z m3496 -123 c49 -26 83 -62 111 -118
11 -21 18 -78 23 -191 l7 -162 86 -7 c96 -8 126 -27 137 -87 4 -19 5 -132 3
-251 l-3 -217 -28 -27 c-25 -25 -35 -28 -111 -31 l-84 -4 -7 -156 c-9 -213
-36 -271 -148 -328 l-47 -24 -1703 2 c-1618 3 -1704 4 -1735 21 -48 26 -109
93 -124 135 -10 29 -13 174 -13 667 0 626 0 630 22 670 19 37 50 69 96 105 10
7 35 17 55 21 20 3 797 7 1726 8 l1688 1 49 -27z"/>
<path d="M1383 3385 c-18 -8 -42 -29 -53 -47 -20 -32 -20 -44 -18 -638 3 -545
5 -607 20 -628 37 -54 -14 -51 996 -54 619 -2 944 0 949 7 4 6 7 317 5 693
l-2 682 -933 0 c-778 -1 -937 -3 -964 -15z"/>
</g>
</svg>
