<svg version="1.1" id="Layer_1" xmlns="http://www.w3.org/2000/svg" xmlns:xlink="http://www.w3.org/1999/xlink" x="0px" y="0px"
	 width="100%" viewBox="0 0 1024 1024" enable-background="new 0 0 1024 1024" xml:space="preserve">
<path fill="#000000" opacity="1.000000" stroke="none" 
	d="
M817.704102,591.359375 
	C810.572449,591.370117 803.897644,591.576233 797.244080,591.289368 
	C792.527893,591.085938 791.401001,592.840271 791.522766,597.458435 
	C792.045166,617.270447 792.902710,637.130249 791.256897,656.899902 
	C789.156860,682.125488 766.707825,702.346130 741.313721,702.358582 
	C614.164368,702.420959 487.014984,702.337341 359.865753,702.455505 
	C329.211365,702.484009 298.554535,701.949219 267.898346,702.790649 
	C259.932831,703.009216 251.768875,703.119690 243.989426,701.687073 
	C218.424698,696.979126 202.115082,675.964539 202.076889,648.427551 
	C201.994156,588.770264 202.034134,529.112793 202.005035,469.455444 
	C201.995514,449.958405 201.800522,430.460571 201.918015,410.964478 
	C202.070343,385.685730 218.775177,365.018921 243.245499,359.377930 
	C246.548828,358.616425 249.860886,358.647858 253.184174,358.647430 
	C368.834290,358.632782 484.484406,358.635803 600.134521,358.633942 
	C646.458557,358.633179 692.800232,359.394989 739.099976,358.333130 
	C766.564819,357.703217 792.337219,380.436707 791.657349,411.699554 
	C791.306519,427.832062 791.503479,443.976715 791.478577,460.115906 
	C791.468994,466.315002 792.036499,466.845703 798.366211,466.870483 
	C804.198608,466.893311 810.039673,466.702148 815.861755,466.954041 
	C830.781738,467.599487 842.217651,479.254242 842.318054,494.161987 
	C842.476135,517.657349 842.441223,541.154846 842.338257,564.650879 
	C842.277588,578.492737 832.051697,589.629333 817.704102,591.359375 
M225.145920,381.648132 
	C218.559402,388.704468 214.532059,396.887390 214.048935,406.660583 
	C213.358276,420.632446 213.818359,434.619049 213.585052,448.598572 
	C213.193375,472.067230 213.871307,495.552185 213.953079,519.030762 
	C214.046478,545.847168 213.975357,572.664062 213.984833,599.480774 
	C213.990952,616.812012 213.748947,634.148438 214.092819,651.473145 
	C214.565170,675.269165 231.584442,691.660095 255.333267,691.663330 
	C347.658630,691.675903 439.983978,691.676208 532.309326,691.676575 
	C601.469971,691.676819 670.630554,691.691345 739.791199,691.653320 
	C759.120422,691.642761 776.337280,677.838684 779.387329,659.277344 
	C781.005249,649.431396 780.725769,639.378540 780.420410,629.357361 
	C779.994629,615.386292 780.100464,601.396606 780.138123,587.415283 
	C780.150452,582.833557 782.504517,580.501953 787.402832,580.612183 
	C796.064453,580.807251 804.733765,580.718445 813.399353,580.661804 
	C824.063599,580.592163 831.347595,574.087036 831.487732,563.446411 
	C831.788330,540.619385 831.788757,517.782471 831.472412,494.955750 
	C831.331238,484.771393 824.135559,478.386749 814.021362,478.333862 
	C805.688965,478.290283 797.356140,478.344452 789.023560,478.320526 
	C781.980713,478.300293 780.639832,476.943634 780.637573,469.785950 
	C780.631409,450.454407 780.832764,431.120911 780.619080,411.791840 
	C780.333435,385.948761 760.759521,369.025360 737.988464,369.174500 
	C667.830933,369.633942 597.668579,369.342865 527.508057,369.350555 
	C437.182648,369.360443 346.857208,369.354553 256.531860,369.418976 
	C244.824615,369.427338 234.133148,372.483154 225.145920,381.648132 
z"/>
<path fill="#000000" opacity="1.000000" stroke="none" 
	d="
M755.408203,392.573242 
	C761.754761,398.958557 764.338257,406.392212 764.335388,414.975006 
	C764.309570,491.800995 764.036011,568.629211 764.592163,645.451294 
	C764.724426,663.719910 749.793762,676.331970 733.344666,676.293701 
	C611.690369,676.010803 490.035126,676.124084 368.380188,676.114685 
	C332.050323,676.111877 295.720459,676.112854 259.390594,676.116577 
	C248.682739,676.117676 239.960266,672.256042 233.759766,663.228149 
	C230.092422,657.888489 229.066772,651.835571 229.058807,645.633301 
	C228.960388,568.974060 228.856720,492.314545 228.979126,415.655457 
	C229.010239,396.175385 240.800766,384.912506 260.632477,384.900574 
	C398.452728,384.817596 536.273010,384.812805 674.093323,384.780914 
	C694.091431,384.776276 714.090210,384.850098 734.087402,384.706665 
	C742.133057,384.648987 749.165161,386.916534 755.408203,392.573242 
M574.500000,396.226562 
	C469.522583,396.248016 364.545197,396.262085 259.567780,396.301056 
	C247.766846,396.305450 240.337555,403.227936 240.333023,414.522736 
	C240.302094,491.672974 240.361298,568.823242 240.372086,645.973450 
	C240.373505,656.095398 246.732498,664.896973 259.398438,664.879761 
	C417.697968,664.665039 575.997864,664.728516 734.297668,664.703552 
	C746.415161,664.701660 752.959412,658.388794 752.969910,646.337769 
	C753.036682,569.689087 753.053894,493.040344 752.994751,416.391724 
	C752.983582,401.945953 746.991089,396.241241 732.466370,396.238159 
	C680.144226,396.227112 627.822144,396.229614 574.500000,396.226562 
z"/>
<path fill="#000000" opacity="1.000000" stroke="none" 
	d="
M583.204224,527.181213 
	C553.208557,561.385071 523.439880,595.315674 493.676239,629.250793 
	C487.967072,635.760193 482.232513,642.248352 476.601685,648.825073 
	C474.238373,651.585327 471.634979,653.593872 467.997864,651.613953 
	C464.183899,649.537964 464.967346,646.312195 466.236877,642.917786 
	C476.793488,614.692139 487.275208,586.438416 497.779083,558.192993 
	C498.292572,556.812134 499.027618,555.474121 498.773254,553.953308 
	C496.992279,552.728882 495.110962,553.196411 493.337982,553.193909 
	C473.010773,553.165283 452.683502,553.183411 432.356232,553.189209 
	C431.523132,553.189453 430.690063,553.190369 429.856964,553.192505 
	C427.021667,553.199768 424.536163,552.556702 423.334534,549.607666 
	C422.193054,546.806335 423.732666,544.800476 425.423035,542.890625 
	C435.909363,531.042297 446.502533,519.287231 456.891235,507.354126 
	C482.153564,478.336182 507.322113,449.236603 532.534485,420.175140 
	C533.844177,418.665527 535.160095,417.155426 536.561340,415.732452 
	C538.824524,413.434265 541.437927,411.989594 544.574585,413.912720 
	C547.668945,415.809967 547.734131,418.713257 546.693359,421.843292 
	C542.754272,433.689819 538.852356,445.548676 534.902344,457.391571 
	C529.847900,472.545776 524.752197,487.686188 519.699524,502.841003 
	C519.183777,504.388000 518.840637,505.992584 518.243225,508.220032 
	C524.912231,509.560791 531.358215,509.397614 537.693115,509.512848 
	C553.183594,509.794739 568.682251,509.633057 584.177612,509.634644 
	C587.029480,509.634949 589.964600,509.365051 591.576782,512.507263 
	C593.257812,515.783813 590.934814,517.825256 589.190735,520.000122 
	C587.315552,522.338562 585.355774,524.609253 583.204224,527.181213 
M516.773865,475.428101 
	C520.074402,465.527222 523.374939,455.626312 526.675476,445.725433 
	C526.429199,445.588806 526.182983,445.452209 525.936707,445.315582 
	C498.206970,477.152405 470.477203,508.989258 441.855865,541.849731 
	C445.129700,541.849731 446.931061,541.848816 448.732422,541.849915 
	C467.226562,541.861084 485.720703,541.855591 504.214813,541.891479 
	C512.924988,541.908386 514.950317,544.898315 511.859985,553.147705 
	C506.953857,566.243835 501.964478,579.308899 497.097504,592.419495 
	C494.138397,600.390564 491.343048,608.422546 488.474091,616.427124 
	C488.831268,616.612793 489.188416,616.798462 489.545593,616.984131 
	C517.477783,585.163879 545.409973,553.343689 573.443909,521.407654 
	C571.223206,519.825623 569.339233,520.377808 567.586243,520.373291 
	C549.092041,520.325623 530.597534,520.364197 512.103271,520.325562 
	C505.141693,520.311035 503.072906,517.489990 505.214142,510.834137 
	C508.935608,499.266357 512.774719,487.736450 516.773865,475.428101 
z"/>
</svg>