<svg version="1.1" id="Layer_1" xmlns="http://www.w3.org/2000/svg" xmlns:xlink="http://www.w3.org/1999/xlink" x="0px" y="0px"
	 width="100%" viewBox="0 0 1024 1024" enable-background="new 0 0 1024 1024" xml:space="preserve">
<path fill="#000000" opacity="1.000000" stroke="none" 
	d="
M250.972992,657.321777 
	C235.576477,656.317749 220.713394,654.229065 209.385895,643.484192 
	C200.269348,634.836487 192.657974,624.799866 190.611435,611.627563 
	C189.658630,605.495117 189.668076,599.384521 189.667191,593.242981 
	C189.659363,538.589172 189.842117,483.934326 189.536346,429.282196 
	C189.458954,415.448700 193.830078,403.704437 201.891251,392.821198 
	C211.154938,380.314484 223.154297,373.425995 238.869980,372.423248 
	C244.168839,372.085205 249.463791,371.686890 254.767456,371.686035 
	C418.728973,371.660339 582.690552,371.738861 746.651917,371.593384 
	C772.942383,371.570068 800.110229,392.207245 801.564392,421.284332 
	C801.979675,429.588043 802.613770,437.842285 801.886475,446.117676 
	C801.587036,449.525604 803.554626,449.653900 805.844482,449.641205 
	C821.164978,449.556427 835.159973,461.401245 837.829773,476.614349 
	C838.143188,478.400330 838.309631,480.235901 838.312744,482.048889 
	C838.347961,502.544006 838.242859,523.039856 838.376282,543.534180 
	C838.454407,555.541077 834.105713,564.884827 824.117798,572.040161 
	C818.905701,575.774048 813.694702,578.033691 807.392090,578.501343 
	C803.859741,578.763489 801.682007,579.485779 801.998413,584.840454 
	C802.981018,601.468994 802.907593,618.380554 792.517395,632.730103 
	C781.821716,647.501648 767.273438,656.259155 748.709778,656.273010 
	C588.414185,656.392456 428.118439,656.343811 267.822754,656.332703 
	C262.336029,656.332336 256.849640,656.205017 250.972992,657.321777 
M210.156616,412.666260 
	C208.682846,417.593445 207.346436,422.543396 207.346756,427.748230 
	C207.350143,484.739716 207.348938,541.731201 207.347183,598.722717 
	C207.347046,603.224792 207.952591,607.691406 209.126434,611.987427 
	C213.516129,628.052917 227.719070,638.655212 244.557434,638.655762 
	C408.366333,638.661194 572.175232,638.641724 735.984131,638.706726 
	C745.345642,638.710388 754.225464,638.278809 763.061584,633.910217 
	C772.307861,629.338989 778.921143,623.315857 782.152283,613.547729 
	C784.162659,607.470337 784.231323,601.124390 784.556091,594.882935 
	C784.997009,586.407104 784.629150,577.890930 784.677185,569.392456 
	C784.731079,559.869751 783.739014,560.729919 793.151855,560.667480 
	C796.651184,560.644287 800.151123,560.689209 803.650208,560.653503 
	C813.906677,560.548950 820.466125,555.188843 820.470703,545.026978 
	C820.480347,523.574463 821.923035,502.084534 819.662415,480.662628 
	C818.803894,472.527618 813.249695,467.555145 804.971252,467.388763 
	C799.807312,467.284973 794.633362,467.194763 789.476196,467.403503 
	C785.744080,467.554565 784.555054,466.051941 784.612061,462.427338 
	C784.777100,451.931519 784.845398,441.427094 784.589111,430.934937 
	C784.472717,426.168854 783.845154,421.350708 782.855713,416.682037 
	C779.283325,399.824860 762.862061,389.677338 745.815063,389.630402 
	C579.674438,389.172729 413.532043,389.365662 247.390198,389.308014 
	C230.318436,389.302094 217.495163,395.813629 210.156616,412.666260 
z"/>
<path fill="#000000" opacity="1.000000" stroke="none" 
	d="
M329.000061,407.662476 
	C348.656311,407.665710 367.845978,406.956726 386.960175,407.854584 
	C410.423737,408.956787 433.868805,408.289124 457.317322,408.694000 
	C464.601746,408.819794 465.344604,409.628815 465.345123,416.672760 
	C465.350098,483.303070 465.349884,549.933350 465.344482,616.563660 
	C465.343933,623.332397 465.323456,623.353271 458.461090,623.353455 
	C388.166138,623.355103 317.871155,623.354858 247.576202,623.339233 
	C238.313919,623.337219 227.031372,612.046692 226.631012,602.832886 
	C224.779953,560.232544 225.975830,517.613708 225.734161,475.004089 
	C225.661453,462.184540 225.577225,449.363342 225.713287,436.545197 
	C225.762405,431.916931 226.107635,427.236969 226.903992,422.683105 
	C228.452499,413.827972 236.639114,407.696930 246.545319,407.683350 
	C273.863525,407.645935 301.181793,407.665649 329.000061,407.662476 
M265.565582,471.100677 
	C266.712616,471.271118 267.899963,471.306183 269.000122,471.633911 
	C276.336548,473.819305 281.092316,471.147827 282.741425,463.430237 
	C284.341370,455.942413 285.513000,448.362885 285.815613,440.689514 
	C286.078979,434.011780 284.628296,431.651703 278.191010,429.601837 
	C269.309509,426.773682 260.790466,429.070526 252.539200,432.380524 
	C250.021057,433.390656 248.442612,435.778717 247.698029,438.467316 
	C245.114609,447.795685 245.522552,457.353485 246.698364,466.720642 
	C247.597015,473.879822 253.643768,476.130280 260.053253,472.655914 
	C261.543762,471.847931 263.041595,471.200134 265.565582,471.100677 
z"/>
</svg>