<?xml version="1.0" standalone="no"?>
<!DOCTYPE svg PUBLIC "-//W3C//DTD SVG 20010904//EN"
 "http://www.w3.org/TR/2001/REC-SVG-20010904/DTD/svg10.dtd">
<svg version="1.0" xmlns="http://www.w3.org/2000/svg"
 width="600.000000pt" height="600.000000pt" viewBox="0 0 600.000000 600.000000"
 preserveAspectRatio="xMidYMid meet">

<g transform="translate(0.000000,600.000000) scale(0.100000,-0.100000)"
fill="#000000" stroke="none">
<path d="M2379 3981 c-67 -22 -94 -44 -222 -179 -114 -121 -148 -180 -155
-272 -13 -182 95 -492 255 -735 340 -514 815 -825 1263 -825 160 0 210 27 365
197 118 130 142 181 132 282 -12 134 -69 203 -256 310 -142 81 -180 94 -256
88 -73 -5 -126 -31 -180 -86 -28 -30 -47 -41 -68 -41 -128 0 -457 339 -483
496 -5 36 -2 45 24 75 46 53 73 113 79 177 8 91 -15 152 -107 284 -97 139
-134 178 -195 208 -50 24 -152 35 -196 21z m147 -160 c29 -18 154 -184 189
-250 24 -46 19 -112 -10 -152 -79 -108 -91 -143 -76 -225 22 -117 109 -252
263 -407 137 -136 276 -217 375 -217 51 0 101 25 160 81 53 50 55 51 106 47
75 -7 282 -128 314 -184 25 -43 30 -112 12 -147 -22 -42 -189 -215 -223 -231
-43 -20 -186 -21 -288 -2 -326 63 -640 290 -915 662 -161 219 -266 470 -280
670 -4 64 -2 87 12 113 19 38 184 217 224 243 34 23 98 23 137 -1z"/>
<path d="M3293 3880 c-41 -17 -45 -41 -41 -244 4 -166 7 -198 26 -247 43 -109
128 -157 295 -166 53 -3 97 -10 97 -14 0 -5 -3 -9 -8 -9 -4 0 -29 -20 -55 -43
-34 -32 -47 -51 -47 -71 0 -34 41 -76 74 -76 35 0 323 230 332 265 10 39 -14
66 -164 185 -105 84 -144 109 -167 109 -35 1 -48 -6 -64 -36 -20 -38 -12 -56
47 -111 l57 -54 -95 4 c-52 3 -107 11 -121 18 -46 21 -53 51 -58 257 -6 175
-8 194 -26 212 -26 24 -54 32 -82 21z"/>
</g>
</svg>
