<svg version="1.1" id="Layer_1" xmlns="http://www.w3.org/2000/svg" xmlns:xlink="http://www.w3.org/1999/xlink" x="0px" y="0px"
	 width="100%" viewBox="0 0 1024 1024" enable-background="new 0 0 1024 1024" xml:space="preserve">
<path fill="#000000" opacity="1.000000" stroke="none" 
	d="
M703.999878,774.397949 
	C680.518311,774.555908 657.536682,774.835876 634.555115,774.838196 
	C610.564453,774.840576 586.573669,774.442505 562.583130,774.459778 
	C529.924438,774.483215 497.260925,775.163696 464.608398,774.788025 
	C414.956482,774.216858 365.306946,774.656006 315.657227,774.420044 
	C287.179230,774.284668 258.703003,775.101379 230.222763,774.410706 
	C203.254822,773.756592 178.722641,749.295288 178.700058,722.369995 
	C178.601837,605.212036 178.577408,488.053955 178.643631,370.896027 
	C178.660065,341.821320 203.109161,317.922699 232.685715,317.844330 
	C274.015778,317.734802 315.346893,317.682251 356.675842,317.914490 
	C362.087799,317.944885 364.548950,316.034363 366.660217,311.287903 
	C374.173584,294.396942 382.142731,277.708557 389.959045,260.952667 
	C392.956879,254.526215 398.039490,251.648804 405.125641,251.654739 
	C476.953827,251.714798 548.782166,251.738663 620.610291,251.669479 
	C628.714661,251.661667 634.015564,254.961334 637.404602,262.438263 
	C645.037048,279.276825 653.210449,295.869995 660.858887,312.701538 
	C662.671204,316.689850 664.998535,318.078247 669.242615,317.915955 
	C677.064453,317.616882 684.906982,317.697296 692.736816,317.843048 
	C696.203857,317.907532 697.728699,317.002594 697.885864,313.120972 
	C698.498047,297.997864 706.202698,290.903687 721.442139,290.911835 
	C734.941162,290.919067 748.440552,290.871185 761.939209,290.948242 
	C775.897278,291.027954 784.172729,298.946777 784.179932,312.812500 
	C784.182617,317.971161 786.916382,317.921143 790.506775,317.857056 
	C809.340576,317.520935 825.075867,324.158051 836.783936,339.153198 
	C844.997192,349.672333 848.165894,361.975433 848.167603,375.154541 
	C848.177551,452.148529 848.148865,529.142517 848.145020,606.136475 
	C848.143188,643.466858 848.262878,680.797607 848.148071,718.127563 
	C848.061279,746.351746 829.708191,768.623108 802.402710,773.807617 
	C798.842468,774.483521 795.106628,774.384094 791.451782,774.388916 
	C762.467896,774.426758 733.483887,774.402893 703.999878,774.397949 
M315.500000,336.014221 
	C288.506958,335.969940 261.495605,336.520172 234.526779,335.689911 
	C213.634659,335.046753 195.721298,353.180542 196.190186,373.768494 
	C196.709808,396.584625 196.440903,419.423065 196.203140,442.248566 
	C196.151947,447.162689 197.306671,448.807404 202.542358,448.789093 
	C258.195312,448.594788 313.849548,448.585724 369.502319,448.800110 
	C374.971436,448.821167 378.125580,447.021332 381.398529,442.729706 
	C420.269409,391.760681 471.656982,368.884491 535.437683,376.768158 
	C582.354797,382.567413 619.430054,406.017395 646.982239,444.389618 
	C649.156006,447.416992 651.344910,448.760101 655.143921,448.752136 
	C711.297241,448.634308 767.450928,448.615082 823.604126,448.752655 
	C828.425293,448.764465 829.955322,447.225922 829.919922,442.468048 
	C829.746277,419.141693 829.864563,395.813202 829.827087,372.485565 
	C829.823364,370.167542 829.714600,367.795990 829.228943,365.540924 
	C825.319641,347.387421 811.031860,335.899841 792.418152,335.903137 
	C748.762268,335.910797 705.106079,335.884186 661.450684,336.042725 
	C654.617981,336.067505 650.460266,333.603455 647.596863,327.125671 
	C639.855103,309.611755 631.364319,292.430206 623.470642,274.981140 
	C621.536194,270.704895 619.092834,269.260864 614.393494,269.271362 
	C546.743103,269.422424 479.092194,269.403290 411.441681,269.274780 
	C407.341827,269.266998 405.117584,270.533661 403.427704,274.274933 
	C395.681458,291.424835 387.303009,308.299622 379.953094,325.613434 
	C376.609009,333.490997 371.612640,336.319489 363.487030,336.158112 
	C347.829895,335.847260 332.162903,336.032623 315.500000,336.014221 
M204.601562,674.292236 
	C195.510254,674.330444 196.323456,673.472473 196.314468,682.665833 
	C196.302246,695.162598 196.227112,707.660400 196.353714,720.155945 
	C196.556015,740.121521 213.254135,756.680176 233.212708,756.682617 
	C419.665192,756.704956 606.117676,756.706543 792.570190,756.690491 
	C813.124756,756.688721 829.507935,740.611938 829.772522,720.130310 
	C829.936096,707.469177 829.803406,694.804077 829.792847,682.140747 
	C829.786438,674.419739 829.677368,674.304565 821.985474,674.304016 
	C749.837158,674.298523 677.688904,674.317871 605.540649,674.241028 
	C601.877808,674.237122 598.845398,675.273499 595.679443,677.016907 
	C540.750488,707.264282 485.785736,706.916443 430.950867,676.784668 
	C427.556030,674.919189 424.264801,674.240173 420.521118,674.242859 
	C348.872742,674.293762 277.224335,674.286377 204.601562,674.292236 
M389.877411,642.603271 
	C346.427460,589.163513 339.945709,530.586670 365.970062,467.875732 
	C363.894165,466.034882 361.824890,466.347717 359.865479,466.346954 
	C307.219666,466.326294 254.573715,466.368896 201.928177,466.242981 
	C197.623398,466.232666 196.183716,467.407593 196.194366,471.872986 
	C196.336960,531.682251 196.336792,591.492065 196.237976,651.301514 
	C196.231155,655.435608 197.510620,656.740356 201.652161,656.732300 
	C264.460205,656.610657 327.268524,656.639587 390.076721,656.573181 
	C393.630890,656.569458 397.184509,656.045532 401.856689,655.674988 
	C397.474976,650.898804 393.912018,647.015015 389.877411,642.603271 
M652.787048,621.199280 
	C644.968872,633.899414 635.302734,645.141907 624.017273,656.218689 
	C626.892944,656.401184 628.536743,656.596252 630.180542,656.596680 
	C694.677917,656.614563 759.175293,656.588745 823.672546,656.670105 
	C828.441284,656.676086 829.929016,654.872864 829.917664,650.122498 
	C829.777771,591.291626 829.820862,532.460388 829.807495,473.629242 
	C829.805908,466.666229 829.471985,466.334686 822.417969,466.333344 
	C770.753174,466.323547 719.088379,466.318817 667.423584,466.347961 
	C665.323547,466.349152 663.104004,465.896149 660.747498,467.410400 
	C683.307800,519.654785 682.001770,570.838562 652.787048,621.199280 
M481.753693,396.342621 
	C473.819305,398.256683 466.056000,400.660858 458.479797,403.748688 
	C396.245453,429.113861 359.280548,494.397736 370.623047,560.687317 
	C383.251617,634.492981 444.872162,680.453552 512.805115,681.540466 
	C535.245239,681.899536 556.637268,676.505920 576.895447,666.654297 
	C633.223938,639.261780 664.405396,580.068237 657.402832,521.189453 
	C653.077271,484.819794 637.606262,453.493195 609.646667,429.376770 
	C572.876099,397.660492 530.276733,386.822845 481.753693,396.342621 
M757.419373,317.796509 
	C759.083191,317.785706 760.754700,317.666779 762.409241,317.785187 
	C766.677002,318.090607 767.002441,315.594421 766.419128,312.358795 
	C765.860840,309.262421 763.548218,309.136810 761.103149,309.139313 
	C747.792114,309.152985 734.480896,309.190948 721.170288,309.118103 
	C718.069031,309.101105 716.179749,309.690735 716.107605,313.452271 
	C716.027344,317.636169 718.315002,317.924927 721.503296,317.897064 
	C733.149719,317.795166 744.797241,317.820892 757.419373,317.796509 
z"/>
<path fill="#000000" opacity="1.000000" stroke="none" 
	d="
M358.093750,1019.270142 
	C358.204742,1015.876526 358.850708,1012.835266 358.478668,1009.924133 
	C357.728516,1004.054626 362.200470,1002.927124 365.858673,1000.978394 
	C367.603577,1000.048889 368.813477,1001.152344 369.540741,1002.522278 
	C372.894470,1008.840088 378.480652,1012.042542 384.957123,1014.373291 
	C387.221100,1015.187988 390.990814,1016.073853 390.329254,1019.257324 
	C389.704834,1022.261963 386.110718,1021.082031 383.803894,1021.157959 
	C376.656036,1021.393005 369.498810,1021.334106 362.345673,1021.424805 
	C360.672607,1021.445984 358.935822,1021.765503 358.093750,1019.270142 
z"/>
<path fill="#000000" opacity="1.000000" stroke="none" 
	d="
M170.197418,984.298157 
	C168.054932,985.579163 166.293472,986.939148 164.300339,987.594116 
	C159.368698,989.214539 155.696747,987.053528 154.794357,981.955872 
	C154.152313,978.329102 152.060364,973.769226 155.708130,971.281738 
	C159.575790,968.644348 164.755432,969.078247 169.163605,970.585449 
	C174.767120,972.501404 175.240891,979.155884 170.197418,984.298157 
z"/>
<path fill="#000000" opacity="1.000000" stroke="none" 
	d="
M196.925446,1021.269836 
	C194.131058,1021.237671 191.803802,1021.316589 189.495895,1021.140930 
	C185.123367,1020.808228 184.322159,1019.294373 186.904495,1015.951599 
	C188.615143,1013.737366 190.622589,1011.708191 192.719696,1009.846985 
	C195.965179,1006.966614 198.886673,1009.695923 201.071533,1011.353699 
	C203.385513,1013.109497 206.231110,1015.809937 204.591873,1019.360596 
	C203.202759,1022.369568 199.883148,1020.847656 196.925446,1021.269836 
z"/>
<path fill="#000000" opacity="1.000000" stroke="none" 
	d="
M266.756226,977.221436 
	C264.279510,975.837830 262.205780,974.517761 261.963531,971.461609 
	C264.973419,969.405334 268.139618,969.612244 271.254150,970.928650 
	C272.814453,971.588135 272.382141,973.122314 271.935120,974.400085 
	C271.132324,976.694824 269.725128,978.054138 266.756226,977.221436 
z"/>
<path fill="#000000" opacity="1.000000" stroke="none" 
	d="
M369.977264,986.976074 
	C368.690308,988.413879 367.464783,990.567993 365.887726,988.788879 
	C364.124237,986.799622 364.695770,984.079285 366.083313,981.853943 
	C367.027802,980.339294 368.536285,980.256226 369.985474,981.193176 
	C372.623322,982.898743 371.424469,984.805847 369.977264,986.976074 
z"/>
<path fill="#000000" opacity="1.000000" stroke="none" 
	d="
M700.064331,420.753906 
	C697.397278,416.904144 696.511047,412.920013 696.351013,408.665680 
	C696.000305,399.341034 696.085571,390.030518 696.575745,380.709229 
	C697.122803,370.306519 704.951050,361.937012 715.338623,361.665131 
	C731.484192,361.242584 747.641418,360.996521 763.791382,361.088074 
	C776.947144,361.162628 785.277893,369.871704 785.319458,382.876221 
	C785.346069,391.204834 785.370972,399.534149 785.300659,407.862305 
	C785.198792,419.933319 777.263062,428.638885 765.228455,428.915741 
	C748.746582,429.294891 732.248108,429.163544 715.760193,428.966461 
	C709.484131,428.891479 704.163208,426.195465 700.064331,420.753906 
M759.302734,410.916870 
	C767.058960,410.850220 767.618225,410.301666 767.612305,402.741180 
	C767.607727,396.913269 767.504578,391.083496 767.622559,385.258118 
	C767.706604,381.109375 766.106628,379.183167 761.736450,379.229431 
	C747.748901,379.377350 733.758484,379.372833 719.770325,379.268921 
	C715.634583,379.238190 714.112610,381.090759 714.184143,385.026581 
	C714.305115,391.686005 714.480591,398.360046 714.171753,405.006500 
	C713.950256,409.774628 716.004028,411.029022 720.378113,410.968872 
	C733.032410,410.794800 745.690674,410.910706 759.302734,410.916870 
z"/>
<path fill="#000000" opacity="1.000000" stroke="none" 
	d="
M610.904785,474.168182 
	C624.213379,494.236115 630.516235,516.208923 629.922363,539.689026 
	C628.581360,592.708862 591.821350,637.157776 540.286804,649.213440 
	C475.644928,664.335327 411.470215,623.865540 399.342773,558.565918 
	C390.571808,511.339050 406.693878,472.067810 445.624939,443.973053 
	C499.792511,404.882965 571.895935,418.514526 610.904785,474.168182 
M479.982300,628.472961 
	C510.401794,639.057983 539.354553,635.932129 566.553528,618.701721 
	C609.580627,591.444092 624.377380,535.849182 600.504883,491.953583 
	C573.110352,441.581757 509.452881,424.354828 460.956299,455.112030 
	C427.854065,476.105865 411.880768,507.349640 415.758301,546.316833 
	C419.711060,586.039856 441.936676,613.418762 479.982300,628.472961 
z"/>
<path fill="#000000" opacity="1.000000" stroke="none" 
	d="
M469.578583,470.511536 
	C476.833252,465.895142 484.397675,462.886047 492.305420,460.750702 
	C498.539642,459.067261 503.636963,461.698914 504.964752,467.035797 
	C506.159576,471.838318 503.117523,475.981079 497.078613,477.742218 
	C475.400665,484.064178 460.206299,497.013489 454.096466,519.437439 
	C452.548889,525.117310 447.776459,527.906982 442.773254,526.584167 
	C437.556732,525.205078 435.300446,520.735474 437.021118,514.165344 
	C440.889587,499.394287 448.764252,487.066315 460.442505,477.232086 
	C463.235901,474.879791 466.320770,472.873657 469.578583,470.511536 
z"/>
</svg>