<?xml version="1.0" standalone="no"?>
<!DOCTYPE svg PUBLIC "-//W3C//DTD SVG 20010904//EN"
 "http://www.w3.org/TR/2001/REC-SVG-20010904/DTD/svg10.dtd">
<svg version="1.0" xmlns="http://www.w3.org/2000/svg"
 width="1024.000000pt" height="1024.000000pt" viewBox="0 0 1024.000000 1024.000000"
 preserveAspectRatio="xMidYMid meet">

<g transform="translate(0.000000,1024.000000) scale(0.100000,-0.100000)"
fill="#000000" stroke="none">
<path d="M4770 7766 c-792 -11 -827 -12 -860 -31 -29 -17 -47 -44 -105 -160
-38 -78 -104 -216 -145 -308 -41 -92 -82 -176 -90 -187 -15 -20 -30 -21 -730
-30 -439 -7 -734 -15 -765 -21 -153 -34 -318 -165 -386 -307 -62 -129 -60 -35
-57 -2097 3 -1803 4 -1882 22 -1935 33 -98 67 -154 140 -226 93 -93 202 -148
326 -165 66 -9 433 -7 1680 9 877 12 2189 29 2915 37 771 10 1343 20 1375 26
106 20 175 41 231 70 81 44 171 138 219 229 76 147 71 -11 68 2112 l-3 1903
-23 64 c-59 162 -177 282 -335 338 -57 21 -97 27 -189 31 l-118 4 0 65 c0 100
-48 171 -135 200 -19 7 -136 8 -320 4 -280 -6 -291 -7 -327 -29 -57 -35 -78
-78 -86 -174 l-7 -83 -188 0 -188 0 -36 65 c-19 36 -74 151 -123 255 -132 287
-150 321 -181 339 -32 19 -267 19 -1579 2z m1634 -463 c81 -175 158 -329 171
-342 l23 -24 424 4 c232 2 585 4 783 4 l360 0 56 -28 c93 -45 194 -172 218
-272 2 -11 5 -213 5 -450 l1 -430 -225 -7 c-220 -6 -673 -14 -1337 -24 l-332
-4 -57 77 c-57 78 -314 343 -333 343 -6 0 -38 20 -73 44 -173 120 -359 202
-575 253 -111 26 -131 28 -353 28 -206 0 -249 -3 -350 -23 -63 -13 -118 -26
-123 -29 -5 -3 -64 -24 -131 -47 -293 -100 -623 -348 -793 -597 l-50 -74 -184
-8 c-101 -4 -373 -9 -604 -12 -231 -2 -569 -7 -751 -11 -182 -4 -343 -4 -357
0 l-27 6 0 407 c0 384 1 410 21 477 49 164 122 244 270 295 51 17 108 19 799
26 622 6 750 10 773 22 29 15 44 42 135 249 45 101 139 301 180 382 l27 53
470 6 c259 3 691 9 960 13 270 3 567 7 661 8 l170 2 148 -317z m1371 -133 l0
-55 -273 -3 -273 -2 3 52 c3 46 6 53 28 59 14 4 135 6 270 6 l245 -2 0 -55z
m-2403 -870 c373 -64 672 -225 901 -487 168 -192 287 -428 350 -695 19 -80 22
-122 21 -303 0 -183 -2 -221 -22 -300 -12 -49 -26 -99 -31 -110 -5 -11 -20
-51 -32 -90 -66 -208 -191 -407 -365 -580 -145 -144 -330 -264 -550 -358 -130
-55 -398 -101 -569 -98 -269 4 -575 99 -790 244 -165 112 -247 185 -349 312
-128 158 -188 266 -242 434 -19 58 -39 115 -45 126 -42 87 -62 439 -34 605 31
186 141 483 226 607 261 383 636 623 1099 703 92 15 314 11 432 -10z m3066
-714 c15 -9 17 -1981 3 -1990 -10 -7 -2172 -39 -2178 -33 -2 2 34 43 79 91
266 282 409 581 459 961 15 115 7 390 -16 515 -19 105 -94 345 -124 396 -15
25 -17 35 -8 41 7 4 188 9 402 11 215 1 541 6 725 11 383 9 641 8 658 -3z
m-4835 -66 c-1 -8 -22 -65 -47 -126 -90 -219 -121 -400 -113 -669 8 -266 51
-454 152 -655 113 -225 155 -286 290 -426 52 -55 95 -102 95 -106 0 -5 -37 -8
-82 -8 -46 0 -535 -7 -1087 -15 -552 -8 -1008 -12 -1013 -9 -11 7 -10 1975 1
1993 7 11 169 15 887 26 484 7 888 12 899 11 12 -1 19 -7 18 -16z m4847 -2362
c0 -269 -6 -309 -57 -412 -47 -93 -168 -186 -270 -206 -27 -5 -1195 -25 -2663
-44 -1438 -19 -2768 -37 -2955 -41 -365 -6 -399 -3 -498 46 -57 29 -124 94
-153 151 -53 104 -64 178 -64 432 0 175 3 236 13 244 8 6 440 16 1206 26
l1194 16 131 -65 c152 -75 304 -127 466 -158 97 -18 149 -22 330 -21 139 0
231 4 260 13 25 6 77 19 115 27 120 26 234 70 390 150 l150 78 1190 16 c706 9
1195 12 1203 7 9 -7 12 -71 12 -259z"/>
<path d="M7195 6649 c-49 -14 -103 -66 -131 -126 -24 -54 -25 -61 -21 -222 2
-91 6 -173 8 -181 20 -62 64 -111 121 -135 41 -16 270 -19 524 -6 122 6 134 8
172 35 73 50 82 83 82 304 0 203 -5 229 -48 276 -59 63 -78 66 -392 65 -157 0
-298 -5 -315 -10z m583 -161 c8 -8 12 -59 12 -163 0 -133 -2 -154 -18 -168
-15 -14 -53 -16 -276 -17 -185 -1 -261 2 -272 11 -11 9 -14 43 -14 158 0 80 5
153 10 161 11 18 109 26 366 28 129 2 183 -1 192 -10z"/>
<path d="M4980 5984 c-62 -8 -184 -36 -215 -49 -16 -8 -64 -27 -105 -43 -95
-38 -165 -78 -265 -157 -243 -190 -388 -419 -452 -715 -27 -126 -24 -372 6
-500 58 -250 211 -492 413 -654 111 -90 288 -177 445 -218 111 -30 129 -31
309 -32 129 -1 199 3 215 11 13 6 57 19 98 28 217 47 458 197 611 381 219 260
320 589 281 910 -25 205 -72 336 -177 496 -95 145 -116 171 -208 247 -183 152
-322 223 -536 272 -83 19 -336 33 -420 23z m323 -169 c118 -21 238 -62 324
-112 43 -25 90 -52 105 -60 15 -8 60 -45 101 -83 124 -115 204 -232 252 -367
15 -43 33 -91 41 -108 35 -82 51 -255 35 -383 -19 -158 -100 -360 -193 -487
-24 -33 -87 -102 -139 -152 -138 -136 -313 -228 -507 -268 -132 -28 -292 -30
-403 -7 -368 76 -682 353 -780 687 -11 39 -25 79 -29 90 -33 73 -37 332 -7
426 8 24 25 76 37 114 20 63 59 146 122 260 28 50 155 184 228 240 139 106
235 150 425 195 138 33 263 38 388 15z"/>
<path d="M4850 5567 c-248 -90 -437 -281 -501 -505 -10 -37 -19 -75 -19 -85 0
-28 45 -67 77 -67 46 0 70 25 94 97 37 114 68 164 153 248 64 64 101 91 175
128 51 26 104 47 118 47 38 0 73 42 73 88 0 23 -6 45 -15 52 -27 23 -87 22
-155 -3z"/>
</g>
</svg>
