<?xml version="1.0" standalone="no"?>
<!DOCTYPE svg PUBLIC "-//W3C//DTD SVG 20010904//EN"
 "http://www.w3.org/TR/2001/REC-SVG-20010904/DTD/svg10.dtd">
<svg version="1.0" xmlns="http://www.w3.org/2000/svg"
 width="1024.000000pt" height="1024.000000pt" viewBox="0 0 1024.000000 1024.000000"
 preserveAspectRatio="xMidYMid meet">

<g transform="translate(0.000000,1024.000000) scale(0.100000,-0.100000)"
fill="#000000" stroke="none">
<path d="M4875 8013 c-33 -2 -117 -10 -186 -18 -754 -89 -1440 -458 -1915
-1030 -365 -439 -576 -919 -660 -1500 -25 -169 -25 -581 -1 -754 32 -226 89
-459 163 -660 74 -202 259 -548 336 -628 79 -82 214 -61 262 40 30 64 22 92
-65 237 -228 379 -351 750 -390 1180 -14 153 -6 446 16 590 86 568 356 1089
776 1495 388 375 890 617 1459 701 169 26 587 26 770 1 472 -65 928 -259 1300
-553 120 -96 362 -342 446 -454 240 -321 401 -665 484 -1034 14 -63 35 -93 81
-117 82 -41 164 -13 207 71 28 54 26 91 -17 261 -89 348 -270 717 -503 1024
-345 455 -825 800 -1382 992 -338 116 -792 176 -1181 156z"/>
<path d="M5000 7452 c-89 -40 -100 -72 -100 -277 0 -186 8 -218 63 -257 46
-33 126 -36 172 -8 64 40 70 62 70 266 l0 181 -29 37 c-42 55 -123 82 -176 58z"/>
<path d="M5805 6982 c-22 -11 -51 -34 -65 -53 -13 -19 -112 -140 -220 -269
-108 -129 -253 -302 -321 -385 -240 -289 -605 -722 -804 -955 -249 -292 -245
-287 -245 -321 0 -86 13 -89 364 -89 l294 0 -143 -312 c-78 -172 -214 -466
-300 -653 -86 -187 -160 -357 -162 -377 -5 -33 -1 -42 26 -67 17 -16 43 -31
59 -33 66 -10 85 5 229 180 216 262 489 590 558 672 35 41 177 210 315 375
139 165 321 381 404 479 83 99 156 189 163 200 25 43 15 83 -30 128 -1 1 -124
5 -273 8 l-271 5 234 505 c128 278 265 573 303 655 86 184 89 215 33 276 -47
49 -90 58 -148 31z"/>
<path d="M3385 6806 c-73 -32 -110 -120 -80 -192 19 -47 257 -291 302 -310 46
-20 90 -17 129 7 66 41 93 127 59 192 -20 38 -254 285 -287 303 -33 17 -83 18
-123 0z"/>
<path d="M6925 5459 c-91 -12 -228 -51 -310 -88 -243 -111 -475 -351 -566
-586 -63 -162 -72 -214 -73 -410 -1 -168 1 -187 27 -279 122 -439 486 -762
921 -816 338 -43 662 67 901 304 236 235 355 559 324 885 -24 257 -121 468
-301 657 -163 170 -371 284 -593 324 -88 15 -250 20 -330 9z m241 -320 c248
-34 487 -207 597 -431 65 -132 81 -198 81 -348 1 -150 -14 -216 -80 -348 -130
-260 -400 -422 -704 -422 -132 0 -228 22 -350 82 -90 45 -116 64 -195 142
-163 165 -235 333 -235 556 0 333 220 641 525 736 135 42 235 51 361 33z"/>
<path d="M6993 4960 c-60 -36 -63 -51 -63 -340 0 -216 3 -268 16 -295 11 -25
61 -62 212 -162 108 -72 208 -134 220 -138 65 -20 145 33 157 104 11 68 -12
103 -112 167 -48 30 -123 79 -165 107 l-78 52 0 221 c0 212 -1 222 -22 249
-23 30 -74 55 -110 55 -13 0 -37 -9 -55 -20z"/>
<path d="M2692 5273 c-109 -54 -110 -214 -2 -277 32 -19 51 -21 235 -21 183 0
203 2 235 20 79 46 100 159 44 233 -44 56 -70 62 -286 62 -158 0 -199 -3 -226
-17z"/>
</g>
</svg>
