<?xml version="1.0" standalone="no"?>
<!DOCTYPE svg PUBLIC "-//W3C//DTD SVG 20010904//EN"
 "http://www.w3.org/TR/2001/REC-SVG-20010904/DTD/svg10.dtd">
<svg version="1.0" xmlns="http://www.w3.org/2000/svg"
 width="1536.000000pt" height="1024.000000pt" viewBox="0 0 1536.000000 1024.000000"
 preserveAspectRatio="xMidYMid meet">

<g transform="translate(0.000000,1024.000000) scale(0.100000,-0.100000)"
fill="#000000" stroke="none">
<path d="M7305 8543 c-649 -53 -1262 -286 -1790 -681 -689 -514 -1176 -1318
-1320 -2176 -65 -389 -57 -858 20 -1245 73 -362 207 -721 380 -1016 312 -533
704 -934 1211 -1235 451 -269 909 -422 1469 -492 148 -18 628 -15 791 5 383
48 706 142 1050 307 390 187 669 384 975 690 202 202 307 328 434 520 587 890
735 1993 399 2987 -235 697 -635 1236 -1251 1684 -142 102 -299 196 -493 293
-514 256 -1015 369 -1620 364 -118 -1 -233 -3 -255 -5z m690 -443 c530 -62
1042 -266 1473 -589 l126 -95 -160 -154 c-232 -225 -1072 -1034 -1318 -1269
l-211 -203 -113 0 -114 0 7 28 c4 15 20 90 35 167 16 77 49 235 74 350 178
832 226 1061 226 1087 0 42 -34 93 -74 112 -41 20 -115 21 -159 2 -49 -20 -75
-55 -290 -391 -657 -1024 -857 -1332 -1137 -1751 -171 -256 -318 -481 -326
-499 -30 -72 -10 -137 53 -177 38 -23 41 -23 409 -28 l371 -5 -198 -190 c-108
-104 -354 -341 -545 -525 -192 -184 -454 -437 -583 -562 -129 -126 -237 -228
-241 -228 -11 0 -158 195 -233 310 -204 312 -337 614 -427 970 -134 532 -95
1143 108 1681 299 792 835 1364 1597 1707 264 119 657 224 940 252 61 5 128
12 150 14 69 7 466 -3 560 -14z m2010 -1095 c188 -234 358 -531 475 -825 232
-588 271 -1162 119 -1765 -196 -779 -657 -1407 -1357 -1847 -145 -91 -400
-219 -546 -273 -202 -74 -485 -140 -716 -166 -152 -17 -585 -17 -720 0 -230
29 -503 92 -676 156 -346 129 -686 325 -922 532 l-43 38 768 765 c423 421 838
834 924 918 l155 152 63 0 c55 0 61 -2 53 -17 -5 -10 -55 -171 -112 -358 -138
-458 -292 -963 -341 -1113 -36 -111 -39 -127 -28 -164 31 -115 164 -142 250
-51 36 37 203 277 634 908 120 176 248 363 285 415 141 202 837 1212 865 1257
52 82 35 162 -45 204 -31 17 -61 19 -288 19 l-254 0 543 538 c834 823 813 803
824 789 6 -7 46 -57 90 -112z"/>
</g>
</svg>
