<svg version="1.1" id="Layer_1" xmlns="http://www.w3.org/2000/svg" xmlns:xlink="http://www.w3.org/1999/xlink" x="0px" y="0px"
	 width="100%" viewBox="0 0 1024 1024" enable-background="new 0 0 1024 1024" xml:space="preserve">
<path fill="#000000" opacity="1.000000" stroke="none" 
	d="
M385.390442,772.684753 
	C321.009094,735.944458 276.528900,683.192444 253.456207,612.888367 
	C245.738907,589.373169 241.863541,565.137695 240.542480,540.396118 
	C238.710144,506.079285 243.181564,472.694580 253.683563,440.038055 
	C265.550415,403.137329 284.923004,370.527252 310.704285,341.786377 
	C348.843903,299.268463 395.306763,270.007385 450.874146,255.864044 
	C469.272766,251.181122 487.980621,248.525589 507.018402,247.473740 
	C523.070007,246.586899 538.944946,247.641937 554.875000,248.784348 
	C556.198730,248.879272 557.509949,249.161301 558.824158,249.374130 
	C563.025452,250.054565 565.381470,252.568268 565.639404,256.763092 
	C565.897400,260.960052 563.216125,263.125153 559.614197,264.297791 
	C553.604431,266.254303 547.403442,267.707611 541.546326,270.035461 
	C489.759766,290.617706 451.545715,326.035156 426.641266,375.828796 
	C408.821930,411.456604 401.563995,449.528198 405.659302,488.789185 
	C414.731140,575.759338 460.254517,638.014343 541.459473,669.566162 
	C617.408508,699.075806 689.039001,685.348938 753.068054,634.452393 
	C760.896729,628.229431 768.416626,621.653870 774.973511,614.035217 
	C778.696533,609.709290 782.685913,608.759155 786.379883,610.953552 
	C790.008423,613.109070 791.139221,617.270142 789.164124,622.439880 
	C771.284119,669.240906 744.157349,709.564941 705.514465,741.838806 
	C671.710815,770.071045 633.486084,789.662476 590.770325,800.301147 
	C562.461304,807.351685 533.732422,809.429382 504.561218,807.558289 
	C462.279419,804.846436 422.838745,792.953491 385.390442,772.684753 
M388.799286,466.550232 
	C392.771820,375.222748 436.471008,308.638733 514.891846,263.793701 
	C416.503845,260.991821 289.146454,334.227875 260.979431,475.307617 
	C232.322144,618.842773 323.087769,753.870789 465.147888,786.175232 
	C595.722412,815.867859 713.822937,742.329102 758.017273,650.975159 
	C754.194946,653.788940 750.793518,656.457581 747.231140,658.890503 
	C697.265015,693.014709 642.179260,705.797546 582.453613,696.993469 
	C529.042603,689.120239 484.171692,664.306580 447.941833,624.527100 
	C407.543060,580.170288 388.892334,527.257446 388.799286,466.550232 
z"/>
<path fill="#000000" opacity="1.000000" stroke="none" 
	d="
M563.122070,361.965668 
	C569.422852,359.645966 575.366699,357.487518 581.311707,355.332397 
	C586.145996,353.579987 589.457458,350.251160 591.357727,345.517059 
	C593.838318,339.337219 596.355347,333.169464 598.682251,326.931396 
	C600.070496,323.209534 601.952271,320.454010 606.434265,320.429840 
	C611.072266,320.404846 613.182190,323.145508 614.696960,327.051849 
	C617.162842,333.411102 619.889709,339.668793 622.475708,345.981995 
	C624.156250,350.084839 627.148987,352.838867 631.215637,354.403351 
	C636.963684,356.614746 642.751770,358.722687 648.531433,360.851227 
	C652.589783,362.345886 655.572632,364.609406 655.316650,369.518005 
	C655.079041,374.072937 652.241943,376.161957 648.321350,377.552704 
	C642.051086,379.776917 635.641541,381.623047 629.648315,384.617859 
	C626.052307,386.414795 623.332153,388.924255 621.828003,392.652252 
	C619.524658,398.360962 617.199463,404.063232 615.041382,409.827332 
	C613.520630,413.889191 611.175171,417.010925 606.542480,417.085297 
	C601.937195,417.159271 600.038025,413.829132 598.635742,409.986450 
	C596.638550,404.513672 594.384277,399.135071 592.357971,393.672363 
	C590.355103,388.273041 586.563293,384.928772 581.173889,383.091217 
	C575.659790,381.211121 570.154114,379.275208 564.760925,377.078552 
	C557.115601,373.964569 556.291016,367.266510 563.122070,361.965668 
M603.338684,381.171082 
	C604.470642,382.515625 604.768372,384.587769 607.358582,385.360840 
	C611.110779,378.929749 616.431580,373.688019 623.533325,369.009583 
	C616.079407,364.561432 611.475769,358.602448 606.598022,351.108398 
	C602.487671,359.431824 596.791138,364.917328 588.987122,369.338470 
	C595.091370,372.589722 599.614380,375.905243 603.338684,381.171082 
z"/>
<path fill="#000000" opacity="1.000000" stroke="none" 
	d="
M761.789673,374.226257 
	C764.597778,384.693512 771.643738,389.984985 781.354370,392.555328 
	C785.044861,393.532166 788.623413,394.962830 792.202881,396.318878 
	C795.424133,397.539215 797.404480,399.732941 797.450256,403.430328 
	C797.497070,407.207031 795.923218,409.822754 792.415833,411.231812 
	C786.239807,413.712982 780.056091,416.174957 773.875671,418.645020 
	C768.794922,420.675598 765.332581,424.211945 763.439758,429.400269 
	C761.557434,434.560028 759.374146,439.609589 757.466309,444.760620 
	C755.936584,448.890869 753.452637,451.741333 748.744751,451.565033 
	C744.205688,451.395020 742.115417,448.281250 740.840027,444.378723 
	C733.277344,421.237488 733.275208,421.239502 710.303162,413.334808 
	C708.887085,412.847534 707.464050,412.367035 706.086853,411.782928 
	C702.675781,410.336334 700.785034,407.724457 700.880737,404.017120 
	C700.975891,400.330536 702.890198,397.802032 706.431396,396.517395 
	C712.377014,394.360474 718.284546,392.098328 724.235718,389.957123 
	C728.909485,388.275543 732.195496,385.169159 734.048950,380.601898 
	C736.489563,374.588013 738.910461,368.563721 741.192139,362.488464 
	C742.661011,358.577209 744.863831,355.766022 749.421875,355.739685 
	C754.091125,355.712708 756.100342,358.751312 757.458923,362.642761 
	C758.775452,366.413666 760.231201,370.135956 761.789673,374.226257 
M748.101746,419.791870 
	C750.010986,422.232422 750.548950,419.789520 751.163269,418.786133 
	C752.996643,415.791962 754.845947,412.812378 757.537964,410.519348 
	C760.128784,408.312561 762.861206,406.272064 766.309204,403.542816 
	C758.571350,399.871094 753.698242,394.147369 749.595581,386.311279 
	C744.908752,394.669830 739.463867,400.286530 731.171326,404.081207 
	C739.112671,407.620209 744.490051,412.370422 748.101746,419.791870 
z"/>
<path fill="#000000" opacity="1.000000" stroke="none" 
	d="
M735.271729,270.692200 
	C741.524414,273.104553 747.392578,275.465393 753.318726,277.670685 
	C756.980591,279.033447 759.275085,281.368225 759.221863,285.395294 
	C759.168640,289.420837 756.728088,291.733612 753.143494,293.057434 
	C746.744263,295.420685 740.348450,297.793091 733.950256,300.159271 
	C729.951477,301.638062 727.263855,304.454102 725.737976,308.374512 
	C723.444763,314.266327 721.116333,320.148010 719.003784,326.105225 
	C717.592224,330.085449 715.245117,332.935059 710.867615,333.056152 
	C706.355469,333.180939 704.045105,330.163177 702.730042,326.224335 
	C701.094177,321.324158 698.750977,316.690613 696.987976,311.874664 
	C694.278748,304.473969 689.416809,300.085938 681.985535,297.961548 
	C677.513123,296.683044 673.195068,294.870422 668.789001,293.352020 
	C664.967529,292.035126 662.405518,289.628540 662.358826,285.410797 
	C662.312744,281.247986 664.584961,278.678589 668.484802,277.266296 
	C674.428284,275.113983 680.313416,272.798798 686.206238,270.508789 
	C690.802612,268.722595 693.924561,265.487030 695.734253,260.875977 
	C698.043518,254.991989 700.613037,249.208023 702.833252,243.291946 
	C704.269348,239.465027 706.626709,236.923828 710.792847,236.881821 
	C715.019897,236.839218 717.260132,239.386017 718.595215,243.318222 
	C720.572876,249.143539 723.013794,254.810211 725.187561,260.570831 
	C726.986023,265.337006 729.906860,268.953918 735.271729,270.692200 
M722.331787,288.843628 
	C723.817810,287.610046 725.989807,287.229828 727.212769,284.636353 
	C719.760681,281.176788 715.098877,274.822906 710.779358,267.129791 
	C706.398804,275.100616 701.039978,280.843475 693.470459,284.727112 
	C696.927795,287.814270 700.781921,289.354156 703.286255,292.494415 
	C705.741089,295.572601 708.040466,298.774872 710.685852,302.291931 
	C714.433594,297.652252 716.581726,292.103821 722.331787,288.843628 
z"/>
</svg>