<svg version="1.1" id="Layer_1" xmlns="http://www.w3.org/2000/svg" xmlns:xlink="http://www.w3.org/1999/xlink" x="0px" y="0px"
	 width="100%" viewBox="0 0 1024 1024" enable-background="new 0 0 1024 1024" xml:space="preserve">
<path fill="#000000" opacity="1.000000" stroke="none" 
	d="
M586.000122,353.658264 
	C601.333435,353.651855 616.168945,353.502350 630.998718,353.728546 
	C635.401001,353.795685 636.684875,352.334320 636.756042,348.006683 
	C637.017334,332.110016 646.762634,322.676910 662.633667,322.632935 
	C681.633423,322.580261 700.633728,322.585876 719.633423,322.650970 
	C735.219299,322.704346 746.167358,332.767426 745.992737,348.416382 
	C745.903381,356.421783 748.311157,360.646606 755.283142,364.703613 
	C775.224487,376.307526 785.669067,395.565704 793.124023,416.455444 
	C799.013733,432.959167 800.775635,450.502258 804.213806,467.608887 
	C812.240234,507.543762 819.938782,547.544678 827.715454,587.529480 
	C831.493164,606.953064 836.150452,626.272705 838.648926,645.863892 
	C843.781677,686.112488 818.114990,724.247437 776.484436,729.382446 
	C752.720520,732.313660 732.694946,725.513550 716.778259,706.740906 
	C694.903076,680.940674 672.370789,655.697937 650.203125,630.144226 
	C648.427795,628.097656 647.081665,627.921509 644.716858,629.123474 
	C607.909607,647.830200 565.759338,628.312317 553.719421,595.187134 
	C552.712891,592.418091 551.126221,591.338440 548.167236,591.350891 
	C528.334290,591.434570 508.500549,591.432739 488.667847,591.319336 
	C485.670349,591.302246 484.322998,592.509583 483.155640,595.167847 
	C470.985291,622.881653 446.465729,637.978455 416.315491,636.214783 
	C407.751678,635.713806 399.623169,633.058655 392.007568,629.159180 
	C389.225800,627.734802 387.625061,628.132385 385.658203,630.417236 
	C363.378540,656.298645 340.843597,681.962280 318.733185,707.986755 
	C302.068512,727.601562 273.785431,735.228455 247.210953,726.566711 
	C217.641724,716.928833 197.326782,689.033569 196.584900,657.876770 
	C196.246033,643.644958 200.153214,630.203430 202.951721,616.559448 
	C214.745193,559.060730 227.036545,501.662781 238.562912,444.111267 
	C242.769669,423.106781 249.188690,403.257446 261.188324,385.382141 
	C267.795807,375.539307 275.853973,367.215454 286.298981,361.511871 
	C289.741913,359.631775 291.018951,357.296265 290.718475,353.526184 
	C290.494781,350.719086 290.520233,347.827271 290.928436,345.045624 
	C293.011627,330.849243 302.491425,322.682831 316.959686,322.635651 
	C336.459412,322.572052 355.959747,322.582489 375.459442,322.661438 
	C387.897034,322.711792 397.692810,331.483185 399.344391,343.830627 
	C400.660797,353.672302 400.660797,353.671082 410.498993,353.670380 
	C468.832672,353.666199 527.166382,353.662628 586.000122,353.658264 
M523.500000,581.699463 
	C530.831482,581.700378 538.163635,581.647217 545.494202,581.729126 
	C548.372314,581.761292 549.576355,581.162292 549.204834,577.719238 
	C544.409180,533.279114 584.063599,497.093292 627.822449,506.252197 
	C652.840759,511.488617 670.091492,526.382019 677.537354,551.027283 
	C684.992859,575.704407 679.219360,597.675415 661.468140,616.457031 
	C659.799622,618.222473 657.440735,619.438782 656.567566,622.175415 
	C657.360596,623.200500 658.113220,624.282715 658.974426,625.270386 
	C676.821655,645.737854 694.704529,666.174255 712.502930,686.684143 
	C714.317444,688.775024 715.987183,689.602783 718.918579,689.143005 
	C723.685120,688.395386 728.483398,687.838806 733.158630,686.625977 
	C769.369995,677.232971 799.858398,659.343140 821.029968,627.537109 
	C823.288025,624.144836 824.307739,620.819153 823.492126,616.759460 
	C818.578186,592.301086 813.732483,567.828796 808.925415,543.349121 
	C802.419739,510.219574 795.743469,477.121063 789.584534,443.926819 
	C786.169373,425.520447 780.690308,408.018402 769.840210,392.625336 
	C757.863525,375.634125 742.291748,363.496857 720.667358,363.456177 
	C586.357483,363.203430 452.046814,363.313385 317.736511,363.391815 
	C300.034546,363.402161 285.233215,370.249634 274.275177,384.252228 
	C263.788727,397.652161 255.976318,412.734558 252.392090,429.311523 
	C239.389389,489.448792 227.079300,549.735535 214.301743,609.922119 
	C212.607071,617.904602 212.518372,624.609375 218.007263,631.725464 
	C243.009796,664.139832 275.904022,682.488464 315.977478,688.946228 
	C320.051483,689.602783 322.387848,688.533020 324.903076,685.577942 
	C338.074951,670.102783 351.435516,654.788391 364.702942,639.394409 
	C369.678131,633.621765 374.578918,627.784973 379.582092,621.896912 
	C378.679504,620.864014 378.187256,620.209412 377.605286,619.647949 
	C360.784912,603.420471 353.014709,583.872742 356.664520,560.519958 
	C360.926270,533.251770 376.969818,515.591919 403.040924,507.840118 
	C429.212158,500.058563 452.185150,507.008453 470.871521,526.739929 
	C483.650482,540.233521 489.014343,556.659546 487.408264,575.289978 
	C486.870544,581.527710 487.105743,581.669800 493.504974,581.683777 
	C503.169952,581.704773 512.835022,581.694580 523.500000,581.699463 
M379.438171,533.927795 
	C367.725647,547.192932 363.662628,562.867737 366.621399,579.941406 
	C371.964142,610.771729 400.905609,630.867126 432.154968,625.768188 
	C460.128998,621.203674 481.756989,592.467773 477.454437,563.448853 
	C474.052094,540.501892 460.892487,524.514954 438.781952,517.595398 
	C416.315918,510.564636 396.447784,516.640259 379.438171,533.927795 
M669.734375,559.739197 
	C663.690918,530.369568 636.091980,510.865936 606.324707,515.498718 
	C576.669495,520.114075 557.435730,545.283020 558.610779,571.508728 
	C560.260498,608.331543 591.246948,629.820862 622.105347,625.947083 
	C652.576111,622.121948 675.912476,590.852905 669.734375,559.739197 
M760.515747,719.853149 
	C810.533936,724.493774 838.549255,677.106628 826.878723,637.230896 
	C801.013733,671.568726 765.815369,690.327332 723.806030,699.098816 
	C733.151794,711.800476 745.167664,717.903076 760.515747,719.853149 
M272.360535,719.966736 
	C288.653564,718.916992 302.523438,713.279907 312.711884,698.820374 
	C291.714020,695.014954 272.546753,688.235596 254.821915,677.700745 
	C237.016022,667.117676 221.656754,653.695496 209.115326,636.477722 
	C197.370590,677.958618 227.743729,722.219849 272.360535,719.966736 
M690.500000,332.303680 
	C681.186218,332.307617 671.872009,332.260223 662.558716,332.330383 
	C653.678772,332.397278 648.610229,336.609741 646.829956,345.219543 
	C645.356018,352.347900 646.278992,353.571228 653.439575,353.585632 
	C676.557556,353.632050 699.675964,353.582611 722.793457,353.703461 
	C727.000549,353.725433 731.204346,354.375214 735.374573,354.732208 
	C737.590759,339.334839 730.438843,331.284546 715.942444,332.225555 
	C707.827454,332.752289 699.649536,332.310181 690.500000,332.303680 
M389.691742,347.695923 
	C388.826874,337.342957 383.552277,332.358093 373.245117,332.333466 
	C354.428406,332.288483 335.611450,332.343079 316.794830,332.284943 
	C313.347137,332.274292 310.210419,332.989380 307.380066,334.989807 
	C300.434662,339.898529 300.996429,347.094299 301.125031,354.612518 
	C305.909943,354.280640 310.327362,353.726196 314.746826,353.709167 
	C338.059357,353.619385 361.372864,353.589630 384.684784,353.736664 
	C388.651642,353.761658 390.293365,352.471069 389.691742,347.695923 
z"/>
<path fill="#000000" opacity="1.000000" stroke="none" 
	d="
M497.573242,443.228271 
	C502.041199,450.867432 501.477234,458.700562 499.513458,466.416962 
	C498.752258,469.407990 495.417938,470.128479 492.479767,470.149658 
	C481.845886,470.226166 471.209351,470.323639 460.577667,470.161255 
	C454.946533,470.075256 452.023346,467.020935 451.799835,461.442993 
	C451.646942,457.628082 451.607635,453.790100 451.843872,449.982697 
	C452.148590,445.070831 455.026917,441.887634 459.557617,441.818115 
	C470.687714,441.647308 481.822723,441.723450 492.954620,441.822968 
	C494.381531,441.835693 495.801880,442.577332 497.573242,443.228271 
M463.336395,452.606445 
	C460.868073,457.977173 461.769531,459.740509 467.146515,459.795410 
	C473.766357,459.863037 480.387756,459.779694 487.007599,459.848267 
	C489.720978,459.876404 490.870789,458.735077 490.881073,455.988129 
	C490.891510,453.201508 489.655579,452.121002 486.982147,452.153839 
	C479.372406,452.247314 471.761841,452.269958 463.336395,452.606445 
z"/>
<path fill="#000000" opacity="1.000000" stroke="none" 
	d="
M344.366791,457.892792 
	C338.221771,458.017975 322.975983,444.303680 322.754730,438.646820 
	C322.527435,432.834198 322.635376,427.005432 322.707275,421.185120 
	C322.759491,416.958618 325.012054,414.727478 329.256195,414.711121 
	C337.904999,414.677765 346.554077,414.691040 355.202911,414.718689 
	C359.734985,414.733185 361.937378,417.329315 362.059692,421.590912 
	C362.221893,427.240082 362.105957,432.898560 362.040131,438.552246 
	C362.011597,441.004486 360.940430,443.037994 359.126251,444.681854 
	C354.324554,449.032898 349.524353,453.385590 344.366791,457.892792 
M348.134430,424.945099 
	C344.308258,424.970917 340.479828,425.088654 336.656616,424.994476 
	C333.399475,424.914276 332.119446,426.404510 332.388336,429.550568 
	C332.515594,431.039276 332.489471,432.542297 332.505615,434.039154 
	C332.570343,440.047150 337.308807,442.843292 341.452148,445.069000 
	C344.626251,446.774048 346.397156,442.160126 348.846161,440.444183 
	C349.381989,440.068756 349.830322,439.543243 350.248810,439.029694 
	C353.110443,435.518005 352.382263,427.220917 348.134430,424.945099 
z"/>
<path fill="#000000" opacity="1.000000" stroke="none" 
	d="
M361.369415,501.026184 
	C361.369110,504.840088 361.336578,508.163605 361.376160,511.486328 
	C361.424774,515.567017 359.247894,517.883057 355.383881,517.966064 
	C346.584015,518.155212 337.771606,518.150330 328.974213,517.889954 
	C324.917297,517.769775 322.678345,515.261963 322.692871,511.021454 
	C322.712769,505.205994 322.678528,499.390289 322.716217,493.574982 
	C322.722595,492.592468 322.651184,491.379974 323.162964,490.666016 
	C327.942230,483.998322 334.106873,478.765076 340.827118,474.166443 
	C341.833557,473.477692 343.147430,473.813019 344.129181,474.537659 
	C350.157135,478.986786 355.847260,483.897156 360.399811,489.815918 
	C362.682190,492.783264 361.068268,496.932648 361.369415,501.026184 
M351.669128,504.986847 
	C353.272461,496.375793 349.817963,490.225800 342.188171,485.864716 
	C338.958588,488.724609 334.367706,490.631958 333.196808,495.304657 
	C330.737488,505.119141 332.926331,507.841827 342.893280,507.611237 
	C345.788757,507.544281 349.279907,509.288483 351.669128,504.986847 
z"/>
<path fill="#000000" opacity="1.000000" stroke="none" 
	d="
M311.837036,446.741516 
	C317.243408,446.095734 320.895325,447.989380 323.959137,451.898468 
	C326.616974,455.289490 329.811920,458.262909 332.805023,461.386841 
	C335.881927,464.598267 336.097168,467.751373 332.758026,470.916016 
	C332.154449,471.488037 331.589630,472.101074 331.007751,472.695984 
	C317.903198,486.092712 317.903229,486.092773 299.373474,485.144867 
	C293.970093,484.868469 291.805847,482.815460 291.733521,477.454102 
	C291.625702,469.466339 291.717407,461.476044 291.691498,453.486969 
	C291.676880,448.981812 293.798889,446.686676 298.379944,446.729523 
	C302.707062,446.770020 307.034851,446.740631 311.837036,446.741516 
M301.507538,469.643463 
	C301.930359,471.193085 301.152710,473.005676 302.831360,474.704193 
	C305.999451,474.704193 309.473694,474.849976 312.929108,474.657288 
	C315.608063,474.507904 322.510101,467.813019 322.311951,465.874359 
	C322.120300,463.999268 314.871765,457.354614 312.778595,457.135254 
	C301.609161,455.964630 301.392395,456.159363 301.423584,467.355255 
	C301.424957,467.853821 301.445496,468.352295 301.507538,469.643463 
z"/>
<path fill="#000000" opacity="1.000000" stroke="none" 
	d="
M711.882324,492.751038 
	C720.167480,497.968842 724.727112,507.019867 723.055176,515.300415 
	C721.231689,524.332214 716.021179,530.647644 706.898743,533.081726 
	C698.088074,535.432617 689.081604,532.169312 683.865173,525.046387 
	C678.091064,517.161987 678.357239,506.713531 684.538635,498.600800 
	C690.679504,490.541412 700.543274,488.344788 711.882324,492.751038 
M691.088562,517.074951 
	C695.153076,523.690796 701.613281,525.674316 707.499329,522.113831 
	C712.771667,518.924561 714.503174,511.334290 711.204163,505.873169 
	C707.903320,500.409027 701.201904,498.743469 695.560181,501.984955 
	C690.948486,504.634674 689.326233,509.487366 691.088562,517.074951 
z"/>
<path fill="#000000" opacity="1.000000" stroke="none" 
	d="
M674.563477,455.439911 
	C686.476318,468.713196 680.134460,487.666748 664.825867,492.317108 
	C656.413879,494.872498 649.284058,492.216522 643.503662,486.194366 
	C637.142212,479.566986 636.014160,471.453583 639.156738,463.010590 
	C641.985352,455.411133 647.746704,450.898651 655.831116,449.702209 
	C662.788208,448.672607 669.021057,450.406921 674.563477,455.439911 
M666.453247,461.969452 
	C661.982300,458.636353 657.242676,458.026733 652.647583,461.383789 
	C648.626831,464.321259 646.556946,468.437500 647.852051,473.548370 
	C649.093201,478.446442 652.115234,481.798950 657.277893,482.648224 
	C662.324097,483.478394 667.258118,481.068054 669.343811,476.635712 
	C671.775391,471.468231 671.134338,466.635162 666.453247,461.969452 
z"/>
<path fill="#000000" opacity="1.000000" stroke="none" 
	d="
M721.566650,421.804138 
	C725.279480,431.634644 722.391052,439.715912 715.371338,446.051727 
	C708.484375,452.267761 700.112732,453.317139 691.708191,449.093475 
	C683.337830,444.886993 679.432983,437.655609 679.737671,428.351318 
	C680.054138,418.689789 687.284607,410.656311 697.155640,408.592438 
	C707.431885,406.443848 716.451111,411.223358 721.566650,421.804138 
M698.486877,441.119934 
	C703.838379,442.572449 708.038208,440.660461 711.001770,436.293823 
	C713.761230,432.227844 713.635925,427.738220 711.138245,423.590881 
	C708.569763,419.326050 704.468384,417.776611 699.601257,418.365875 
	C694.877197,418.937836 691.020691,422.698883 690.190308,427.365509 
	C689.117432,433.394836 691.540527,437.713196 698.486877,441.119934 
z"/>
<path fill="#000000" opacity="1.000000" stroke="none" 
	d="
M374.084900,446.703857 
	C378.563904,446.713348 382.557922,446.680603 386.550385,446.743713 
	C390.058899,446.799164 392.256531,448.408783 392.344147,452.140839 
	C392.539246,460.454132 392.860260,468.769623 392.801880,477.081940 
	C392.758331,483.282043 390.762543,485.004425 384.588196,485.142517 
	C383.922974,485.157379 383.257080,485.144806 382.591522,485.144073 
	C364.124847,485.124084 364.173187,485.082031 352.109497,471.207764 
	C349.041473,467.679291 348.882019,464.518433 352.079712,461.115112 
	C354.812286,458.206848 357.664368,455.380859 360.118317,452.248047 
	C363.629150,447.765900 367.986145,445.831696 374.084900,446.703857 
M382.734375,459.078400 
	C382.547882,456.522858 380.661499,456.690948 378.802338,456.368713 
	C370.310974,454.896912 365.768555,460.080688 361.341187,466.319244 
	C363.037933,468.127899 364.577362,469.829132 366.182281,471.466125 
	C368.954712,474.293945 377.498016,476.324677 380.893829,474.458221 
	C384.668091,472.383759 382.209839,468.469849 382.731995,465.419891 
	C383.035095,463.649628 382.780609,461.783875 382.734375,459.078400 
z"/>
<path fill="#000000" opacity="1.000000" stroke="none" 
	d="
M741.248047,449.929565 
	C757.830811,446.889587 770.791687,459.918945 766.718689,476.871979 
	C764.462036,486.264526 755.128662,493.148621 745.766968,493.027710 
	C736.007446,492.901703 727.312439,485.695740 725.075745,475.879852 
	C722.910278,466.376648 727.866821,455.981995 736.685425,451.642731 
	C738.019592,450.986206 739.466064,450.557861 741.248047,449.929565 
M752.223022,461.115784 
	C746.278992,458.315033 741.976929,458.825470 738.066040,462.795380 
	C734.651062,466.261963 733.701904,471.789551 735.767334,476.181732 
	C737.949890,480.823090 742.458740,483.395844 747.593079,482.677338 
	C752.280396,482.021393 755.636536,479.416046 757.055908,474.863831 
	C758.714661,469.543915 757.243408,465.024567 752.223022,461.115784 
z"/>
<path fill="#000000" opacity="1.000000" stroke="none" 
	d="
M556.117554,443.752960 
	C565.131042,446.835846 573.763367,449.819702 582.404541,452.777405 
	C585.657654,453.890869 589.072205,455.184998 588.839600,459.287720 
	C588.603210,463.456635 584.893494,464.221863 581.620483,464.950714 
	C571.091064,467.295532 560.546631,469.573608 550.000671,471.843475 
	C543.799744,473.178101 539.961914,470.241425 539.745239,463.851044 
	C539.598877,459.534607 539.678955,455.207031 539.770325,450.886780 
	C539.952209,442.289581 543.808838,439.618958 551.964355,442.361603 
	C553.224060,442.785217 554.481384,443.216003 556.117554,443.752960 
M556.921570,454.698700 
	C554.582825,454.228821 552.496948,452.460114 549.919800,453.196075 
	C548.637817,460.828766 549.122864,461.344635 556.139954,459.916931 
	C558.841309,459.367310 561.536743,458.788544 565.475769,457.962952 
	C562.097656,456.680878 559.862366,455.832520 556.921570,454.698700 
z"/>
<path fill="#000000" opacity="1.000000" stroke="none" 
	d="
M414.561401,530.007690 
	C439.009674,528.247070 456.418335,539.672729 461.723999,560.577515 
	C467.372772,582.833923 452.691559,606.007080 430.214630,610.312744 
	C406.724518,614.812500 384.842316,599.608337 381.615540,576.545166 
	C378.462952,554.012451 391.469757,535.431152 414.561401,530.007690 
M391.314575,570.452637 
	C391.766052,593.021545 412.749908,607.338928 433.458710,599.207947 
	C447.723511,593.607056 455.600677,578.067200 451.845673,562.934753 
	C448.134216,547.977783 433.842621,537.756897 419.038910,539.472473 
	C402.914032,541.341187 391.540771,553.679932 391.314575,570.452637 
z"/>
<path fill="#000000" opacity="1.000000" stroke="none" 
	d="
M644.827332,597.794556 
	C622.178833,620.743042 585.824036,612.981018 575.697937,583.354675 
	C568.241516,561.539124 580.811523,537.309082 602.878601,530.961121 
	C625.140198,524.557190 648.833130,537.993774 654.209045,560.286743 
	C657.560242,574.183594 654.431274,586.664795 644.827332,597.794556 
M583.432007,570.421265 
	C583.714172,572.227173 583.991211,574.033936 584.279236,575.838928 
	C587.010742,592.960571 604.317505,604.666199 621.217712,600.636414 
	C637.306580,596.800049 646.804138,582.697937 645.382935,567.346619 
	C643.834106,550.616882 630.323486,538.976624 613.904236,539.401184 
	C597.856323,539.816101 585.022095,550.596191 583.432007,570.421265 
z"/>
</svg>