<?xml version="1.0" standalone="no"?>
<!DOCTYPE svg PUBLIC "-//W3C//DTD SVG 20010904//EN"
 "http://www.w3.org/TR/2001/REC-SVG-20010904/DTD/svg10.dtd">
<svg version="1.0" xmlns="http://www.w3.org/2000/svg"
 width="457.000000pt" height="402.000000pt" viewBox="0 0 457.000000 402.000000"
 preserveAspectRatio="xMidYMid meet">
<metadata>
Created by potrace 1.16, written by Peter Selinger 2001-2019
</metadata>
<g transform="translate(0.000000,402.000000) scale(0.100000,-0.100000)"
fill="#000000" stroke="none">
<path d="M1047 2579 c-22 -13 -47 -61 -47 -93 0 -36 45 -84 86 -92 69 -13 124
31 124 99 0 56 -43 97 -102 97 -24 0 -51 -5 -61 -11z"/>
<path d="M1908 2550 c-217 -37 -366 -183 -413 -407 -19 -87 -19 -268 0 -355
32 -155 130 -289 256 -352 93 -47 162 -60 289 -54 144 7 236 45 324 132 107
106 152 221 163 411 14 270 -92 490 -279 578 -99 47 -231 65 -340 47z m245
-187 c99 -44 164 -136 192 -269 37 -173 -2 -355 -100 -462 -19 -21 -60 -51
-92 -68 -52 -26 -68 -29 -148 -29 -106 1 -158 20 -227 84 -147 135 -168 477
-39 647 96 127 260 166 414 97z"/>
<path d="M2999 2537 c-37 -13 -85 -35 -108 -50 -140 -93 -174 -318 -67 -443
49 -58 131 -97 291 -139 175 -46 227 -68 266 -113 29 -33 31 -39 27 -95 -4
-55 -8 -63 -45 -98 -131 -122 -420 -69 -458 84 -7 27 -8 27 -91 27 -98 0 -98
-1 -63 -97 29 -78 113 -162 193 -192 188 -70 420 -38 545 74 94 85 124 252 68
368 -47 96 -116 134 -357 197 -220 58 -270 93 -270 190 0 70 49 126 131 151
54 16 169 13 217 -6 48 -20 108 -84 117 -126 l7 -29 84 0 c46 0 84 3 84 7 0 4
-7 32 -16 62 -44 158 -193 251 -398 251 -68 0 -108 -6 -157 -23z"/>
<path d="M1010 1775 l0 -395 95 0 95 0 0 395 0 395 -95 0 -95 0 0 -395z"/>
</g>
</svg>
