<?xml version="1.0" standalone="no"?>
<!DOCTYPE svg PUBLIC "-//W3C//DTD SVG 20010904//EN"
 "http://www.w3.org/TR/2001/REC-SVG-20010904/DTD/svg10.dtd">
<svg version="1.0" xmlns="http://www.w3.org/2000/svg"
 width="363.000000pt" height="323.000000pt" viewBox="0 0 363.000000 323.000000"
 preserveAspectRatio="xMidYMid meet">

<g transform="translate(0.000000,323.000000) scale(0.100000,-0.100000)"
fill="#000000" stroke="none">
<path d="M1676 2489 c-229 -22 -461 -138 -621 -310 -357 -383 -357 -976 0
-1358 164 -175 400 -291 632 -309 195 -16 356 14 528 97 376 183 590 563 553
981 -11 128 -39 225 -98 345 -148 301 -462 524 -773 550 -39 3 -85 7 -102 9
-16 2 -70 -1 -119 -5z m134 -164 c33 -17 77 -77 109 -150 31 -70 72 -228 62
-238 -14 -14 -200 -22 -306 -14 -54 4 -101 9 -103 11 -2 2 6 42 18 88 29 109
101 258 140 292 37 30 41 31 80 11z m-320 -102 c-16 -38 -38 -106 -50 -153
-12 -47 -24 -86 -25 -88 -2 -2 -26 8 -53 22 -57 29 -132 96 -132 117 0 8 21
29 46 48 47 36 209 121 230 121 8 0 2 -24 -16 -67z m660 24 c91 -45 179 -105
180 -123 0 -19 -82 -93 -134 -119 l-51 -26 -9 33 c-18 65 -64 204 -80 241 -21
49 -12 48 94 -6z m-983 -296 c32 -31 85 -66 138 -92 l86 -41 -5 -37 c-3 -20
-8 -73 -12 -118 l-6 -83 -210 0 -210 0 6 48 c9 59 51 193 78 246 20 39 76 126
82 126 1 0 25 -22 53 -49z m1311 7 c64 -93 112 -217 127 -325 l7 -53 -210 0
-210 0 -6 83 c-4 45 -9 98 -12 118 l-5 37 83 40 c52 25 102 59 133 90 28 27
53 49 57 50 4 1 20 -17 36 -40z m-753 -195 c85 -3 169 -1 214 6 40 6 75 10 77
9 1 -2 6 -47 10 -101 l7 -97 -252 0 -251 0 0 33 c0 17 3 63 7 100 6 64 8 68
27 62 12 -3 84 -9 161 -12z m-351 -430 c4 -49 9 -101 12 -118 5 -28 2 -31 -43
-49 -68 -27 -146 -78 -193 -127 -47 -49 -45 -51 -105 64 -45 84 -81 189 -90
261 l-7 56 210 0 210 0 6 -87z m652 -5 c-4 -51 -9 -94 -11 -96 -2 -2 -55 2
-119 9 -91 10 -139 10 -232 1 -64 -7 -118 -11 -120 -9 -2 1 -6 44 -10 95 l-7
92 253 0 253 0 -7 -92z m579 40 c-15 -109 -63 -233 -127 -326 l-29 -43 -61 56
c-37 35 -89 69 -139 93 -77 36 -80 38 -75 67 3 17 8 69 12 118 l6 87 210 0
210 0 -7 -52z m-681 -288 c32 -5 61 -11 63 -14 6 -6 -37 -166 -60 -221 -36
-86 -84 -154 -122 -172 -34 -16 -36 -16 -63 3 -37 28 -86 103 -112 172 -29 76
-65 211 -58 217 22 22 250 32 352 15z m-491 -132 c10 -40 33 -110 51 -155 20
-49 29 -83 22 -83 -44 0 -276 140 -276 166 0 34 134 144 176 144 6 0 18 -33
27 -72z m783 43 c55 -32 117 -96 111 -114 -10 -32 -233 -167 -275 -167 -6 0
-1 21 13 53 24 53 75 218 75 243 0 21 20 17 76 -15z"/>
</g>
</svg>
