<?xml version="1.0" standalone="no"?>
<!DOCTYPE svg PUBLIC "-//W3C//DTD SVG 20010904//EN"
 "http://www.w3.org/TR/2001/REC-SVG-20010904/DTD/svg10.dtd">
<svg version="1.0" xmlns="http://www.w3.org/2000/svg"
 width="517.000000pt" height="465.000000pt" viewBox="0 0 517.000000 465.000000"
 preserveAspectRatio="xMidYMid meet">

<g transform="translate(0.000000,465.000000) scale(0.100000,-0.100000)"
fill="#000000" stroke="none">
<path d="M2360 3750 c-16 -16 -20 -33 -20 -89 l0 -70 -174 -3 -174 -3 -43 -30
c-23 -16 -53 -50 -66 -74 -21 -41 -23 -56 -23 -208 l0 -163 -70 0 c-57 0 -74
-4 -90 -20 -25 -25 -25 -42 -2 -69 14 -17 30 -21 87 -23 l70 -3 3 -67 3 -68
-69 0 c-39 0 -75 -5 -84 -12 -26 -21 -30 -53 -10 -78 15 -19 28 -22 87 -24
l70 -1 3 -67 3 -68 -66 0 c-57 0 -69 -3 -90 -25 -30 -29 -31 -35 -4 -69 19
-24 27 -26 90 -26 l70 0 -3 -67 -3 -68 -70 -3 c-57 -2 -73 -6 -87 -23 -24 -28
-23 -44 4 -69 17 -16 35 -20 90 -20 l68 0 0 -70 0 -70 -74 0 c-66 0 -77 -3
-90 -22 -21 -30 -20 -44 4 -68 16 -16 33 -20 90 -20 l70 0 0 -163 c0 -149 2
-167 23 -207 13 -26 40 -57 65 -75 l44 -30 173 -3 174 -3 3 -77 c3 -71 5 -77
29 -91 24 -13 29 -13 53 2 24 16 26 23 26 92 l0 75 70 0 70 0 0 -70 c0 -57 4
-74 20 -90 25 -25 41 -25 70 -2 19 16 23 29 24 88 l1 69 68 3 67 3 0 -66 c0
-57 3 -69 25 -90 31 -32 48 -31 74 1 16 21 21 41 21 90 l0 64 65 0 65 0 0 -64
c0 -98 50 -146 100 -96 16 16 20 33 20 90 l0 71 68 -3 67 -3 5 -75 c5 -67 7
-76 31 -89 24 -13 29 -13 53 2 24 16 26 23 26 92 l0 75 163 0 c152 0 167 2
208 23 24 13 58 43 74 66 l30 43 3 174 3 174 73 0 c47 0 77 5 83 13 18 23 21
56 6 76 -12 18 -25 21 -89 21 l-74 0 0 70 0 70 68 0 c74 0 83 4 101 38 10 19
10 28 -4 49 -16 24 -19 25 -86 18 l-69 -7 0 96 0 96 -60 0 -60 0 0 -409 c0
-273 -4 -419 -11 -440 -22 -64 18 -61 -921 -61 -819 0 -854 1 -884 19 -21 13
-33 30 -38 51 -11 60 -7 1694 5 1729 21 60 29 61 439 61 l370 0 0 54 0 55 -42
3 -43 3 -2 70 c-1 58 -5 73 -23 87 -29 24 -45 23 -70 -4 -16 -17 -20 -35 -20
-90 l0 -68 -70 0 -70 0 0 74 c0 66 -3 77 -22 90 -30 21 -44 20 -68 -4z"/>
<path d="M2195 3344 c-39 -20 -74 -53 -91 -86 -21 -40 -21 -1376 0 -1416 19
-36 65 -78 99 -91 39 -15 1355 -15 1394 0 15 5 41 22 56 37 57 54 57 54 57
407 l0 325 -439 0 -440 0 -20 26 c-20 26 -21 37 -21 420 l0 394 -282 0 c-237
0 -288 -3 -313 -16z m485 -449 c0 -386 0 -384 57 -436 53 -49 50 -49 467 -49
l396 0 0 -254 c0 -241 -1 -255 -21 -280 l-20 -26 -659 0 -659 0 -20 26 c-21
26 -21 34 -21 674 0 640 0 648 21 674 l20 26 220 0 219 0 0 -355z"/>
</g>
</svg>
