<?xml version="1.0" standalone="no"?>
<!DOCTYPE svg PUBLIC "-//W3C//DTD SVG 20010904//EN"
 "http://www.w3.org/TR/2001/REC-SVG-20010904/DTD/svg10.dtd">
<svg version="1.0" xmlns="http://www.w3.org/2000/svg"
 width="517.000000pt" height="465.000000pt" viewBox="0 0 517.000000 465.000000"
 preserveAspectRatio="xMidYMid meet">

<g transform="translate(0.000000,465.000000) scale(0.100000,-0.100000)"
fill="#000000" stroke="none">
<path d="M2644 3882 c-23 -15 -34 -52 -34 -111 l0 -61 -160 0 c-176 0 -207 -7
-254 -56 -54 -58 -59 -77 -64 -256 l-5 -168 -68 0 c-75 0 -99 -14 -99 -56 0
-44 32 -64 105 -64 l65 0 0 -65 0 -65 -68 0 c-77 0 -102 -16 -102 -63 0 -39
34 -57 107 -57 l63 0 0 -65 0 -65 -55 0 -55 0 0 50 c0 75 -46 112 -96 76 -15
-11 -20 -30 -24 -88 l-5 -73 -62 -3 -63 -3 0 71 c0 78 -19 110 -63 110 -40 0
-56 -29 -59 -105 l-3 -70 -62 -3 -63 -3 0 60 c0 75 -13 109 -44 117 -59 15
-86 -21 -86 -116 l0 -60 -160 0 c-176 0 -207 -7 -254 -56 -54 -58 -59 -77 -64
-256 l-5 -168 -68 0 c-75 0 -99 -14 -99 -56 0 -44 32 -64 105 -64 l65 0 0 -65
0 -65 -68 0 c-77 0 -102 -16 -102 -63 0 -39 34 -57 107 -57 l63 0 0 -65 0 -65
-68 0 c-76 0 -102 -16 -102 -62 0 -42 28 -58 103 -58 l67 0 1 -42 c0 -24 2
-53 3 -65 3 -22 -1 -23 -66 -23 -75 0 -108 -19 -108 -63 0 -41 29 -57 103 -57
38 0 67 -4 68 -10 0 -5 1 -34 1 -62 l1 -53 -64 -6 c-79 -7 -98 -15 -105 -44
-15 -59 16 -80 109 -76 31 1 57 -1 57 -6 0 -4 2 -80 3 -169 2 -159 2 -161 32
-209 20 -32 45 -56 74 -72 41 -21 56 -23 208 -23 l163 0 0 -60 c0 -70 15 -108
46 -116 59 -15 84 20 84 117 l0 60 63 -3 62 -3 3 -70 c3 -76 19 -105 59 -105
44 0 63 32 63 110 l0 71 63 -3 62 -3 3 -70 c3 -78 19 -105 62 -105 43 0 59 27
62 105 l3 70 60 0 60 0 5 -73 c5 -79 20 -102 65 -102 38 0 54 30 57 105 l3 70
61 3 62 3 4 -77 c3 -60 7 -79 23 -90 49 -36 97 -1 101 74 4 104 -17 92 163 92
88 0 172 5 188 11 30 11 88 62 106 94 7 12 14 89 17 195 l5 175 69 2 c76 3
106 20 106 59 0 43 -36 64 -112 64 l-69 0 3 63 3 62 70 3 c94 4 126 35 95 93
-9 16 -7 19 13 19 40 0 56 28 59 105 l3 70 60 0 60 0 5 -73 c5 -79 20 -102 65
-102 38 0 54 30 57 105 l3 70 61 3 62 3 4 -77 c3 -60 7 -79 23 -90 49 -36 97
-1 101 74 4 104 -17 92 163 92 88 0 172 5 188 11 30 11 88 62 106 94 7 12 14
89 17 195 l5 175 69 2 c76 3 106 20 106 59 0 43 -36 64 -112 64 l-69 0 3 63 3
62 70 3 c76 3 105 19 105 59 0 44 -32 63 -110 63 l-70 0 0 65 0 65 73 0 c80 0
107 15 107 58 0 43 -33 62 -110 62 l-70 0 0 65 0 65 70 0 c78 0 110 19 110 63
0 40 -29 56 -105 59 l-70 3 -3 63 -3 62 69 0 c76 0 112 21 112 64 0 39 -29 55
-105 58 l-70 3 -5 177 -5 176 -31 38 c-63 78 -66 79 -260 82 l-174 3 -1 42
c-2 92 -13 125 -44 133 -60 15 -85 -19 -85 -117 l0 -60 -62 3 -63 3 -3 70 c-3
76 -19 105 -59 105 -44 0 -63 -32 -63 -110 l0 -70 -65 0 -65 0 0 70 c0 75 -19
110 -58 110 -42 0 -57 -25 -62 -102 l-5 -73 -62 -3 -63 -3 0 71 c0 78 -19 110
-63 110 -40 0 -56 -29 -59 -105 l-3 -70 -61 -3 -62 -3 -4 77 c-3 60 -7 79 -23
90 -20 15 -53 18 -71 6z m1431 -317 l25 -24 0 -875 0 -875 -26 -20 c-27 -21
-31 -21 -899 -21 l-872 0 -21 23 -22 23 1 873 0 873 24 24 24 24 871 0 871 0
24 -25z m-1944 -1022 c1 -16 2 -35 3 -43 2 -22 -93 -28 -482 -29 -212 0 -348
-5 -375 -12 -52 -14 -111 -72 -126 -124 -15 -56 -15 -1314 0 -1370 14 -51 73
-110 124 -124 53 -15 1314 -15 1367 -1 45 13 93 51 116 94 15 27 17 72 20 358
l3 326 -23 5 c-13 3 6 4 42 3 l65 -1 3 -70 c2 -48 8 -76 20 -89 9 -11 11 -16
5 -12 -10 6 -13 -65 -13 -338 l0 -345 -26 -20 c-27 -21 -32 -21 -897 -21
l-871 0 -23 22 -23 21 0 874 0 874 25 24 24 25 521 0 520 0 1 -27z m-150 -170
c13 -16 12 -17 -3 -4 -10 7 -18 15 -18 17 0 8 8 3 21 -13z m150 -23 c0 -5 1
-34 1 -62 l1 -53 -64 -6 c-35 -3 -72 -9 -81 -13 -38 -17 -34 -89 5 -102 12 -4
48 -7 80 -5 31 1 57 -1 57 -6 0 -4 2 -80 3 -169 2 -159 2 -161 32 -209 20 -32
45 -56 74 -72 41 -21 56 -23 208 -23 l163 0 0 -60 c0 -58 15 -110 32 -110 4 0
8 -105 8 -233 0 -186 -3 -237 -14 -253 -14 -18 -33 -19 -675 -19 -620 0 -661
1 -678 18 -17 17 -18 58 -21 640 -2 342 0 641 3 664 4 30 13 47 28 55 16 10
117 14 367 18 190 3 373 7 408 8 36 1 62 -2 63 -8z m987 -795 c2 -41 9 -76 17
-85 12 -13 6 -15 -57 -12 -39 2 -76 9 -82 15 -6 7 -11 39 -11 72 l0 60 65 6
65 5 -65 5 -65 6 65 -1 65 -1 3 -70z"/>
<path d="M2485 3475 c-50 -18 -101 -72 -114 -123 -15 -53 -14 -1312 0 -1367
14 -50 73 -110 124 -124 53 -15 1314 -15 1367 -1 45 13 93 51 116 94 16 28 17
88 17 716 l0 685 -24 38 c-13 21 -42 50 -64 65 l-41 27 -670 2 c-560 2 -678 0
-711 -12z m1349 -116 c14 -7 27 -18 31 -27 10 -27 6 -1312 -5 -1332 -6 -11
-25 -22 -43 -25 -17 -3 -316 -5 -664 -3 -591 3 -633 4 -650 21 -17 17 -18 58
-21 640 -2 342 0 641 3 665 11 74 -15 71 697 72 447 0 634 -3 652 -11z"/>
<path d="M3486 3298 c-21 -30 -20 -54 4 -78 17 -17 33 -20 110 -20 l90 0 0
-68 c0 -83 16 -112 64 -112 50 0 57 16 57 132 1 139 1 135 -17 152 -12 13 -41
16 -154 16 -132 0 -140 -1 -154 -22z"/>
</g>
</svg>
