<svg version="1.1" id="Layer_1" xmlns="http://www.w3.org/2000/svg" xmlns:xlink="http://www.w3.org/1999/xlink" x="0px" y="0px"
	 width="100%" viewBox="0 0 1024 1024" enable-background="new 0 0 1024 1024" xml:space="preserve">
<path fill="#000000" opacity="1.000000" stroke="none" 
	d="
M464.232880,232.058075 
	C482.348907,223.920685 501.230133,220.037811 520.285950,216.687393 
	C560.185547,209.672211 600.461365,208.594986 640.766113,209.891235 
	C680.430847,211.166855 719.819336,215.340790 757.781616,227.995407 
	C767.150330,231.118439 775.940552,235.538498 783.252563,242.411469 
	C788.125305,246.991699 790.357910,252.562378 790.339233,259.352081 
	C790.212524,305.346924 790.293396,351.342346 790.127502,397.336945 
	C790.111389,401.809479 791.286194,404.557648 795.325378,406.940491 
	C807.000183,413.827789 811.498840,423.829163 810.829956,437.882996 
	C809.754211,460.483490 810.823425,483.182892 810.854919,505.840698 
	C810.869507,516.334229 810.838745,526.841675 810.304688,537.316040 
	C810.050232,542.308838 811.923523,544.145325 816.592896,544.633484 
	C833.691650,546.421021 850.400879,550.193054 866.877197,555.025818 
	C876.824829,557.943604 886.424744,561.752869 895.317078,567.120117 
	C905.204407,573.087891 910.709106,580.934875 910.619507,593.542053 
	C910.156433,658.698608 910.185059,723.861938 910.640015,789.018677 
	C910.721802,800.740356 905.863525,808.255249 896.803345,814.212280 
	C883.492188,822.964417 868.506470,827.493652 853.238342,831.105530 
	C822.496033,838.378174 791.230530,841.626648 759.694824,842.267517 
	C729.699707,842.877258 699.748169,842.323853 669.928711,838.381104 
	C644.564087,835.027466 619.759521,829.647156 596.235535,819.295166 
	C593.744568,818.198853 591.525513,818.272705 589.021667,819.103699 
	C560.283813,828.641541 530.600098,833.794922 500.626770,837.027527 
	C463.495270,841.032104 426.182800,842.286377 388.855865,841.037231 
	C344.706268,839.559692 300.836639,835.399170 257.884674,824.369202 
	C243.175049,820.591797 228.783371,815.882690 215.582306,808.125549 
	C211.102554,805.493286 206.984009,802.429016 203.546021,798.480225 
	C199.675400,794.034668 197.615784,789.033020 197.626373,783.023376 
	C197.696533,743.194275 197.758911,703.364502 197.560516,663.536255 
	C197.521255,655.654114 200.677765,649.731750 206.290161,644.782410 
	C213.790771,638.167969 222.741302,634.114868 231.997620,630.680298 
	C254.447998,622.349792 277.839447,618.015930 301.441437,614.777222 
	C315.776642,612.810181 330.201569,611.498413 344.582550,609.860535 
	C345.682800,609.735229 346.963043,610.022888 347.800079,608.879761 
	C347.883942,607.278992 346.550842,606.625549 345.632202,605.766785 
	C309.536438,572.025330 287.820312,530.588379 282.106598,481.647156 
	C275.220978,422.668121 291.803314,370.241150 330.425110,325.054321 
	C359.591492,290.930145 396.412445,269.341766 440.343872,260.429657 
	C493.472595,249.651749 543.034180,259.267517 588.382812,288.897797 
	C638.731934,321.795441 667.817383,368.962524 676.816528,427.867554 
	C684.794800,480.090057 673.039246,528.547913 642.687256,572.002563 
	C614.574890,612.250488 577.136902,640.130432 529.315796,652.163574 
	C475.763916,665.638733 424.904633,657.296204 377.407043,629.181030 
	C372.876465,626.499268 368.605560,625.679016 363.117889,626.816284 
	C364.638062,629.365601 367.056610,630.488953 369.154816,631.789917 
	C399.546936,650.633667 432.270905,661.990784 468.258759,664.037354 
	C512.152100,666.533325 552.376526,655.779724 589.438538,632.527283 
	C592.716187,630.470947 595.754395,629.944214 599.305603,631.490479 
	C608.015198,635.283020 616.826416,638.839539 623.738586,645.742859 
	C628.825928,650.823669 631.429382,656.714783 631.408447,664.043884 
	C631.297546,702.872803 631.068970,741.706177 631.572144,780.529053 
	C631.710815,791.223694 627.615601,798.718384 619.703674,804.939941 
	C618.826721,805.629395 617.539734,805.945190 617.254333,807.484619 
	C619.882202,810.055176 622.584229,810.213013 625.561096,807.877686 
	C633.603149,801.568542 637.516235,793.008057 637.576050,783.117371 
	C637.799744,746.122742 638.024109,709.119934 637.456909,672.132263 
	C637.175781,653.796692 628.763611,639.579346 611.628723,631.415710 
	C611.177490,631.200684 610.728638,630.980652 610.280884,630.758362 
	C599.253540,625.282471 598.780518,620.633850 608.073120,612.564270 
	C630.555115,593.041443 649.604919,570.744019 662.513306,543.668091 
	C672.489014,522.743469 678.493469,500.661102 680.759949,477.599701 
	C685.326294,431.136810 675.818298,387.641998 651.352478,347.945465 
	C619.189026,295.759399 572.125610,264.993225 511.925476,254.274307 
	C494.944275,251.250732 477.798187,251.256546 460.653748,253.150574 
	C458.510040,253.387390 456.316772,253.441528 454.166473,253.292343 
	C450.789917,253.058075 448.585632,251.021439 447.754089,247.871384 
	C446.866425,244.508682 447.682281,241.192001 450.998138,239.759232 
	C455.640228,237.753418 459.374939,234.339355 464.232880,232.058075 
M290.633514,751.697021 
	C326.788361,757.996643 363.257751,761.005920 399.913696,761.604736 
	C430.734741,762.108337 461.508453,760.983521 492.206757,757.854736 
	C520.052429,755.016846 547.711975,751.215820 574.717957,743.626099 
	C586.267334,740.380310 597.796021,736.975891 607.805664,729.971680 
	C611.167603,727.619141 613.977905,724.909851 613.943481,720.303528 
	C613.868774,710.305725 613.920227,700.307129 613.861572,690.309143 
	C613.854126,689.037903 614.036743,687.586792 612.656921,686.670105 
	C610.866272,686.195374 609.485291,687.332703 608.006897,687.980103 
	C597.147461,692.735535 585.940430,696.457581 574.447327,699.329285 
	C527.972900,710.941528 480.517426,714.687744 432.877838,715.980835 
	C386.027069,717.252563 339.301514,714.476624 292.971832,707.138306 
	C266.803650,702.993469 240.879395,697.539368 216.886276,685.515442 
	C216.534210,685.339050 215.986115,685.553772 215.172714,685.611084 
	C215.172714,696.358582 215.345657,707.008606 215.092773,717.648560 
	C214.982208,722.300537 216.703857,725.644775 220.195908,728.403381 
	C226.160416,733.115173 233.014572,736.139648 240.030914,738.805298 
	C256.130096,744.921570 272.942200,748.314392 290.633514,751.697021 
M426.499084,823.838257 
	C450.166107,823.838135 473.739044,822.233582 497.263763,819.748474 
	C524.613586,816.859375 551.700928,812.522217 578.091309,804.600281 
	C589.099548,801.295776 600.036926,797.628662 609.225159,790.295105 
	C611.724121,788.300598 613.919678,786.135620 613.894470,782.478271 
	C613.826782,772.647278 613.908752,762.815125 613.952759,752.983521 
	C613.970398,749.042542 612.492126,747.867554 608.708435,749.666077 
	C594.338806,756.496155 579.105103,760.753235 563.666504,764.277344 
	C515.689026,775.229126 466.901947,778.495911 417.884735,778.879700 
	C385.236206,779.135376 352.661682,777.342651 320.202393,773.466492 
	C293.203583,770.242371 266.602570,765.283508 240.612686,757.214905 
	C232.073380,754.563904 223.948547,750.861938 215.189789,746.630371 
	C215.189789,757.941650 215.398712,768.410522 215.099701,778.864868 
	C214.954971,783.925049 216.920502,787.372864 220.732178,790.358948 
	C228.359818,796.334473 237.230820,799.722839 246.244644,802.692322 
	C276.765503,812.746887 308.347137,817.392090 340.176819,820.659729 
	C368.546631,823.572205 397.005005,824.216797 426.499084,823.838257 
M652.377747,397.055115 
	C626.745056,319.834076 551.295532,266.311096 463.580627,273.609711 
	C424.840118,276.833252 390.320251,291.502960 361.152405,317.560547 
	C312.559265,360.972015 291.972229,415.606781 298.679352,480.040558 
	C303.150635,522.994995 322.304047,559.613647 352.853882,589.883118 
	C406.922333,643.455383 490.322784,657.730347 558.572449,623.391602 
	C625.472656,589.731750 659.034119,533.432678 662.530029,459.082916 
	C663.515869,438.115845 659.479126,417.659363 652.377747,397.055115 
M465.980560,697.378540 
	C484.896301,696.062622 503.780670,694.447815 522.555603,691.710876 
	C545.465759,688.371094 568.216980,684.288818 590.136963,676.593872 
	C597.196167,674.115784 604.242920,671.372864 609.995605,666.340820 
	C613.783691,663.027283 613.727295,660.573059 610.041931,657.195923 
	C606.807800,654.232300 602.727783,652.617188 598.992554,650.444275 
	C595.153931,648.211182 591.891235,648.385071 587.897156,650.656616 
	C545.486938,674.775940 499.862244,683.414734 451.661743,677.066345 
	C411.555908,671.784119 375.394348,656.358704 343.473755,631.379517 
	C340.155334,628.782715 336.865753,627.992371 332.867432,628.429077 
	C312.689178,630.633179 292.552734,633.153748 272.694092,637.420349 
	C256.080475,640.989746 239.562637,645.033875 224.455688,653.195374 
	C213.889374,658.903870 213.855469,663.156372 224.246002,669.268250 
	C235.257217,675.745178 247.336380,679.554443 259.624084,682.671692 
	C302.607208,693.575867 346.501129,697.228210 390.634155,698.591125 
	C415.442108,699.357300 440.252838,698.396973 465.980560,697.378540 
M800.154785,672.614685 
	C801.964233,672.339111 803.766235,671.994690 805.584290,671.798645 
	C825.979736,669.599854 846.046143,665.764099 865.594360,659.485107 
	C873.851501,656.832825 881.907532,653.670898 888.736511,648.047974 
	C891.487671,645.782715 892.917053,643.080627 892.842834,639.415161 
	C892.704590,632.590088 892.884460,625.758911 892.776062,618.932678 
	C892.743652,616.895813 893.544312,614.601074 891.647583,612.765625 
	C887.263977,613.484375 883.603210,615.955444 879.578857,617.462646 
	C849.153687,628.856934 817.255005,632.469360 785.232727,635.226379 
	C760.825684,637.327759 736.343933,637.115784 711.879639,636.260376 
	C694.577576,635.655334 677.353638,633.996094 660.196289,631.704529 
	C651.555603,630.550476 642.941589,629.196594 634.058411,627.895386 
	C634.347290,628.705994 634.374207,629.074524 634.570007,629.289001 
	C644.055725,639.678955 649.921631,651.735168 651.412109,665.808167 
	C651.732849,668.836365 653.933777,669.305176 656.375549,669.684448 
	C682.242920,673.701660 708.323364,675.102356 734.440308,675.548950 
	C756.078674,675.918945 777.692871,674.742981 800.154785,672.614685 
M742.840149,241.756851 
	C664.394287,222.048615 585.610474,223.834351 505.864471,236.982162 
	C506.717834,238.162064 506.791534,238.374298 506.892761,238.388351 
	C545.970581,243.812729 581.340454,258.118378 612.474426,282.524506 
	C614.578003,284.173462 616.785828,284.815277 619.399353,284.709473 
	C628.377869,284.346100 637.359375,284.055695 646.340393,283.758789 
	C675.339844,282.800079 704.050415,279.525513 732.265625,272.619751 
	C744.071777,269.730164 755.821838,266.457184 766.241394,259.867401 
	C771.517395,256.530609 771.452820,254.747375 766.126099,251.390259 
	C759.163330,247.002014 751.388794,244.472076 742.840149,241.756851 
M662.457581,598.235291 
	C657.637634,598.457947 652.805786,599.003723 648.000488,598.827393 
	C640.849365,598.564941 638.392334,603.897827 634.823181,608.131531 
	C636.506287,610.026123 638.311951,610.027893 639.870117,610.337341 
	C662.909363,614.914062 686.193604,617.831482 709.644836,618.564636 
	C738.257080,619.459045 766.886719,619.645142 795.458557,616.793823 
	C819.344116,614.410156 842.984375,610.857239 865.922424,603.598145 
	C873.849365,601.089600 881.709351,598.222778 888.490723,593.167847 
	C893.091187,589.738525 893.094299,587.209167 888.368225,583.872375 
	C885.932739,582.152832 883.305969,580.640869 880.609924,579.363647 
	C857.412292,568.373169 832.419067,564.582458 807.322449,561.237793 
	C805.635376,561.012939 804.021423,561.142151 802.641357,562.382080 
	C791.703796,572.208984 778.307373,577.290833 764.635864,581.647461 
	C731.727539,592.134094 697.676941,595.833984 662.457581,598.235291 
M840.308350,766.698547 
	C841.937195,766.361694 843.572266,766.051880 845.193970,765.683716 
	C858.368835,762.692749 871.335022,759.130005 883.382446,752.753418 
	C890.011292,749.244751 893.954529,744.625427 892.911316,736.482483 
	C892.281311,731.564697 892.824402,726.500366 892.764465,721.502869 
	C892.749573,720.257812 893.198730,718.773743 891.312500,717.757263 
	C882.105652,722.748901 872.121399,726.406372 861.844360,729.250366 
	C826.124817,739.134888 789.495300,742.100769 752.667358,743.110535 
	C720.481506,743.993103 688.445251,741.728882 656.614502,736.874268 
	C653.158447,736.347229 652.089233,737.271545 652.140442,740.599915 
	C652.258362,748.262085 652.385376,755.934204 652.111267,763.588074 
	C651.972229,767.471558 653.610962,768.863831 657.143433,769.406250 
	C673.103943,771.856934 689.141785,773.618958 705.247375,774.637146 
	C729.206482,776.151917 753.187134,776.150696 777.148804,774.668762 
	C798.080566,773.374207 818.908447,771.138794 840.308350,766.698547 
M854.243042,680.930908 
	C818.833252,689.797974 782.755554,692.771423 746.383423,693.208984 
	C716.875122,693.563904 687.519531,691.642151 658.305115,687.502686 
	C652.910217,686.738220 652.119324,687.376404 652.100769,692.754761 
	C652.078430,699.250061 652.474426,705.770813 652.017334,712.232971 
	C651.663391,717.236694 653.707397,718.864746 658.300537,719.546021 
	C683.190430,723.237915 708.226196,725.080017 733.355408,725.609253 
	C750.503357,725.970459 767.622498,724.918701 784.731079,723.754761 
	C809.006531,722.103149 833.028931,718.867126 856.591980,712.655579 
	C865.955627,710.187134 875.059387,706.992920 883.480469,702.125366 
	C887.087463,700.040344 891.754150,697.927368 892.145874,693.680847 
	C892.926086,685.221863 892.376892,676.640198 892.376892,667.262146 
	C879.855896,673.356262 867.693176,677.750671 854.243042,680.930908 
M734.499451,793.277771 
	C717.842957,793.142700 701.226624,792.279297 684.666565,790.458862 
	C675.246704,789.423340 665.838440,788.281189 656.415894,787.272034 
	C654.344421,787.050232 651.870056,786.433044 651.250793,789.593811 
	C649.445984,798.806763 646.114868,807.358643 639.474976,814.895752 
	C641.063049,815.350159 641.815674,815.611816 642.588501,815.779968 
	C666.068604,820.887451 689.896362,823.711975 713.837891,824.501221 
	C750.963623,825.725281 788.084106,825.219971 824.857910,818.771790 
	C842.911438,815.606262 860.798340,811.911316 877.815613,804.768677 
	C888.077393,800.461365 895.225159,794.527771 892.881836,781.894348 
	C892.091614,777.634155 893.379944,773.093567 892.029053,768.262451 
	C878.807129,774.941162 865.346436,779.183044 851.540955,782.350830 
	C813.346924,791.114624 774.559814,793.669189 734.499451,793.277771 
M682.567505,578.823853 
	C709.162903,576.686218 735.378540,572.434082 760.877136,564.399231 
	C769.782898,561.592834 778.409058,558.028198 786.127808,552.638489 
	C788.993713,550.637390 792.417358,548.458557 792.526123,544.737793 
	C792.859070,533.343567 792.647217,521.933472 792.647217,509.798065 
	C783.077271,514.672302 773.860046,518.379639 764.292297,521.151550 
	C739.593079,528.307190 714.310303,532.179810 688.738159,534.259583 
	C684.153870,534.632446 681.219666,535.910034 679.371216,540.608154 
	C674.730286,552.403931 668.336853,563.344727 661.609619,574.078186 
	C660.600647,575.688049 658.911560,577.083435 659.392639,579.839905 
	C666.829041,580.015625 674.246765,579.907104 682.567505,578.823853 
M731.434143,291.137970 
	C699.999939,298.271637 667.941650,300.556030 635.123779,302.730591 
	C636.310608,304.359924 636.794861,305.233826 637.469971,305.919922 
	C647.098755,315.705536 655.136230,326.716156 662.229736,338.415619 
	C663.963379,341.275055 666.073425,342.113190 669.225891,341.857269 
	C693.797424,339.862335 718.148621,336.520630 741.808716,329.369659 
	C750.875305,326.629333 759.843140,323.432281 767.541809,317.561401 
	C770.948853,314.963196 772.784302,311.797729 772.662476,307.349243 
	C772.461975,300.029449 772.600830,292.700653 772.564758,285.375793 
	C772.552795,282.944275 772.543884,280.491119 771.201965,277.885956 
	C758.601074,284.088287 745.426086,287.533813 731.434143,291.137970 
M792.794617,451.611603 
	C791.481079,448.006073 789.443359,450.690399 788.086975,451.320496 
	C778.540833,455.754944 768.618225,459.048645 758.405640,461.489624 
	C740.283875,465.821014 721.877747,468.601715 703.463013,471.285065 
	C695.923767,472.383636 696.047729,472.193481 695.199890,479.596649 
	C693.989624,490.164398 692.172241,500.633148 689.351501,510.913116 
	C688.900757,512.555786 687.582886,514.271057 689.103882,516.140930 
	C691.583557,517.154053 693.993225,515.913391 696.405151,515.678406 
	C718.434265,513.532715 740.232971,510.051331 761.439819,503.526581 
	C770.517273,500.733704 779.385254,497.395538 787.186401,491.745361 
	C791.096008,488.913666 793.122742,485.406860 792.966492,480.343872 
	C792.679138,471.033966 792.864258,461.709473 792.794617,451.611603 
M695.323242,357.114380 
	C688.695862,358.075531 681.873474,357.926025 675.508240,359.967377 
	C675.508240,361.080078 675.353516,361.638245 675.530823,362.055328 
	C680.346802,373.385895 685.064758,384.754852 688.249756,396.678619 
	C688.979004,399.408844 690.701538,399.202362 692.860168,398.961365 
	C705.764587,397.520813 718.510437,395.179749 731.104187,392.080688 
	C743.228027,389.097229 755.328430,385.933441 765.829163,378.705536 
	C768.443665,376.905975 771.384705,375.041412 771.771545,371.651520 
	C773.054565,360.408936 773.167480,349.130127 771.858093,337.866821 
	C771.831848,337.641174 771.386597,337.464233 770.863586,337.046173 
	C767.517273,338.455566 764.050415,340.004242 760.519165,341.388336 
	C739.792236,349.512299 718.097534,353.661652 695.323242,357.114380 
M695.643311,441.987091 
	C695.831177,443.974121 696.101624,445.957397 696.191528,447.948822 
	C696.459839,453.890076 697.012878,454.477783 703.079346,453.521454 
	C710.633423,452.330597 718.206848,451.158386 725.669434,449.513367 
	C738.999146,446.574951 752.214722,443.336609 764.286865,436.441162 
	C771.463806,432.341827 773.586121,426.612061 772.429871,418.877930 
	C771.985657,415.906799 770.959229,414.018433 767.871094,413.195984 
	C760.959656,411.355316 754.112183,409.274536 747.237610,407.295349 
	C745.291382,406.735046 743.406921,406.615204 741.369995,407.212341 
	C727.289978,411.340210 712.909241,414.133667 698.394836,416.104706 
	C693.487549,416.771118 692.723450,419.235077 693.514343,423.248444 
	C694.674683,429.137329 695.346130,435.077545 695.643311,441.987091 
z"/>
<path fill="#000000" opacity="1.000000" stroke="none" 
	d="
M376.810791,319.775238 
	C402.167328,300.246002 430.681854,289.158020 461.959442,286.029388 
	C551.703125,277.052673 629.944519,336.504456 646.421082,421.934296 
	C657.126221,477.439728 644.466675,527.272888 608.002625,570.227661 
	C579.503662,603.799622 542.824341,624.310608 498.633362,628.145630 
	C429.070465,634.182556 374.529785,607.102844 335.886200,549.168884 
	C319.119110,524.031860 310.748962,495.616119 309.692719,465.323425 
	C307.614838,405.731262 330.620728,357.567566 376.810791,319.775238 
M361.621246,560.881470 
	C372.249420,573.233398 384.440887,583.773499 398.465790,592.078979 
	C444.073700,619.088074 491.883636,623.670837 540.666748,602.847900 
	C615.303650,570.989258 653.274475,488.064911 629.439453,410.133423 
	C604.251404,327.778351 523.386658,286.859985 448.318298,302.473846 
	C378.881592,316.916290 327.916901,375.716461 323.496429,446.048950 
	C320.797974,488.983795 333.508606,527.224121 361.621246,560.881470 
z"/>
<path fill="#000000" opacity="1.000000" stroke="none" 
	d="
M419.856323,535.021240 
	C421.787994,528.579712 423.532898,522.499268 425.460266,516.477173 
	C427.909698,508.823639 432.619934,506.964417 439.655609,511.038727 
	C446.668549,515.099854 454.181061,517.598267 462.067200,519.224243 
	C465.128998,519.855469 466.600922,518.778015 466.610870,515.764893 
	C466.647705,504.601074 466.620178,493.437103 466.625427,482.273163 
	C466.626831,479.235962 464.624786,477.986023 462.161896,476.961029 
	C454.768829,473.884186 447.459747,470.585632 441.019348,465.751343 
	C422.244598,451.658722 415.402618,432.479584 418.959930,409.857605 
	C422.387604,388.059967 435.854248,373.815399 456.019562,365.746796 
	C465.518799,361.945953 465.603516,362.157684 465.662445,351.935608 
	C465.710144,343.663239 468.557220,340.737915 476.671234,340.692627 
	C482.169922,340.661926 487.670227,340.608978 493.167389,340.703979 
	C498.922424,340.803375 501.962982,343.873230 502.296478,349.679657 
	C502.929626,360.702911 502.921936,360.735779 513.623474,363.238281 
	C520.471069,364.839569 527.082336,367.068634 533.223694,370.517639 
	C538.633667,373.555878 539.995117,377.016113 538.251099,383.015137 
	C536.299561,389.728058 534.322632,396.434723 532.251587,403.111481 
	C529.925293,410.610901 525.282166,412.565247 518.132080,409.325256 
	C513.300049,407.135742 508.437897,404.949310 503.021027,404.823029 
	C501.461609,406.581116 501.435486,408.615814 501.465027,410.589783 
	C501.587219,418.750793 501.898010,426.910461 501.910095,435.070953 
	C501.914948,438.361145 503.741089,439.695587 506.359406,440.888245 
	C516.096924,445.323761 525.429016,450.393982 533.113220,458.076447 
	C563.818176,488.774200 555.224426,538.909851 515.372925,555.922302 
	C504.872589,560.404846 500.624756,565.138489 501.967651,576.299622 
	C502.791168,583.144287 498.828766,586.198181 491.942413,586.382324 
	C486.449402,586.529175 480.956848,586.966553 475.467621,586.912659 
	C468.516632,586.844482 465.153595,583.306213 464.895233,576.342834 
	C464.423004,563.615784 464.410095,563.678101 451.489929,561.008850 
	C442.969421,559.248474 434.841980,556.354797 427.143616,552.226440 
	C418.408966,547.542358 417.116516,544.778259 419.856323,535.021240 
M487.648651,409.501953 
	C487.648712,405.168884 487.587585,400.834717 487.663574,396.502960 
	C487.770264,390.420105 490.285034,388.114532 496.462128,388.605530 
	C502.640930,389.096680 508.579193,390.804810 514.414001,392.790924 
	C520.771240,394.954773 520.740295,395.047607 522.695251,388.441956 
	C522.836975,387.963013 522.880554,387.437164 523.105408,387.003387 
	C525.343140,382.685486 523.243958,380.738220 519.273254,379.446747 
	C512.433228,377.222015 505.497070,375.636841 498.299866,375.182037 
	C491.424103,374.747589 488.868103,371.990265 488.703644,365.064240 
	C488.652191,362.898590 488.646423,360.731842 488.624268,358.565552 
	C488.593414,355.546936 486.660522,354.609100 484.065460,354.369324 
	C481.362061,354.119537 479.932465,355.534729 479.691101,358.039673 
	C479.436340,360.684082 479.454498,363.357117 479.405487,366.018616 
	C479.284271,372.605286 478.072052,374.192871 471.773529,375.686401 
	C467.067841,376.802185 462.430450,378.084808 457.984558,380.044891 
	C428.814392,392.905304 423.003082,431.718353 447.118713,452.521667 
	C454.991821,459.313324 464.506256,462.930939 473.991791,466.560394 
	C478.277374,468.200195 480.272278,470.845154 480.484924,475.484192 
	C481.210358,491.309387 480.943481,507.137787 480.942657,522.964722 
	C480.942139,532.466125 477.282501,535.338257 467.739807,534.043274 
	C458.627289,532.806763 449.738647,530.802795 441.164886,527.429993 
	C439.862579,526.917664 438.465149,526.073181 436.989349,527.428101 
	C432.397705,531.643799 433.460938,539.993713 439.070679,542.435181 
	C448.797729,546.668457 458.943970,548.924927 469.614105,548.997375 
	C476.193604,549.041992 478.632812,551.591492 478.974182,558.094116 
	C479.157440,561.584961 479.114166,565.092468 479.048859,568.590210 
	C478.994202,571.518616 480.194977,572.779053 483.224030,572.756226 
	C486.278534,572.733154 487.985168,571.730591 487.951080,568.466553 
	C487.914551,564.967712 487.893738,561.465332 488.007599,557.969116 
	C488.232513,551.065186 490.265625,549.071350 496.993866,547.617371 
	C508.638123,545.101013 519.164734,540.303711 526.931274,530.870483 
	C542.094238,512.453674 541.210999,477.715485 514.976746,461.269806 
	C508.889160,457.453613 502.557526,454.153351 495.886932,451.468231 
	C489.020721,448.704376 487.695435,446.694000 487.673798,439.499146 
	C487.644745,429.833252 487.653992,420.167236 487.648651,409.501953 
z"/>
<path fill="#000000" opacity="1.000000" stroke="none" 
	d="
M507.940033,482.061890 
	C527.434448,502.439392 516.464111,525.415649 499.097961,532.218201 
	C491.262421,535.287415 486.740601,532.336914 486.701172,523.948303 
	C486.634003,509.645752 486.634003,495.342560 486.688049,481.039948 
	C486.717194,473.329559 490.998260,470.788910 497.688477,474.435608 
	C501.351929,476.432495 504.761261,478.801971 507.940033,482.061890 
M501.272095,509.280945 
	C501.473236,509.982910 501.080078,510.972839 502.201782,511.244110 
	C505.249664,505.689819 505.078369,502.138611 501.232910,498.327240 
	C501.232910,501.983368 501.232910,505.270844 501.272095,509.280945 
z"/>
<path fill="#000000" opacity="1.000000" stroke="none" 
	d="
M476.462555,389.996948 
	C480.194153,391.613770 481.268188,394.380463 481.269409,397.804504 
	C481.274139,411.094086 481.358490,424.383911 481.294647,437.673096 
	C481.269897,442.823639 477.958496,445.404816 473.217621,444.279236 
	C462.783936,441.801971 452.870667,429.515503 451.901398,417.860016 
	C450.945190,406.361450 458.076630,395.265961 469.253479,390.805176 
	C471.459991,389.924530 473.689423,389.433472 476.462555,389.996948 
z"/>
</svg>