<?xml version="1.0" standalone="no"?>
<!DOCTYPE svg PUBLIC "-//W3C//DTD SVG 20010904//EN"
 "http://www.w3.org/TR/2001/REC-SVG-20010904/DTD/svg10.dtd">
<svg version="1.0" xmlns="http://www.w3.org/2000/svg"
 width="600.000000pt" height="600.000000pt" viewBox="0 0 600.000000 600.000000"
 preserveAspectRatio="xMidYMid meet">

<g transform="translate(0.000000,600.000000) scale(0.100000,-0.100000)"
fill="#000000" stroke="none">
<path d="M2990 4023 c-428 -69 -744 -356 -856 -778 -26 -97 -27 -407 -1 -509
39 -156 118 -306 225 -433 206 -242 541 -378 841 -343 262 32 501 164 663 369
109 137 131 209 80 260 -25 26 -35 28 -132 34 -137 9 -214 28 -325 81 -218
104 -368 283 -437 522 -19 67 -23 101 -22 224 1 164 18 245 79 380 19 42 35
85 35 94 0 30 -30 75 -60 91 -29 15 -42 16 -90 8z m-124 -255 c-72 -257 -55
-522 48 -744 61 -128 105 -193 198 -290 148 -154 318 -248 542 -299 l29 -6
-54 -55 c-151 -154 -403 -242 -611 -214 -275 37 -503 200 -624 445 -61 125
-76 187 -81 347 -4 106 -1 154 12 215 58 265 216 471 449 584 44 22 84 39 89
39 5 0 6 -10 3 -22z"/>
</g>
</svg>
