<svg version="1.1" id="Layer_1" xmlns="http://www.w3.org/2000/svg" xmlns:xlink="http://www.w3.org/1999/xlink" x="0px" y="0px"
	 width="100%" viewBox="0 0 1024 1024" enable-background="new 0 0 1024 1024" xml:space="preserve">
<path fill="#000000" opacity="1.000000" stroke="none" 
	d="
M423.902039,802.904114 
	C394.713837,830.789490 360.130981,844.845642 320.225159,844.943665 
	C298.685272,844.996582 278.363312,839.411804 260.104767,827.496948 
	C223.777512,803.791138 211.359818,759.654236 230.544846,719.747742 
	C250.448471,678.346436 284.699524,655.008240 328.589020,644.805054 
	C347.987701,640.295288 367.548798,640.427307 387.055237,644.702393 
	C393.940063,646.211365 394.045410,646.050659 394.040497,639.034241 
	C393.993866,572.535767 393.932800,506.037292 393.892456,439.538818 
	C393.861359,388.206543 393.853973,336.874298 393.836853,285.542023 
	C393.836548,284.708740 393.835510,283.875183 393.853210,283.042175 
	C394.042603,274.123474 396.430267,271.048950 404.927032,269.061920 
	C439.605743,260.952087 474.299072,252.904480 508.973389,244.775970 
	C580.264893,228.063492 651.553040,211.336761 722.830872,194.566376 
	C746.322998,189.039108 769.776489,183.347656 793.253235,177.754868 
	C803.341248,175.351624 808.769409,179.360825 808.908875,189.749557 
	C809.094604,203.579758 809.301514,217.428940 808.789307,231.243622 
	C808.319458,243.911911 808.315735,256.570129 808.458557,269.225616 
	C809.562439,367.050110 808.611572,464.877045 808.918518,562.702148 
	C808.979126,582.034912 808.833740,601.369324 809.040955,620.700256 
	C809.630676,675.727234 782.824707,714.203369 736.340637,740.470337 
	C714.755127,752.667786 691.148071,758.449463 666.377197,758.037903 
	C642.143799,757.635376 619.621826,751.076782 600.395935,735.665527 
	C572.945679,713.661743 562.569336,680.778992 572.448730,647.005005 
	C582.098999,614.014404 603.664185,590.605530 632.790039,573.596741 
	C657.440735,559.201294 684.153503,552.726685 712.660889,553.796631 
	C720.322693,554.084167 727.882996,555.372375 735.351990,557.121826 
	C737.115234,557.534912 738.834900,558.209656 740.702515,557.887817 
	C742.247925,556.321533 741.637451,554.384033 741.638367,552.640686 
	C741.667175,495.475067 741.658936,438.309479 741.643799,381.143860 
	C741.641846,373.889771 741.605774,373.870972 734.277161,375.619873 
	C679.871277,388.603210 625.472290,401.615479 571.060974,414.575928 
	C536.409729,422.829590 501.754852,431.069427 467.061279,439.142059 
	C463.118958,440.059387 461.820831,441.508270 461.847748,445.752289 
	C461.968109,464.733215 461.161194,483.725525 461.516785,502.698212 
	C462.113281,534.525818 462.421875,566.364624 461.784912,598.172180 
	C461.164124,629.174072 462.481628,660.152161 461.798584,691.129456 
	C461.454468,706.735535 462.997375,722.451050 459.793945,737.942749 
	C454.574677,763.182983 442.146088,784.450745 423.902039,802.904114 
M426.250519,285.915283 
	C424.795197,286.269562 423.355530,286.829315 421.881775,286.941284 
	C416.453003,287.353790 414.920563,290.084869 415.090118,295.490997 
	C415.507782,308.808929 415.176514,322.149811 415.179871,335.481445 
	C415.206909,443.134857 415.245300,550.788269 415.268860,658.441650 
	C415.271393,670.061890 408.918304,674.440979 398.087067,670.222107 
	C389.347382,666.817871 380.365356,664.159485 371.041779,663.448853 
	C328.826263,660.230896 292.938995,673.629028 264.520081,705.360657 
	C248.930725,722.767273 240.387253,743.191589 243.790527,766.796509 
	C247.827316,794.795532 266.015747,811.336426 291.871246,819.334167 
	C322.038879,828.665833 351.442383,824.205688 378.890198,809.457275 
	C419.466553,787.654541 441.379181,754.580322 440.986511,707.019287 
	C440.242249,616.869568 440.721161,526.709656 440.695953,436.554016 
	C440.693024,426.045166 442.933105,423.270569 452.872986,420.925385 
	C527.379700,403.346313 601.882690,385.752045 676.380615,368.135864 
	C700.028687,362.543915 723.652344,356.848358 747.298157,351.246826 
	C756.361267,349.099823 762.307312,353.290802 762.314087,361.941620 
	C762.369019,432.433014 762.389099,502.924408 762.370300,573.415833 
	C762.367859,582.385010 755.830261,586.855042 747.567261,583.396912 
	C722.897766,573.072510 697.661133,572.072693 672.237122,579.472778 
	C639.273254,589.067505 613.145813,607.870483 597.753113,639.263855 
	C579.670105,676.144043 593.793274,713.826660 631.343689,729.907227 
	C647.984497,737.033508 665.448059,737.934082 683.315308,735.891968 
	C738.700806,729.561768 789.274597,680.724731 788.426208,618.525940 
	C786.553528,481.234863 787.826172,343.900970 787.792664,206.584534 
	C787.792236,204.798325 788.221436,202.914322 786.801392,200.728958 
	C666.988708,229.015488 547.013000,257.340515 426.250519,285.915283 
z"/>
<path fill="#000000" opacity="1.000000" stroke="none" 
	d="
M470.455444,369.319092 
	C508.572571,360.266449 546.292114,351.345337 584.005005,342.396088 
	C637.901550,329.606354 691.797058,316.811829 745.681213,303.970154 
	C751.096558,302.679596 756.253906,301.829865 760.089844,307.223511 
	C764.564148,313.514771 761.603882,321.295013 753.414917,323.469208 
	C740.552002,326.884308 727.578735,329.890656 714.626221,332.960358 
	C673.504211,342.706055 632.359802,352.357635 591.243469,362.127136 
	C545.757568,372.934937 500.295410,383.842224 454.817474,394.683380 
	C445.485107,396.908020 438.558868,390.595490 440.778107,381.954681 
	C441.841614,377.813873 444.632263,375.490021 448.696106,374.525452 
	C455.817047,372.835297 462.935425,371.134430 470.455444,369.319092 
z"/>
</svg>