<?xml version="1.0" standalone="no"?>
<!DOCTYPE svg PUBLIC "-//W3C//DTD SVG 20010904//EN"
 "http://www.w3.org/TR/2001/REC-SVG-20010904/DTD/svg10.dtd">
<svg version="1.0" xmlns="http://www.w3.org/2000/svg"
 width="1024.000000pt" height="1024.000000pt" viewBox="0 0 1024.000000 1024.000000"
 preserveAspectRatio="xMidYMid meet">

<g transform="translate(0.000000,1024.000000) scale(0.100000,-0.100000)"
fill="#000000" stroke="none">
<path d="M4995 6698 c-647 -28 -1261 -302 -1731 -772 -221 -221 -371 -431
-509 -711 -172 -350 -261 -697 -272 -1067 l-6 -176 26 -26 c35 -35 95 -36 134
-2 27 23 27 26 34 177 18 367 100 691 254 1004 155 315 364 586 613 797 382
322 795 506 1287 575 149 21 493 21 640 0 726 -102 1335 -484 1737 -1087 254
-382 393 -813 414 -1284 7 -137 9 -150 31 -177 33 -39 102 -41 138 -4 23 22
25 32 25 117 0 340 -86 734 -230 1057 -411 925 -1294 1533 -2288 1579 -81 4
-214 4 -297 0z"/>
<path d="M4096 5674 c-27 -27 -19 -61 27 -112 39 -43 111 -122 603 -653 l171
-185 -4 -99 c-4 -85 -2 -109 16 -156 30 -78 80 -132 159 -171 59 -29 76 -33
147 -33 68 0 89 4 138 28 205 101 254 371 96 536 -71 75 -237 113 -338 78
l-44 -16 -120 107 c-220 197 -333 297 -403 357 -38 33 -91 80 -119 105 -27 25
-55 50 -61 55 -29 26 -104 93 -146 132 -51 47 -93 56 -122 27z m1194 -956 c52
-36 75 -74 74 -123 -2 -79 -75 -155 -151 -155 -34 0 -94 35 -123 73 -28 35
-31 108 -6 155 37 70 139 95 206 50z"/>
<path d="M3519 3861 c-47 -48 -38 -116 21 -146 24 -12 80 -15 319 -15 l291 0
31 28 c26 24 32 36 32 72 0 35 -6 48 -27 67 -27 23 -28 23 -332 23 l-306 0
-29 -29z"/>
</g>
</svg>
