<?xml version="1.0" standalone="no"?>
<!DOCTYPE svg PUBLIC "-//W3C//DTD SVG 20010904//EN"
 "http://www.w3.org/TR/2001/REC-SVG-20010904/DTD/svg10.dtd">
<svg version="1.0" xmlns="http://www.w3.org/2000/svg"
 width="1024.000000pt" height="1024.000000pt" viewBox="0 0 1024.000000 1024.000000"
 preserveAspectRatio="xMidYMid meet">

<g transform="translate(0.000000,1024.000000) scale(0.100000,-0.100000)"
fill="#000000" stroke="none">
<path d="M4975 6698 c-647 -28 -1261 -302 -1731 -772 -221 -221 -371 -431
-509 -711 -172 -350 -261 -697 -272 -1067 l-6 -176 26 -26 c35 -35 95 -36 134
-2 27 23 27 26 34 177 18 367 100 691 254 1004 155 315 364 586 613 797 382
322 795 506 1287 575 149 21 493 21 640 0 726 -102 1335 -484 1737 -1087 254
-382 393 -813 414 -1284 7 -137 9 -150 31 -177 33 -39 102 -41 138 -4 23 22
25 32 25 117 0 340 -86 734 -230 1057 -411 925 -1294 1533 -2288 1579 -81 4
-214 4 -297 0z"/>
<path d="M5904 5207 c-607 -564 -655 -606 -681 -596 -43 16 -158 10 -216 -11
-138 -52 -229 -197 -213 -343 8 -77 34 -134 87 -192 159 -172 444 -134 545 72
34 68 43 183 21 254 l-14 46 151 170 c83 93 216 243 296 333 80 90 191 215
248 278 85 95 102 119 102 146 0 19 -8 40 -18 49 -41 38 -58 26 -308 -206z
m-696 -796 c35 -19 62 -71 62 -119 0 -138 -159 -199 -249 -97 -54 62 -53 131
2 192 47 51 118 60 185 24z"/>
<path d="M3697 4990 c-32 -25 -43 -72 -27 -111 25 -60 14 -59 644 -59 l574 0
31 26 c26 22 31 33 31 70 0 36 -5 50 -26 69 l-27 25 -587 0 c-573 0 -588 0
-613 -20z"/>
<path d="M3219 4611 c-37 -38 -39 -88 -5 -128 l24 -28 597 0 597 0 24 28 c34
40 32 90 -5 128 l-29 29 -587 0 -587 0 -29 -29z"/>
<path d="M2949 4241 c-49 -50 -35 -124 28 -150 21 -8 158 -11 502 -9 l473 3
24 28 c33 39 33 99 -1 132 l-24 25 -486 0 -487 0 -29 -29z"/>
<path d="M3499 3861 c-47 -48 -38 -116 21 -146 24 -12 80 -15 319 -15 l291 0
31 28 c26 24 32 36 32 72 0 35 -6 48 -27 67 -27 23 -28 23 -332 23 l-306 0
-29 -29z"/>
</g>
</svg>
