<?xml version="1.0" standalone="no"?>
<!DOCTYPE svg PUBLIC "-//W3C//DTD SVG 20010904//EN"
 "http://www.w3.org/TR/2001/REC-SVG-20010904/DTD/svg10.dtd">
<svg version="1.0" xmlns="http://www.w3.org/2000/svg"
 width="1024.000000pt" height="1024.000000pt" viewBox="0 0 1024.000000 1024.000000"
 preserveAspectRatio="xMidYMid meet">

<g transform="translate(0.000000,1024.000000) scale(0.100000,-0.100000)"
fill="#000000" stroke="none">
<path d="M4995 6698 c-647 -28 -1261 -302 -1731 -772 -221 -221 -371 -431
-509 -711 -172 -350 -261 -697 -272 -1067 l-6 -176 26 -26 c35 -35 95 -36 134
-2 27 23 27 26 34 177 18 367 100 691 254 1004 155 315 364 586 613 797 382
322 795 506 1287 575 149 21 493 21 640 0 726 -102 1335 -484 1737 -1087 254
-382 393 -813 414 -1284 7 -137 9 -150 31 -177 33 -39 102 -41 138 -4 23 22
25 32 25 117 0 340 -86 734 -230 1057 -411 925 -1294 1533 -2288 1579 -81 4
-214 4 -297 0z"/>
<path d="M5222 5807 c-15 -17 -19 -77 -32 -432 -6 -165 -15 -383 -20 -485 -6
-102 -10 -215 -10 -252 l0 -68 -38 -19 c-49 -25 -101 -83 -133 -146 -33 -68
-34 -207 -2 -275 34 -70 87 -126 155 -159 52 -27 72 -31 138 -31 92 0 128 11
196 59 71 50 99 86 124 162 36 106 19 211 -52 311 -10 15 -49 47 -86 72 l-68
45 -13 233 c-6 128 -16 287 -21 353 -5 66 -14 227 -21 358 -11 208 -15 242
-31 263 -21 27 -68 33 -86 11z m147 -1414 c111 -84 82 -242 -50 -272 -22 -5
-52 -3 -82 6 -38 11 -51 21 -72 57 -48 82 -25 171 56 214 51 27 107 25 148 -5z"/>
<path d="M3729 4291 c-47 -48 -38 -116 21 -146 24 -12 80 -15 319 -15 l291 0
31 28 c26 24 32 36 32 72 0 35 -6 48 -27 67 -27 23 -28 23 -332 23 l-306 0
-29 -29z"/>
<path d="M3519 3861 c-47 -48 -38 -116 21 -146 24 -12 80 -15 319 -15 l291 0
31 28 c26 24 32 36 32 72 0 35 -6 48 -27 67 -27 23 -28 23 -332 23 l-306 0
-29 -29z"/>
</g>
</svg>
