<?xml version="1.0" standalone="no"?>
<!DOCTYPE svg PUBLIC "-//W3C//DTD SVG 20010904//EN"
 "http://www.w3.org/TR/2001/REC-SVG-20010904/DTD/svg10.dtd">
<svg version="1.0" xmlns="http://www.w3.org/2000/svg"
 width="400.000000pt" height="400.000000pt" viewBox="0 0 400.000000 400.000000"
 preserveAspectRatio="xMidYMid meet">

<g transform="translate(0.000000,400.000000) scale(0.100000,-0.100000)"
fill="#000000" stroke="none">
<path d="M730 2777 c0 -21 -8 -25 -57 -37 -220 -48 -337 -241 -269 -440 27
-79 123 -172 238 -231 l88 -44 0 -208 0 -208 -40 22 c-44 25 -90 102 -90 151
l0 28 -120 0 c-89 0 -120 -3 -120 -12 1 -39 32 -152 54 -195 42 -84 128 -144
255 -179 l61 -17 0 -84 0 -83 70 0 70 0 0 84 0 83 60 7 c168 19 301 112 351
245 17 45 20 72 17 141 -9 183 -102 292 -340 396 l-88 39 0 163 0 164 28 -7
c42 -10 80 -53 93 -106 l13 -49 119 0 120 0 -6 54 c-15 143 -135 256 -307 288
-53 10 -60 14 -60 35 0 22 -3 23 -70 23 -67 0 -70 -1 -70 -23z m0 -348 l0
-130 -30 21 c-86 62 -96 166 -21 217 19 13 38 23 42 23 5 0 9 -59 9 -131z
m193 -490 c100 -52 137 -99 137 -175 0 -84 -57 -145 -148 -160 l-42 -7 0 182
c0 99 2 181 5 181 3 0 25 -10 48 -21z"/>
<path d="M1860 2777 c0 -21 -8 -25 -57 -37 -220 -48 -337 -241 -269 -440 27
-79 123 -172 238 -231 l88 -44 0 -208 0 -208 -40 22 c-44 25 -90 102 -90 151
l0 28 -120 0 c-89 0 -120 -3 -120 -12 1 -39 32 -152 54 -195 42 -84 128 -144
255 -179 l61 -17 0 -84 0 -83 70 0 70 0 0 84 0 83 60 7 c168 19 301 112 351
245 17 45 20 72 17 141 -9 183 -102 292 -340 396 l-88 39 0 163 0 164 28 -7
c42 -10 80 -53 93 -106 l13 -49 119 0 120 0 -6 54 c-15 143 -135 256 -307 288
-53 10 -60 14 -60 35 0 22 -3 23 -70 23 -67 0 -70 -1 -70 -23z m0 -348 l0
-130 -30 21 c-86 62 -96 166 -21 217 19 13 38 23 42 23 5 0 9 -59 9 -131z
m193 -490 c100 -52 137 -99 137 -175 0 -84 -57 -145 -148 -160 l-42 -7 0 182
c0 99 2 181 5 181 3 0 25 -10 48 -21z"/>
<path d="M2990 2777 c0 -21 -8 -25 -57 -37 -220 -48 -337 -241 -269 -440 27
-79 123 -172 238 -231 l88 -44 0 -208 0 -208 -40 22 c-44 25 -90 102 -90 151
l0 28 -120 0 c-89 0 -120 -3 -120 -12 1 -39 32 -152 54 -195 42 -84 128 -144
255 -179 l61 -17 0 -84 0 -83 70 0 70 0 0 84 0 83 60 7 c168 19 301 112 351
245 17 45 20 72 17 141 -9 183 -102 292 -340 396 l-88 39 0 163 0 164 28 -7
c42 -10 80 -53 93 -106 l13 -49 119 0 120 0 -6 54 c-15 143 -135 256 -307 288
-53 10 -60 14 -60 35 0 22 -3 23 -70 23 -67 0 -70 -1 -70 -23z m0 -348 l0
-130 -30 21 c-86 62 -96 166 -21 217 19 13 38 23 42 23 5 0 9 -59 9 -131z
m193 -490 c100 -52 137 -99 137 -175 0 -84 -57 -145 -148 -160 l-42 -7 0 182
c0 99 2 181 5 181 3 0 25 -10 48 -21z"/>
</g>
</svg>
