<?xml version="1.0" standalone="no"?>
<!DOCTYPE svg PUBLIC "-//W3C//DTD SVG 20010904//EN"
 "http://www.w3.org/TR/2001/REC-SVG-20010904/DTD/svg10.dtd">
<svg version="1.0" xmlns="http://www.w3.org/2000/svg"
 width="400.000000pt" height="400.000000pt" viewBox="0 0 400.000000 400.000000"
 preserveAspectRatio="xMidYMid meet">

<g transform="translate(0.000000,400.000000) scale(0.100000,-0.100000)"
fill="#000000" stroke="none">
<path d="M2027 2590 c-3 -13 -14 -20 -29 -20 -65 0 -169 -76 -205 -149 -25
-52 -23 -154 4 -206 30 -57 100 -119 178 -157 l65 -32 0 -153 c0 -170 -4 -178
-58 -123 -19 18 -33 45 -37 70 l-7 40 -90 0 -90 0 7 -46 c18 -125 93 -206 218
-238 l52 -13 5 -64 5 -64 50 0 50 0 3 62 3 62 37 6 c145 25 235 93 268 202 18
60 18 94 -2 165 -26 91 -83 148 -210 209 l-104 49 0 120 c0 111 1 120 19 120
25 0 67 -51 76 -90 l7 -31 86 3 87 3 -2 44 c-4 95 -95 183 -217 210 -36 8 -56
18 -56 27 0 10 -14 14 -54 14 -45 0 -54 -3 -59 -20z m13 -255 c0 -52 -3 -95
-6 -95 -3 0 -19 9 -34 20 -56 40 -60 118 -8 154 43 31 48 23 48 -79z m149
-374 c21 -11 52 -36 69 -56 55 -61 38 -141 -38 -180 -54 -28 -66 -21 -74 38
-7 64 -8 217 -1 217 3 0 23 -9 44 -19z"/>
</g>
</svg>
