<?xml version="1.0" standalone="no"?>
<!DOCTYPE svg PUBLIC "-//W3C//DTD SVG 20010904//EN"
 "http://www.w3.org/TR/2001/REC-SVG-20010904/DTD/svg10.dtd">
<svg version="1.0" xmlns="http://www.w3.org/2000/svg"
 width="1022.000000pt" height="1022.000000pt" viewBox="0 0 1022.000000 1022.000000"
 preserveAspectRatio="xMidYMid meet">

<g transform="translate(0.000000,1022.000000) scale(0.100000,-0.100000)"
fill="#000000" stroke="none">
<path d="M3150 6950 c0 -33 -4 -40 -22 -44 -13 -3 -52 -10 -88 -17 -101 -20
-206 -77 -278 -153 -191 -199 -183 -490 18 -686 65 -63 223 -166 323 -210 l47
-21 0 -309 c0 -208 -3 -310 -10 -310 -6 0 -27 9 -48 19 -79 41 -133 125 -147
229 l-7 52 -175 0 -175 0 6 -57 c37 -311 185 -461 529 -537 l27 -6 0 -130 0
-130 100 0 100 0 0 129 0 130 48 5 c125 15 211 38 292 77 365 180 414 653 96
921 -67 56 -202 131 -358 198 l-78 34 0 248 c0 243 0 248 20 248 72 0 150 -88
172 -192 l12 -58 179 0 179 0 -7 57 c-18 145 -83 263 -187 342 -91 68 -150 90
-345 127 -19 4 -23 11 -23 44 l0 40 -100 0 -100 0 0 -40z m0 -520 c0 -115 -4
-200 -9 -200 -20 0 -125 107 -142 145 -42 91 -11 187 74 229 28 14 57 26 64
26 10 0 13 -42 13 -200z m271 -730 c154 -76 220 -156 220 -269 1 -126 -105
-233 -241 -243 l-45 -3 -3 273 c-1 149 0 272 3 272 4 0 33 -13 66 -30z"/>
<path d="M4840 6950 c0 -33 -4 -40 -22 -44 -13 -3 -52 -10 -88 -17 -101 -20
-206 -77 -278 -153 -191 -199 -183 -490 18 -686 65 -63 223 -166 323 -210 l47
-21 0 -309 c0 -208 -3 -310 -10 -310 -6 0 -27 9 -48 19 -79 41 -133 125 -147
229 l-7 52 -175 0 -175 0 6 -57 c37 -311 185 -461 529 -537 l27 -6 0 -130 0
-130 100 0 100 0 0 129 0 130 48 5 c125 15 211 38 292 77 365 180 414 653 96
921 -67 56 -202 131 -358 198 l-78 34 0 248 c0 243 0 248 20 248 72 0 150 -88
172 -192 l12 -58 179 0 179 0 -7 57 c-18 145 -83 263 -187 342 -91 68 -150 90
-345 127 -19 4 -23 11 -23 44 l0 40 -100 0 -100 0 0 -40z m0 -520 c0 -115 -4
-200 -9 -200 -20 0 -125 107 -142 145 -42 91 -11 187 74 229 28 14 57 26 64
26 10 0 13 -42 13 -200z m271 -730 c154 -76 220 -156 220 -269 1 -126 -105
-233 -241 -243 l-45 -3 -3 273 c-1 149 0 272 3 272 4 0 33 -13 66 -30z"/>
<path d="M6530 6950 c0 -33 -4 -40 -22 -44 -13 -3 -52 -10 -88 -17 -101 -20
-206 -77 -278 -153 -191 -199 -183 -490 18 -686 65 -63 223 -166 323 -210 l47
-21 0 -309 c0 -208 -3 -310 -10 -310 -6 0 -27 9 -48 19 -79 41 -133 125 -147
229 l-7 52 -175 0 -175 0 6 -57 c37 -311 185 -461 529 -537 l27 -6 0 -130 0
-130 100 0 100 0 0 129 0 130 48 5 c125 15 211 38 292 77 365 180 414 653 96
921 -67 56 -202 131 -358 198 l-78 34 0 248 c0 243 0 248 20 248 72 0 150 -88
172 -192 l12 -58 179 0 179 0 -7 57 c-18 145 -83 263 -187 342 -91 68 -150 90
-345 127 -19 4 -23 11 -23 44 l0 40 -100 0 -100 0 0 -40z m0 -520 c0 -115 -4
-200 -9 -200 -20 0 -125 107 -142 145 -42 91 -11 187 74 229 28 14 57 26 64
26 10 0 13 -42 13 -200z m271 -730 c154 -76 220 -156 220 -269 1 -126 -105
-233 -241 -243 l-45 -3 -3 273 c-1 149 0 272 3 272 4 0 33 -13 66 -30z"/>
</g>
</svg>
