<?xml version="1.0" standalone="no"?>
<!DOCTYPE svg PUBLIC "-//W3C//DTD SVG 20010904//EN"
 "http://www.w3.org/TR/2001/REC-SVG-20010904/DTD/svg10.dtd">
<svg version="1.0" xmlns="http://www.w3.org/2000/svg"
 width="273.000000pt" height="206.000000pt" viewBox="0 0 273.000000 206.000000"
 preserveAspectRatio="xMidYMid meet">

<g transform="translate(0.000000,206.000000) scale(0.100000,-0.100000)"
fill="#000000" stroke="none">
<path d="M940 1467 c0 -7 -21 -19 -48 -26 -54 -13 -115 -58 -136 -100 -56
-108 -9 -220 124 -290 l61 -33 -7 -116 c-3 -65 -8 -118 -9 -120 -2 -2 -12 2
-24 10 -20 12 -37 44 -43 83 -3 18 -11 20 -73 20 l-70 0 3 -35 c10 -100 77
-172 180 -195 31 -6 32 -8 32 -56 l0 -49 40 0 40 0 0 48 0 47 61 12 c146 28
226 146 190 281 -17 61 -69 114 -161 162 l-80 41 0 95 c0 51 4 94 9 94 20 0
60 -42 66 -70 7 -30 7 -30 76 -30 68 0 69 0 69 27 0 77 -83 163 -171 178 -24
4 -39 12 -39 21 0 10 -13 14 -45 14 -30 0 -45 -4 -45 -13z m-5 -275 c-3 -3
-17 5 -31 18 -34 33 -31 98 6 117 l25 12 3 -70 c2 -39 0 -74 -3 -77z m125
-227 c63 -33 87 -96 54 -144 -19 -26 -83 -57 -94 -44 -7 8 -1 203 7 203 2 0
17 -7 33 -15z"/>
<path d="M1610 1467 c0 -7 -21 -19 -48 -26 -90 -23 -162 -107 -162 -191 0 -77
62 -157 156 -203 l44 -21 0 -123 c0 -68 -3 -123 -8 -123 -23 0 -53 36 -63 76
l-11 44 -64 0 c-34 0 -65 -4 -68 -9 -4 -5 -1 -33 5 -61 17 -81 85 -145 177
-165 31 -6 32 -8 32 -56 l0 -49 40 0 40 0 0 49 0 48 48 7 c27 3 72 21 102 39
73 43 105 99 104 182 0 106 -56 177 -181 232 l-63 27 0 98 c0 54 4 98 9 98 20
0 59 -42 65 -70 l6 -31 67 3 68 3 -2 39 c-5 79 -80 147 -177 163 -21 3 -36 11
-36 19 0 10 -13 14 -40 14 -26 0 -40 -4 -40 -13z m0 -202 c0 -41 -4 -75 -8
-75 -20 0 -55 52 -55 81 0 30 30 69 54 69 5 0 9 -34 9 -75z m131 -309 c86 -59
67 -158 -33 -182 l-28 -6 0 99 c0 125 2 129 61 89z"/>
</g>
</svg>
