<svg version="1.1" id="Layer_1" xmlns="http://www.w3.org/2000/svg" xmlns:xlink="http://www.w3.org/1999/xlink" x="0px" y="0px"
	 width="100%" viewBox="0 0 1024 1024" enable-background="new 0 0 1024 1024" xml:space="preserve">
<path fill="#000000" opacity="1.000000" stroke="none" 
	d="
M1.000000,65.468658 
	C8.661971,64.980118 16.328358,64.791397 23.984575,64.991585 
	C30.599661,65.164551 33.060928,68.899567 31.217550,75.363930 
	C30.761229,76.964157 30.147970,78.520515 29.712828,80.125771 
	C25.909801,94.155273 30.617176,103.986107 44.146492,108.932899 
	C49.775707,110.991135 54.431747,114.056549 57.184639,119.126740 
	C60.454250,125.148621 66.099106,126.253395 71.609642,126.451080 
	C85.758133,126.958664 99.935577,126.621773 114.100471,126.739975 
	C117.007324,126.764229 120.120613,126.232727 122.730286,128.298325 
	C115.653969,137.352066 105.060707,139.814774 95.063881,142.781845 
	C88.472763,144.738083 83.037292,147.372116 79.376747,153.229599 
	C77.248863,156.634567 74.948227,159.826965 71.354279,161.941940 
	C68.933411,163.366577 69.234146,166.725021 67.425682,168.682907 
	C65.206818,167.891846 65.908676,166.127869 65.773605,164.817337 
	C64.815414,155.520340 64.859665,146.183868 64.830276,136.853012 
	C64.802483,128.027908 64.800980,128.519623 55.745209,128.122574 
	C37.796425,127.335602 19.867426,128.769516 1.466495,128.050964 
	C1.000000,107.312439 1.000000,86.624878 1.000000,65.468658 
z"/>
<path fill="#000000" opacity="1.000000" stroke="none" 
	d="
M1.000000,191.468658 
	C5.725574,192.440720 10.578257,191.624023 15.365527,191.709946 
	C25.994761,191.900696 36.628944,191.799042 47.260292,191.901733 
	C49.514179,191.923523 51.924732,191.652451 54.051697,193.480133 
	C52.351730,197.474365 48.674641,199.542358 45.585106,201.658066 
	C38.627346,206.422745 35.500977,213.317184 33.020222,220.814255 
	C32.707890,221.758148 32.608040,222.880447 32.022572,223.608917 
	C26.961088,229.906754 25.599703,237.031662 25.860003,245.020065 
	C26.045334,250.707703 21.958210,253.882019 16.187769,254.172363 
	C11.386633,254.413910 6.579600,254.538254 1.387590,254.857269 
	C1.000000,233.979111 1.000000,212.958206 1.000000,191.468658 
z"/>
<path fill="#000000" opacity="1.000000" stroke="none" 
	d="
M118.531342,1.000000 
	C117.510498,1.986209 117.068825,3.076470 117.229065,5.104853 
	C117.907349,13.690584 107.767403,25.677395 99.226379,26.879580 
	C95.268257,27.436705 92.646645,24.838867 89.850029,22.862415 
	C83.215958,18.173925 83.252762,18.079039 77.303940,23.237240 
	C75.883759,24.468678 74.388077,25.551239 72.511230,25.737106 
	C70.649391,25.921484 68.451035,27.471756 66.975723,25.284956 
	C65.531860,23.144777 65.923988,20.674570 67.372467,18.688339 
	C71.303391,13.298032 70.188660,7.420808 69.178650,1.266979 
	C85.354225,1.000000 101.708458,1.000000 118.531342,1.000000 
z"/>
<path fill="#000000" opacity="1.000000" stroke="none" 
	d="
M1025.000000,339.531342 
	C1009.090454,319.510742 1013.175659,297.475006 1020.488892,275.469086 
	C1022.335449,269.912659 1023.750610,264.407623 1024.791992,258.340088 
	C1025.000000,285.020905 1025.000000,312.041779 1025.000000,339.531342 
z"/>
<path fill="#000000" opacity="1.000000" stroke="none" 
	d="
M1.000000,314.468658 
	C4.799126,314.246002 8.595430,314.613312 12.398219,314.701752 
	C15.783346,314.780487 17.150171,316.349518 17.002218,319.659424 
	C16.606554,328.510925 13.985372,336.554077 8.533044,343.600861 
	C4.414341,348.923981 3.460268,354.909424 4.397058,361.452026 
	C4.911203,365.042877 4.908860,368.709473 5.102420,372.343872 
	C5.239886,374.925018 4.357794,376.888428 1.331693,377.828644 
	C1.000000,356.979095 1.000000,335.958221 1.000000,314.468658 
z"/>
<path fill="#000000" opacity="1.000000" stroke="none" 
	d="
M214.531586,1.000000 
	C213.267242,2.617210 211.693314,4.428171 211.725479,6.909311 
	C211.833801,15.267404 207.812637,20.991655 200.715271,24.935564 
	C199.308441,25.717325 198.111023,26.875946 196.008911,28.475840 
	C193.639435,19.182833 195.205383,10.392635 195.120392,1.344320 
	C201.354401,1.000000 207.708786,1.000000 214.531586,1.000000 
z"/>
<path fill="#000000" opacity="1.000000" stroke="none" 
	d="
M1.000000,442.468628 
	C4.035843,442.085968 4.818663,444.005127 4.987159,446.644836 
	C5.386931,452.907715 4.722378,458.928986 1.220190,464.722229 
	C1.000000,457.645752 1.000000,450.291504 1.000000,442.468628 
z"/>
<path fill="#000000" opacity="1.000000" stroke="none" 
	d="
M547.000000,850.248291 
	C480.008484,850.274963 413.516998,850.317322 347.025482,850.316467 
	C329.963562,850.316223 317.768036,840.758728 314.267700,824.612976 
	C313.675720,821.882324 313.653931,818.991455 313.653320,816.174500 
	C313.625427,687.857544 313.580139,559.540466 313.686462,431.223633 
	C313.701111,413.540192 319.589722,397.457214 331.915222,384.894714 
	C371.123474,344.932617 410.856628,305.485077 450.440308,265.892090 
	C457.111023,259.219788 465.126343,254.394043 473.639404,250.470169 
	C477.284790,248.789932 479.157349,246.552689 479.950714,242.407608 
	C482.844910,227.286865 487.580078,212.752045 495.565826,199.441849 
	C498.845215,193.975876 502.832306,189.101608 507.526031,184.775986 
	C523.170288,170.358566 544.106262,172.711060 556.791565,190.661423 
	C565.669128,203.223709 569.077759,217.826294 571.316650,232.759262 
	C572.357849,239.703888 572.404175,246.697800 572.320862,253.694763 
	C572.296021,255.777725 572.584106,257.563324 574.454895,258.954834 
	C591.942810,271.962555 605.995117,288.589752 621.351868,303.824677 
	C647.493103,329.758514 673.354553,355.976929 699.148315,382.257477 
	C712.294739,395.651978 719.356018,411.867310 719.378479,430.779785 
	C719.451538,492.266022 719.411743,553.752380 719.410950,615.238708 
	C719.410156,682.385193 719.102844,749.534058 719.620178,816.676514 
	C719.744202,832.767029 707.249634,850.563110 685.979675,850.382263 
	C639.822754,849.989929 593.660217,850.252869 547.000000,850.248291 
M453.165283,283.664001 
	C417.343506,319.723907 381.533997,355.795990 345.692780,391.836548 
	C334.301483,403.291229 328.440247,417.308228 328.417206,433.188568 
	C328.232483,560.517395 328.316162,687.846680 328.344025,815.175781 
	C328.347076,829.196228 334.874115,835.659302 348.885803,835.659851 
	C460.715485,835.664185 572.545166,835.660034 684.374817,835.643250 
	C698.539917,835.641174 704.818970,829.367920 704.827393,815.259155 
	C704.853516,771.260620 704.873352,727.262024 704.867432,683.263489 
	C704.856384,600.099670 704.837036,516.935791 704.793030,433.771942 
	C704.784851,418.307159 700.086609,404.394196 689.204712,393.302612 
	C655.359558,358.805267 621.261047,324.556244 587.212341,290.259003 
	C582.324341,285.335327 577.169434,280.676636 572.243225,275.995300 
	C570.378845,277.119568 570.520020,278.531799 570.316589,279.811218 
	C567.842834,295.372742 563.603638,310.400177 556.063110,324.304413 
	C554.194580,327.749908 554.468689,330.139526 556.605225,333.343231 
	C563.598816,343.830139 566.779663,355.325684 564.270508,367.988129 
	C560.583923,386.592560 549.796387,399.389008 531.855103,405.219971 
	C514.072693,410.999359 497.774261,407.083923 484.249481,394.155334 
	C465.699554,376.423065 464.490662,348.754242 480.956512,329.063141 
	C482.699799,326.978424 484.466492,325.183868 483.296173,322.029053 
	C477.280853,305.813293 476.210632,288.919708 476.603271,271.831940 
	C476.639618,270.249847 477.202911,268.506958 475.574524,266.619690 
	C466.780121,270.073181 460.162506,276.535797 453.165283,283.664001 
M555.995422,274.714478 
	C556.383789,270.642426 558.805603,266.239319 553.052429,263.554596 
	C534.891113,255.079468 516.133850,252.998337 496.625275,257.653229 
	C493.923859,258.297821 492.441376,259.492676 492.078430,262.598907 
	C490.697845,274.414948 490.944519,286.207031 492.570953,297.925140 
	C493.424683,304.076355 494.315186,310.367126 497.202026,315.906616 
	C499.465454,316.227753 501.074921,315.189636 502.801361,314.680267 
	C514.604370,311.197906 526.246399,311.649780 537.294006,317.089539 
	C541.536133,319.178314 543.115662,317.900940 544.802979,314.262146 
	C550.519043,301.934998 554.096558,289.024933 555.995422,274.714478 
M536.055542,347.679321 
	C519.193298,357.862213 504.706604,353.985199 492.198761,339.916168 
	C480.913025,350.963776 482.457855,372.348389 495.063843,384.139282 
	C508.401947,396.614929 530.171936,395.434723 541.921875,381.598938 
	C551.688416,370.098694 552.438293,349.146729 543.273926,342.102295 
	C541.081543,343.822937 538.873779,345.555603 536.055542,347.679321 
M556.185425,232.245667 
	C554.403748,220.662384 551.856384,209.301361 544.791992,199.611908 
	C535.996826,187.548660 524.633179,187.096344 514.783203,198.385818 
	C507.455597,206.784332 502.623352,216.606796 499.280487,227.177826 
	C497.760956,231.982910 495.733002,236.692123 495.587616,242.423996 
	C516.905029,238.251556 537.221802,240.577484 557.766479,248.979370 
	C557.238647,242.928619 556.810364,238.019028 556.185425,232.245667 
M524.972107,328.352264 
	C518.063171,326.653168 511.311310,326.662720 504.726074,329.901001 
	C510.520447,340.850098 524.078491,341.541199 531.868530,331.519562 
	C530.308105,329.545013 527.835205,329.418579 524.972107,328.352264 
z"/>
<path fill="#000000" opacity="1.000000" stroke="none" 
	d="
M157.709000,93.713898 
	C152.051727,98.706367 145.814789,102.239388 139.653580,105.833862 
	C136.397934,107.733200 134.854919,110.052391 134.953018,113.848663 
	C135.054459,117.774422 134.898285,121.769043 132.251404,125.625618 
	C129.397049,123.260521 129.860809,120.312752 129.837006,117.691154 
	C129.702515,102.882767 129.589035,88.072388 129.708389,73.264618 
	C129.744308,68.809464 129.601044,65.157463 123.642540,65.823456 
	C123.167412,65.876564 122.613319,65.223221 122.097549,64.899200 
	C122.902985,63.031998 124.315056,63.202335 125.598724,63.425095 
	C140.281006,65.972992 155.098572,63.356827 169.814804,64.604881 
	C172.296936,64.815384 174.803650,64.722015 177.297440,64.812302 
	C181.012085,64.946777 182.358688,66.438316 179.874893,69.742653 
	C178.483841,71.593231 177.118591,73.627266 175.289169,74.955162 
	C168.303253,80.025879 163.536362,87.111450 157.709000,93.713898 
z"/>
<path fill="#000000" opacity="1.000000" stroke="none" 
	d="
M900.482239,82.195251 
	C899.800415,77.793587 899.886353,73.808258 900.154724,69.816505 
	C900.368103,66.642128 902.010986,64.890442 905.216675,64.871544 
	C911.701904,64.833305 918.189148,64.798996 924.672363,64.926247 
	C927.721313,64.986099 929.061340,66.369797 928.365295,69.791092 
	C926.173767,80.561882 916.406982,87.982086 905.498535,87.051987 
	C902.545837,86.800232 900.802368,85.669121 900.482239,82.195251 
z"/>
<path fill="#000000" opacity="1.000000" stroke="none" 
	d="
M592.000000,547.041992 
	C520.689392,547.058899 449.878815,547.078308 379.068237,547.082275 
	C377.075439,547.082397 375.015076,547.209595 373.103943,546.768005 
	C369.194763,545.864746 367.020111,543.144836 367.368958,539.148438 
	C367.693726,535.428040 370.015015,533.122559 373.879517,532.740967 
	C375.200958,532.610413 376.542938,532.672302 377.875519,532.672363 
	C470.512726,532.672729 563.149902,532.675781 655.787109,532.678711 
	C656.120300,532.678711 656.453552,532.678711 656.786743,532.680481 
	C663.757080,532.716553 667.263977,535.139587 667.203979,539.877625 
	C667.146912,544.383667 663.306824,546.993164 656.479797,547.004822 
	C635.153198,547.041260 613.826599,547.033264 592.000000,547.041992 
z"/>
<path fill="#000000" opacity="1.000000" stroke="none" 
	d="
M619.320801,569.678589 
	C622.115540,576.269714 619.654480,580.529968 613.066650,581.139221 
	C611.578247,581.276855 610.069702,581.213928 608.570435,581.213928 
	C531.759705,581.213623 454.948914,581.211121 378.138153,581.201477 
	C376.640625,581.201294 375.098236,581.328979 373.654205,581.026917 
	C369.790710,580.218750 367.350403,577.884155 367.429138,573.772522 
	C367.507812,569.664368 369.962219,567.416321 373.927856,566.814575 
	C375.070435,566.641174 376.255829,566.732666 377.421600,566.732605 
	C455.065613,566.728394 532.709656,566.729370 610.353638,566.717773 
	C613.548340,566.717285 616.749268,566.579285 619.320801,569.678589 
z"/>
<path fill="#000000" opacity="1.000000" stroke="none" 
	d="
M357.675110,793.000000 
	C357.667175,740.334045 357.648773,688.168152 357.666901,636.002197 
	C357.669617,628.178833 360.554016,625.303284 367.672302,625.733337 
	C373.421600,626.080688 376.225464,629.255310 376.240906,635.762451 
	C376.289154,656.095398 376.265839,676.428467 376.270782,696.761536 
	C376.279999,734.594238 376.303192,772.426880 376.287537,810.259583 
	C376.284424,817.778442 373.232178,820.640869 365.931152,820.205200 
	C360.807861,819.899475 357.936066,817.196472 357.769287,811.998169 
	C357.571625,805.837463 357.693237,799.666443 357.675110,793.000000 
z"/>
<path fill="#000000" opacity="1.000000" stroke="none" 
	d="
M501.271545,760.123901 
	C497.347260,763.647766 488.060913,764.573120 484.208374,762.120239 
	C481.382660,760.321045 480.547577,757.629028 480.571930,754.399780 
	C480.647339,744.405151 480.656525,734.409302 480.592865,724.414551 
	C480.420074,697.275452 480.192688,670.136597 480.000366,642.997620 
	C479.985046,640.833313 479.961761,638.659424 480.132965,636.505127 
	C480.666260,629.794067 482.894379,627.735535 489.566345,627.625305 
	C490.732208,627.606079 491.898590,627.597229 493.064575,627.605774 
	C500.181702,627.658020 502.998138,630.359680 503.052368,637.602051 
	C503.154694,651.261414 503.130615,664.921753 503.128265,678.581726 
	C503.124115,702.570068 503.098785,726.558411 503.076813,750.546753 
	C503.073914,753.710144 503.197174,756.900635 501.271545,760.123901 
z"/>
<path fill="#000000" opacity="1.000000" stroke="none" 
	d="
M679.171875,730.000000 
	C679.193298,754.809143 679.224548,779.118225 679.216003,803.427368 
	C679.215332,805.410828 679.231995,807.469849 678.735474,809.361084 
	C677.840210,812.771484 675.546265,814.794434 671.827087,814.615906 
	C668.375671,814.450256 666.247070,812.521606 665.605957,809.189270 
	C665.200378,807.080811 665.021423,804.897705 665.017822,802.747620 
	C664.924866,747.469421 664.859375,692.191223 664.816589,636.912964 
	C664.810913,629.593201 667.413513,625.728149 672.061340,625.846313 
	C676.745605,625.965454 679.146423,629.750000 679.149414,637.091675 
	C679.161865,667.894470 679.164856,698.697205 679.171875,730.000000 
z"/>
<path fill="#000000" opacity="1.000000" stroke="none" 
	d="
M525.259277,780.000000 
	C525.257141,788.330688 525.273865,796.161438 525.247131,803.992065 
	C525.224182,810.692688 522.932556,814.116455 518.407410,814.318909 
	C513.655457,814.531616 511.169525,811.199768 511.128174,803.961365 
	C511.015808,784.302185 510.997101,764.642212 510.999847,744.982605 
	C511.004761,709.994507 511.041656,675.006409 511.105103,640.018372 
	C511.109924,637.362915 511.298248,634.690796 511.637848,632.056946 
	C512.108276,628.408569 514.540222,626.297607 517.998840,626.115173 
	C521.562622,625.927185 523.950317,628.111267 524.759583,631.601501 
	C525.167236,633.359741 525.221252,635.228943 525.222351,637.048096 
	C525.251709,684.532043 525.253052,732.016052 525.259277,780.000000 
z"/>
<path fill="#000000" opacity="1.000000" stroke="none" 
	d="
M577.018433,663.000000 
	C577.096619,653.847107 576.927917,645.182861 577.328796,636.544983 
	C577.637451,629.895447 580.451599,627.619446 586.839050,627.739441 
	C592.910339,627.853455 595.397034,630.373779 595.405579,636.799377 
	C595.437927,661.100037 595.401672,685.400879 595.388855,709.701599 
	C595.381165,724.348633 595.399109,738.995850 595.346069,753.642700 
	C595.322266,760.203552 592.608154,763.131653 586.638855,763.287598 
	C580.298584,763.453186 577.480042,761.174683 577.348755,754.372498 
	C577.021301,737.401489 577.085388,720.422546 577.035156,703.446655 
	C576.995789,690.131165 577.020508,676.815552 577.018433,663.000000 
z"/>
<path fill="#000000" opacity="1.000000" stroke="none" 
	d="
M465.011169,504.955627 
	C502.644226,504.975922 539.779724,504.990051 576.915222,505.034149 
	C578.904053,505.036499 580.923706,505.117004 582.874939,505.464508 
	C586.872375,506.176453 589.102356,508.833130 589.061462,512.763062 
	C589.019226,516.821594 586.541260,519.136963 582.437073,519.478516 
	C580.117859,519.671448 577.784729,519.916809 575.465515,519.854065 
	C547.997253,519.110779 520.531921,519.945984 493.065430,519.953369 
	C481.075470,519.956604 469.085480,519.967468 457.095642,519.926941 
	C455.106476,519.920227 453.097931,519.799927 451.133820,519.499756 
	C447.335785,518.919434 445.027252,516.504578 444.941437,512.776978 
	C444.851379,508.864532 447.006317,506.265991 451.062775,505.464630 
	C455.528107,504.582458 460.029877,505.102386 465.011169,504.955627 
z"/>
<path fill="#000000" opacity="1.000000" stroke="none" 
	d="
M643.267212,670.000000 
	C643.233704,697.821594 643.201721,725.143188 643.164490,752.464783 
	C643.161316,754.795471 643.236694,757.138489 642.383789,759.375671 
	C641.115601,762.702332 638.796448,764.509644 635.144043,764.313049 
	C631.557617,764.119934 629.840088,761.776123 629.105835,758.635193 
	C628.733032,757.040771 628.788696,755.327332 628.788086,753.667603 
	C628.773254,715.350647 628.765747,677.033630 628.804871,638.716675 
	C628.807373,636.237610 628.944702,633.704895 629.464783,631.293213 
	C630.182434,627.965393 632.688354,626.125671 635.951538,626.070435 
	C639.228516,626.015076 641.696045,627.837769 642.605896,631.103577 
	C643.088074,632.834167 643.231750,634.705017 643.240723,636.513977 
	C643.295532,647.509094 643.267700,658.504639 643.267212,670.000000 
z"/>
<path fill="#000000" opacity="1.000000" stroke="none" 
	d="
M449.304779,745.988770 
	C449.277832,750.149597 449.421997,753.824402 449.176819,757.473083 
	C448.910278,761.439209 446.785980,764.043823 442.616272,764.294556 
	C438.399811,764.548157 436.103088,762.214600 435.478027,758.204041 
	C435.172089,756.241089 435.042542,754.231506 435.041870,752.242920 
	C435.029022,714.106506 435.040009,675.970154 435.079437,637.833740 
	C435.081512,635.847046 435.237671,633.835999 435.573181,631.879333 
	C436.189026,628.287903 438.540436,626.128845 442.077332,626.132263 
	C445.796234,626.135864 448.297607,628.347412 449.041199,632.095642 
	C449.328827,633.545654 449.234680,635.080505 449.235870,636.576843 
	C449.265167,672.881653 449.283783,709.186523 449.304779,745.988770 
z"/>
<path fill="#000000" opacity="1.000000" stroke="none" 
	d="
M617.898315,645.016968 
	C617.822998,667.654053 618.142212,689.791687 617.547852,711.935242 
	C617.195312,725.069519 617.778625,738.228882 617.939270,751.376953 
	C617.949402,752.209351 617.951660,753.042053 617.943237,753.874512 
	C617.872131,760.904602 615.466492,764.499573 610.831604,764.508301 
	C606.100098,764.517212 603.862244,761.133606 603.859192,753.911133 
	C603.843018,715.615540 603.826355,677.319885 603.836975,639.024292 
	C603.837585,636.701660 603.836365,634.336182 604.250122,632.066101 
	C604.924927,628.364258 607.277771,625.976990 611.130676,626.121155 
	C614.683960,626.253967 616.831299,628.515381 617.524048,632.064880 
	C618.330933,636.198792 617.746643,640.369446 617.898315,645.016968 
z"/>
<path fill="#000000" opacity="1.000000" stroke="none" 
	d="
M412.742188,739.999634 
	C412.729034,705.682983 412.712585,671.866150 412.703674,638.049377 
	C412.703186,636.218079 412.608917,634.367554 412.830536,632.559326 
	C413.319397,628.570740 415.585022,625.900024 419.677429,626.044861 
	C423.662842,626.185913 426.108063,628.776978 426.296417,632.843628 
	C426.612152,639.661499 426.829041,646.490295 426.841034,653.314941 
	C426.899536,686.615356 426.878204,719.915955 426.874603,753.216492 
	C426.874481,754.380310 426.827484,755.551514 426.693115,756.706604 
	C426.097687,761.824646 423.453552,764.571899 419.305817,764.441772 
	C415.260406,764.314819 412.909515,761.378296 412.791412,755.991455 
	C412.678192,750.829529 412.750000,745.663635 412.742188,739.999634 
z"/>
<path fill="#000000" opacity="1.000000" stroke="none" 
	d="
M398.283722,692.000000 
	C398.284668,712.972229 398.292725,733.444519 398.272644,753.916748 
	C398.270844,755.740662 398.334534,757.621155 397.933197,759.376038 
	C397.170502,762.711060 394.804565,764.442993 391.430176,764.486755 
	C387.993042,764.531372 385.819275,762.585388 384.877563,759.395264 
	C384.510864,758.152954 384.597900,756.757568 384.590027,755.431274 
	C384.411591,725.477966 384.190308,695.524780 384.115295,665.571228 
	C384.089905,655.424255 384.443115,645.276306 384.620056,635.128845 
	C384.720886,629.343689 386.942841,626.219360 391.041077,626.113037 
	C395.283417,626.003052 398.227570,629.546509 398.242615,635.076477 
	C398.293793,653.884216 398.275238,672.692139 398.283722,692.000000 
z"/>
<path fill="#000000" opacity="1.000000" stroke="none" 
	d="
M568.346802,754.798157 
	C568.301208,756.435486 568.364868,757.616394 568.192017,758.761658 
	C567.635437,762.448853 565.345764,764.301086 561.703979,764.412964 
	C557.995850,764.526794 555.726013,762.540710 554.934998,759.035645 
	C554.574890,757.439941 554.692017,755.723328 554.691284,754.061584 
	C554.674805,714.917969 554.671814,675.774414 554.666504,636.630798 
	C554.666382,635.964539 554.654541,635.297791 554.674011,634.632019 
	C554.832825,629.194519 557.495117,625.893066 561.624207,626.004028 
	C565.674438,626.112793 568.323547,629.498474 568.327454,634.895752 
	C568.356323,674.705627 568.345886,714.515564 568.346802,754.798157 
z"/>
<path fill="#000000" opacity="1.000000" stroke="none" 
	d="
M537.607056,764.357544 
	C533.268921,762.759277 532.572693,759.556030 532.576599,755.785706 
	C532.618591,715.508423 532.594543,675.231079 532.625671,634.953796 
	C532.630066,629.268555 535.076782,626.054443 539.151062,626.028015 
	C543.326782,626.000916 546.279297,629.615112 546.286194,635.111023 
	C546.330322,670.228943 546.325012,705.346802 546.332886,740.464722 
	C546.334045,745.790649 546.404968,751.118408 546.287842,756.441956 
	C546.160461,762.228210 543.925781,764.299316 537.607056,764.357544 
z"/>
<path fill="#000000" opacity="1.000000" stroke="none" 
	d="
M471.409332,704.000122 
	C471.395782,721.477600 471.362244,738.455078 471.383209,755.432556 
	C471.387299,758.735779 471.046661,761.811279 467.759888,763.587830 
	C463.657990,765.804871 458.774323,763.369324 457.892670,758.536072 
	C457.538239,756.592957 457.635498,754.555969 457.634155,752.561646 
	C457.608246,714.112610 457.597656,675.663574 457.587463,637.214539 
	C457.587128,635.883179 457.584351,634.549866 457.650238,633.220825 
	C457.862946,628.929932 460.084442,626.113342 464.384064,626.066772 
	C468.701019,626.019897 471.097839,628.883972 471.275360,633.096252 
	C471.506470,638.579712 471.368713,644.078979 471.373474,649.571472 
	C471.389069,667.547668 471.397308,685.523865 471.409332,704.000122 
z"/>
<path fill="#000000" opacity="1.000000" stroke="none" 
	d="
M659.159058,761.828430 
	C654.110596,765.723022 650.226196,764.410767 649.209045,758.780823 
	C648.857910,756.837219 648.931824,754.804077 648.931152,752.811829 
	C648.917542,714.378235 648.922424,675.944580 648.920410,637.510986 
	C648.920288,635.181091 648.839355,632.846497 649.602234,630.592285 
	C650.369751,628.324707 651.872620,626.931763 654.318054,626.796814 
	C656.990234,626.649414 658.877502,627.966431 659.625366,630.439697 
	C660.142334,632.148987 660.267700,634.029724 660.269226,635.834045 
	C660.302429,675.598755 660.297913,715.363403 660.281860,755.128113 
	C660.281006,757.271118 660.552856,759.476501 659.159058,761.828430 
z"/>
<path fill="#000000" opacity="1.000000" stroke="none" 
	d="
M391.637695,771.023560 
	C394.691498,770.152039 402.310242,773.265137 403.204742,775.420471 
	C404.214478,777.853333 403.464783,778.800537 398.285736,781.623108 
	C398.327179,781.911377 398.267792,782.384399 398.426819,782.475403 
	C402.553833,784.835449 405.953308,787.732117 404.986725,793.106262 
	C403.911987,799.081848 398.325958,800.073120 394.025696,802.286682 
	C392.154602,803.249695 382.944916,797.118286 382.372345,794.997498 
	C382.074860,793.895630 382.274841,793.002930 383.219299,792.381104 
	C384.516846,791.526794 385.868042,790.939819 387.365448,792.016479 
	C388.841553,793.077942 390.241577,794.304810 391.850189,795.108337 
	C394.115845,796.240112 396.071930,795.214294 397.655792,793.526733 
	C398.841553,792.263306 398.816040,790.774536 397.829041,789.407593 
	C396.516754,787.590210 394.666016,787.024109 392.528748,787.585327 
	C391.405731,787.880127 390.353851,788.441162 389.234131,788.754272 
	C385.927582,789.678711 384.160706,788.435181 383.806763,784.966675 
	C383.141357,778.446228 385.174408,774.690796 391.637695,771.023560 
M389.799713,781.238770 
	C390.424866,783.357300 391.857819,782.300842 393.028656,782.010193 
	C394.511078,781.642151 395.992462,781.106628 396.298309,779.350586 
	C396.452911,778.462769 395.905243,777.728088 395.010681,777.467041 
	C393.285187,776.963501 391.673615,777.096619 390.593292,778.754822 
	C390.239655,779.297729 390.113800,779.988953 389.799713,781.238770 
z"/>
<path fill="#000000" opacity="1.000000" stroke="none" 
	d="
M622.244080,800.761414 
	C617.059692,801.883179 612.874817,800.841370 609.747986,796.926208 
	C608.627625,795.523376 607.480286,793.659973 609.300659,792.045837 
	C611.161133,790.396362 612.693176,791.127808 614.347473,792.957214 
	C617.614990,796.570679 621.723938,796.358459 623.259399,792.766846 
	C624.049438,790.918701 623.729248,789.126770 622.265198,787.706421 
	C620.473450,785.968140 618.385010,785.966309 616.265625,787.037476 
	C614.268555,788.046753 612.445007,790.288757 609.981079,788.344299 
	C607.746765,786.580933 608.765503,783.992554 608.982178,781.786438 
	C609.954773,771.883728 610.013916,771.887146 620.203308,771.925232 
	C621.869385,771.931458 623.537720,771.921875 625.200684,772.005005 
	C627.008301,772.095337 628.579285,772.589478 628.423157,774.875854 
	C628.290222,776.823059 626.881287,777.268188 625.260376,777.317749 
	C623.095520,777.384033 620.927551,777.359253 618.763550,777.442505 
	C616.720276,777.521179 615.065735,778.045166 615.778381,781.022888 
	C619.645020,780.951843 623.720825,780.467285 626.924561,783.508606 
	C628.689636,785.184204 629.725769,787.261902 630.096191,789.608154 
	C630.823059,794.210938 628.047058,798.226624 622.244080,800.761414 
z"/>
<path fill="#000000" opacity="1.000000" stroke="none" 
	d="
M655.564941,780.948730 
	C656.586670,785.654785 656.734314,789.941895 655.059998,794.098572 
	C653.187988,798.746033 648.645081,801.568115 643.598755,801.224731 
	C638.503052,800.877808 635.358887,797.962891 633.861755,793.255920 
	C632.636902,789.404846 632.322571,785.519531 633.434753,781.484314 
	C635.188293,775.122314 638.389343,771.922546 643.746338,771.738342 
	C649.519470,771.539795 653.138184,774.265869 655.564941,780.948730 
M648.171082,793.397766 
	C650.649292,789.776733 650.173767,785.727295 649.382080,781.863403 
	C648.575378,777.926819 644.581665,776.337219 641.826111,778.429871 
	C638.015381,781.323792 638.385193,791.997009 642.342834,794.668945 
	C644.394592,796.054260 646.076599,795.457947 648.171082,793.397766 
z"/>
<path fill="#000000" opacity="1.000000" stroke="none" 
	d="
M558.742310,786.937378 
	C558.971313,784.859314 559.090027,783.191589 559.458496,781.580994 
	C560.926331,775.165344 565.161377,771.544678 570.820190,771.760986 
	C576.959900,771.995728 581.563660,776.390076 582.170044,782.933105 
	C582.475464,786.229065 582.627380,789.580994 581.602539,792.845642 
	C579.840576,798.458740 576.278870,801.226257 570.654236,801.273682 
	C565.495728,801.317200 561.614502,798.505066 559.900330,793.229736 
	C559.289917,791.351196 559.118591,789.330017 558.742310,786.937378 
M567.865234,778.503418 
	C564.242615,782.844543 564.552307,787.633118 566.458008,792.485535 
	C567.149170,794.245544 568.665161,795.493835 570.664307,795.498779 
	C572.611694,795.503540 574.330139,794.497803 575.007324,792.692200 
	C576.564697,788.539673 576.755493,784.211243 574.747498,780.191589 
	C573.530396,777.755249 571.262817,776.704895 567.865234,778.503418 
z"/>
<path fill="#000000" opacity="1.000000" stroke="none" 
	d="
M545.040710,771.892822 
	C547.340759,771.930420 549.173889,771.902344 550.998474,772.013794 
	C552.579895,772.110413 554.070251,772.579712 554.098633,774.528198 
	C554.126465,776.434692 552.756042,777.073242 551.123474,777.178223 
	C549.132751,777.306274 547.133484,777.293640 545.139832,777.384949 
	C543.133240,777.476746 541.505615,778.021362 541.698547,780.451538 
	C542.514038,781.699097 543.539673,781.032959 544.467590,780.964478 
	C551.013550,780.481323 555.879517,784.333801 556.256836,790.304138 
	C556.614197,795.958313 551.816284,800.934265 545.610352,801.201721 
	C541.348267,801.385559 537.733154,799.970459 535.364441,796.238159 
	C534.447327,794.793091 533.828979,793.123657 535.661804,791.830872 
	C537.292542,790.680725 538.767700,790.975281 539.993835,792.586243 
	C540.493774,793.243042 541.016479,793.926270 541.664734,794.418457 
	C543.767517,796.014648 545.961731,796.171143 548.033081,794.382935 
	C549.923218,792.751160 550.233704,790.615234 549.122009,788.508301 
	C547.791565,785.987000 545.427917,785.898560 543.039734,786.701416 
	C540.571960,787.531006 538.361816,791.076355 535.569641,788.151184 
	C533.503296,785.986450 535.364685,783.052368 535.607666,780.486572 
	C536.425842,771.847412 536.475647,771.852112 545.040710,771.892822 
z"/>
<path fill="#000000" opacity="1.000000" stroke="none" 
	d="
M428.566284,796.387451 
	C425.337036,800.397766 421.458435,801.899170 416.837769,800.799805 
	C411.963837,799.640076 409.191101,796.125793 408.186920,791.448669 
	C407.242432,787.049500 407.045898,782.539185 409.113831,778.284485 
	C411.285767,773.815796 414.779785,771.368896 419.846680,771.748657 
	C424.737305,772.115112 428.374390,774.455200 430.006134,779.242126 
	C431.966217,784.992371 431.909180,790.658752 428.566284,796.387451 
M414.264923,783.124329 
	C414.295685,785.452759 414.157776,787.799011 414.401459,790.104919 
	C414.683960,792.778564 416.027740,795.134583 418.863678,795.406128 
	C422.052948,795.711487 423.691742,793.247253 424.296448,790.533325 
	C424.793396,788.303345 424.798401,785.882812 424.568573,783.592163 
	C424.274811,780.664673 423.213898,777.839539 419.758423,777.468811 
	C416.431122,777.111938 415.196381,779.602112 414.264923,783.124329 
z"/>
<path fill="#000000" opacity="1.000000" stroke="none" 
	d="
M458.267273,776.474365 
	C461.480560,772.354126 465.351898,770.970154 470.013855,772.200073 
	C474.869659,773.481201 477.394012,776.918823 478.557312,781.670654 
	C479.541412,785.690430 479.438141,789.631775 478.071472,793.475952 
	C476.406403,798.159546 472.968903,800.892212 467.988922,801.156921 
	C463.002655,801.421997 459.156647,799.100403 457.219421,794.542542 
	C454.693390,788.599365 454.699066,782.563660 458.267273,776.474365 
M467.497925,795.560791 
	C473.193970,793.158325 474.897034,782.356689 470.153168,778.575867 
	C467.964294,776.831360 465.875916,777.133911 464.002319,779.133240 
	C460.346649,783.034058 461.978760,792.637268 467.497925,795.560791 
z"/>
<path fill="#000000" opacity="1.000000" stroke="none" 
	d="
M494.692200,801.088257 
	C487.452667,800.725952 483.941986,798.098633 482.163849,792.071960 
	C480.134064,785.192261 482.182526,776.942871 486.717316,773.734375 
	C492.307404,769.779297 500.421387,771.825684 503.198639,778.084290 
	C507.248993,787.211853 504.761780,799.469177 494.692200,801.088257 
M488.283691,781.924683 
	C487.158325,785.195068 487.421936,788.439148 488.587860,791.621216 
	C489.374725,793.768799 490.794647,795.428833 493.229340,795.496887 
	C495.503662,795.560547 496.749329,793.901978 497.629791,792.046204 
	C499.036987,789.080200 499.025238,785.954346 498.300232,782.840332 
	C497.714081,780.322876 496.549469,778.043823 493.731232,777.550354 
	C490.956543,777.064575 489.597229,779.062988 488.283691,781.924683 
z"/>
<path fill="#000000" opacity="1.000000" stroke="none" 
	d="
M594.084656,800.122803 
	C588.452393,801.110474 587.990173,800.582825 589.475952,795.783508 
	C591.290222,789.923096 594.667053,784.736206 597.147400,778.790710 
	C594.052673,777.586609 591.219482,778.137207 588.495117,777.859619 
	C586.687195,777.675476 584.632874,777.755920 584.587036,775.099670 
	C584.537720,772.240295 586.606628,771.999451 588.688232,771.972900 
	C592.843445,771.919922 597.003906,771.842834 601.154480,771.991638 
	C605.446655,772.145447 606.734436,773.951477 604.582764,777.771851 
	C600.573853,784.890137 597.733032,792.500671 594.084656,800.122803 
z"/>
<path fill="#000000" opacity="1.000000" stroke="none" 
	d="
M448.304840,796.594666 
	C448.335144,799.179504 447.576050,800.601868 445.174469,800.575806 
	C442.642456,800.548340 442.209808,798.697449 442.174591,796.817749 
	C442.079010,791.718994 442.141785,786.617310 442.141785,781.127258 
	C439.812134,781.581177 438.401093,781.856079 436.850739,782.158142 
	C435.187836,780.091858 435.603058,778.439758 437.401001,776.965088 
	C438.426544,776.124023 439.546112,775.398682 440.593048,774.582336 
	C442.450226,773.134094 444.363403,771.460510 446.851654,772.785828 
	C449.057281,773.960693 448.212097,776.331848 448.246735,778.211243 
	C448.356781,784.186096 448.303040,790.164001 448.304840,796.594666 
z"/>
</svg>