<?xml version="1.0" standalone="no"?>
<!DOCTYPE svg PUBLIC "-//W3C//DTD SVG 20010904//EN"
 "http://www.w3.org/TR/2001/REC-SVG-20010904/DTD/svg10.dtd">
<svg version="1.0" xmlns="http://www.w3.org/2000/svg"
 width="600.000000pt" height="600.000000pt" viewBox="0 0 600.000000 600.000000"
 preserveAspectRatio="xMidYMid meet">

<g transform="translate(0.000000,600.000000) scale(0.100000,-0.100000)"
fill="#000000" stroke="none">
<path d="M851 3226 c-81 -27 -121 -83 -121 -171 0 -93 25 -125 173 -214 101
-61 121 -82 121 -127 0 -43 -23 -67 -64 -67 -42 0 -61 22 -67 77 l-6 46 -83 0
-84 0 0 -27 c1 -136 86 -213 235 -213 172 0 266 112 224 265 -14 52 -65 99
-168 159 -45 26 -91 56 -102 67 -40 40 -13 109 43 109 33 0 58 -29 58 -68 l0
-32 81 0 81 0 -4 55 c-6 66 -29 102 -84 130 -50 25 -171 31 -233 11z"/>
<path d="M2980 3230 c-90 -19 -140 -81 -140 -172 0 -93 28 -131 157 -210 106
-65 133 -92 133 -133 0 -39 -26 -65 -67 -65 -41 0 -63 27 -63 78 l0 42 -86 0
-87 0 7 -56 c15 -126 80 -177 229 -176 132 0 207 54 222 160 9 69 -8 129 -48
169 -18 19 -76 60 -127 91 -110 67 -133 97 -110 140 33 57 120 30 120 -38 l0
-30 75 0 75 0 0 43 c0 95 -63 152 -180 161 -36 3 -85 1 -110 -4z"/>
<path d="M4960 3233 c-81 -13 -137 -57 -159 -122 -7 -21 -11 -109 -11 -225 0
-203 9 -246 56 -288 62 -55 219 -69 302 -26 83 43 101 89 102 256 l0 103 -112
-3 -113 -3 -3 -42 c-3 -41 -2 -42 30 -45 32 -3 33 -5 36 -52 4 -59 -3 -89 -24
-110 -22 -22 -70 -20 -94 4 -19 19 -20 33 -20 210 0 177 1 191 20 210 25 25
72 26 93 3 8 -10 17 -34 19 -53 l3 -35 78 -3 77 -3 0 51 c0 28 -7 64 -15 80
-38 73 -149 112 -265 93z"/>
<path d="M1410 3199 c0 -12 -25 -156 -55 -321 -30 -164 -55 -303 -55 -308 0
-6 37 -10 84 -10 l84 0 16 108 c8 59 27 192 41 297 15 104 28 191 30 193 6 7
12 -28 50 -293 20 -137 38 -262 41 -277 6 -28 6 -28 85 -28 69 0 79 2 79 18 0
20 -49 308 -87 505 l-26 137 -143 0 c-140 0 -144 -1 -144 -21z"/>
<path d="M1969 3168 c-1 -29 -4 -178 -8 -331 l-6 -277 78 0 77 0 0 290 c0 272
8 354 25 243 7 -54 70 -400 86 -480 l10 -53 79 0 79 0 7 38 c29 171 104 555
108 560 3 3 6 -130 6 -296 l0 -302 78 0 78 0 -3 278 c-2 152 -6 301 -9 330
l-5 52 -127 0 -127 0 -39 -243 c-21 -133 -42 -248 -46 -255 -5 -11 -52 264
-76 451 l-7 47 -128 0 -129 0 -1 -52z"/>
<path d="M3447 3188 c-3 -18 -4 -144 -2 -280 4 -259 7 -280 53 -321 33 -30 92
-46 170 -47 95 0 162 27 194 79 22 35 23 45 26 319 l3 282 -80 0 -81 0 0 -269
c0 -287 1 -283 -52 -296 -21 -5 -33 -1 -52 19 l-26 25 0 261 0 260 -74 0 -74
0 -5 -32z"/>
<path d="M4080 2895 l0 -325 76 0 75 0 -3 269 c-2 148 -1 267 2 264 3 -2 39
-122 81 -266 l76 -262 116 -3 117 -3 0 326 0 325 -80 0 -79 0 5 -262 c3 -170
2 -258 -4 -248 -6 8 -33 98 -61 200 -28 102 -59 212 -69 245 l-18 60 -117 3
-117 3 0 -326z"/>
</g>
</svg>
