<svg version="1.1" id="Layer_1" xmlns="http://www.w3.org/2000/svg" xmlns:xlink="http://www.w3.org/1999/xlink" x="0px" y="0px"
	 width="100%" viewBox="0 0 1024 1024" enable-background="new 0 0 1024 1024" xml:space="preserve">
<path fill="#000000" opacity="1.000000" stroke="none" 
	d="
M719.373352,633.000122 
	C719.379883,690.663025 719.434082,747.825989 719.374634,804.988831 
	C719.338562,839.723755 696.305786,868.287964 662.411011,875.829590 
	C658.182190,876.770447 653.892517,877.255798 649.528748,877.254028 
	C559.034729,877.217285 468.540710,877.252197 378.046722,877.193359 
	C340.181091,877.168762 309.456207,848.570984 306.645020,810.769470 
	C305.185211,791.139404 306.025818,771.463013 306.007141,751.811096 
	C305.912659,652.318054 305.986481,552.824768 306.047516,453.331635 
	C306.050140,449.048431 306.124695,445.346497 301.119812,443.145111 
	C297.756226,441.665649 296.984558,437.584808 296.934845,434.017029 
	C296.793121,423.853180 296.785889,413.685120 296.910980,403.520966 
	C296.967682,398.915344 298.585022,394.959900 303.312836,393.180145 
	C305.437042,392.380493 305.890259,390.876221 305.882660,388.879730 
	C305.854126,381.380463 305.847504,373.880676 305.903748,366.381653 
	C305.920563,364.138611 305.192902,362.763489 302.954559,361.813141 
	C298.468445,359.908508 296.680023,356.150299 296.687378,351.379364 
	C296.714447,333.880585 296.678070,316.381622 296.729614,298.882965 
	C296.743408,294.192078 298.380524,290.332123 303.225281,288.738159 
	C305.439240,288.009735 305.852936,286.469635 305.851685,284.497406 
	C305.847900,278.664551 305.828491,272.831268 305.897644,266.999115 
	C305.924194,264.762207 305.160889,263.242828 303.039459,262.257843 
	C298.545380,260.171173 297.008484,256.152771 296.941956,251.598129 
	C296.810608,242.601196 296.846741,233.599136 296.988586,224.601974 
	C297.063538,219.847748 298.506470,215.661270 303.473053,213.782166 
	C306.545074,212.619858 305.672028,210.016922 305.769562,207.830383 
	C306.369446,194.384659 308.571594,181.361588 315.461609,169.507980 
	C329.502411,145.352341 350.908691,133.029327 378.419769,132.889999 
	C460.912231,132.472244 543.408203,132.693817 625.902649,132.787766 
	C638.526672,132.802139 651.212708,131.735046 663.741211,134.568726 
	C695.936646,141.850632 719.197632,170.429565 719.317078,203.356186 
	C719.445862,238.853409 719.402161,274.351471 719.313599,309.848877 
	C719.304199,313.619843 719.642212,316.416901 723.771851,318.133179 
	C727.862915,319.833435 729.157043,323.919739 729.172852,328.117645 
	C729.247681,347.949280 729.216003,367.781342 729.204712,387.613251 
	C729.202271,391.940643 727.583374,395.673187 723.655884,397.538025 
	C719.979492,399.283661 719.318115,401.835510 719.322083,405.517426 
	C719.397888,475.679382 719.367493,545.841492 719.360291,616.003540 
	C719.359741,621.502380 719.368652,627.001221 719.373352,633.000122 
M700.796570,815.306885 
	C702.002747,811.237976 701.746033,807.052063 701.747498,802.894775 
	C701.773499,731.231812 701.793213,659.568848 701.799194,587.905884 
	C701.809753,460.745850 701.841675,333.585785 701.792664,206.425751 
	C701.780273,174.260101 677.915222,150.378586 645.908203,150.364273 
	C557.412781,150.324646 468.917358,150.349701 380.421936,150.347046 
	C368.432953,150.346695 357.268738,153.326813 347.510284,160.361969 
	C331.138031,172.165222 324.004333,188.340057 324.026245,208.520798 
	C324.169312,340.346649 324.015961,472.172791 324.007263,603.998840 
	C324.002899,670.661865 324.166595,737.324951 324.086609,803.987854 
	C324.072083,816.095520 327.209839,827.018982 334.246399,836.783447 
	C346.062073,853.179810 362.649139,859.608826 382.319122,859.578186 
	C471.475769,859.439270 560.633850,860.073853 649.788513,859.062256 
	C653.098511,859.024780 656.505310,858.831543 659.692078,858.022217 
	C681.815369,852.403809 695.258545,838.168518 700.796570,815.306885 
z"/>
<path fill="#000000" opacity="1.000000" stroke="none" 
	d="
M338.767334,692.000000 
	C338.754181,549.167053 338.741028,406.834137 338.728027,264.501221 
	C338.727905,263.167877 338.722137,261.834503 338.732544,260.501221 
	C338.839417,246.806091 346.778656,238.818680 360.601196,238.797134 
	C394.267670,238.744644 427.934265,238.800644 461.600830,238.804184 
	C528.767151,238.811218 595.933533,238.806046 663.099854,238.820374 
	C679.894348,238.823959 687.210876,246.149963 687.210999,262.836243 
	C687.212158,420.335724 687.210938,577.835205 687.247986,735.334656 
	C687.249329,741.119690 686.673950,746.725159 683.150391,751.502747 
	C678.429504,757.903809 671.893494,760.299561 664.004150,760.292114 
	C580.171082,760.212646 496.337982,760.246277 412.504883,760.248047 
	C395.504913,760.248413 378.504852,760.286865 361.505035,760.231750 
	C347.164032,760.185181 338.811432,751.823181 338.768921,737.499695 
	C338.724426,722.499939 338.764313,707.499939 338.767334,692.000000 
M623.499939,742.664001 
	C636.329895,742.665100 649.159912,742.675964 661.989868,742.663147 
	C668.526001,742.656616 669.336975,741.878174 669.358459,735.111572 
	C669.405090,720.461365 669.335815,705.813293 669.474976,691.160339 
	C669.830933,653.679932 669.633606,616.193665 669.555481,578.709961 
	C669.509705,556.716980 669.137207,534.724365 669.148132,512.731689 
	C669.162537,483.764404 669.460815,454.802429 669.207947,425.829102 
	C668.738037,372.006256 669.095032,318.176208 669.087830,264.349182 
	C669.086792,256.977875 668.586060,256.411896 662.205566,256.410461 
	C562.716248,256.388428 463.226990,256.376495 363.737701,256.376923 
	C357.099579,256.376953 356.368195,257.148132 356.367554,263.944946 
	C356.353149,420.761353 356.344574,577.577759 356.345184,734.394165 
	C356.345215,742.214661 356.778564,742.638428 364.527710,742.639648 
	C450.518433,742.653076 536.509155,742.656311 623.499939,742.664001 
z"/>
<path fill="#000000" opacity="1.000000" stroke="none" 
	d="
M541.243286,794.953003 
	C547.892334,808.404846 546.226257,820.880188 536.532532,831.796326 
	C528.232788,841.142639 514.766724,844.548401 502.811951,840.324951 
	C490.047821,835.815430 481.502350,824.431458 480.787598,810.984680 
	C480.052277,797.150696 489.958557,783.383545 503.619293,779.254456 
	C518.460754,774.768555 532.643738,780.584717 541.243286,794.953003 
M499.925903,815.257263 
	C500.355774,816.155762 500.691986,817.115112 501.230377,817.943054 
	C505.348602,824.275391 513.333862,826.161499 520.074768,822.432922 
	C526.538513,818.857605 529.036682,810.768433 525.809998,803.862061 
	C522.737915,797.286499 514.972534,794.075745 508.193756,796.578125 
	C500.961761,799.247803 498.137085,805.154785 499.925903,815.257263 
z"/>
<path fill="#000000" opacity="1.000000" stroke="none" 
	d="
M541.000000,208.301025 
	C515.840637,208.300034 491.181183,208.285339 466.521851,208.314117 
	C463.450836,208.317703 460.496613,208.124451 458.174011,205.796036 
	C455.546753,203.162231 454.975250,199.958878 456.147247,196.571564 
	C457.495605,192.674606 460.503082,190.758316 464.576965,190.727112 
	C473.407104,190.659470 482.238007,190.687561 491.068604,190.687302 
	C513.228760,190.686676 535.388855,190.691299 557.549011,190.696777 
	C559.048401,190.697144 560.554749,190.634750 562.046021,190.751740 
	C567.292480,191.163300 570.962463,194.947830 570.884644,199.784500 
	C570.812988,204.240891 567.040710,208.050537 561.992065,208.210831 
	C555.167297,208.427490 548.331238,208.287567 541.000000,208.301025 
z"/>
</svg>