<svg version="1.1" id="Layer_1" xmlns="http://www.w3.org/2000/svg" xmlns:xlink="http://www.w3.org/1999/xlink" x="0px" y="0px"
	 width="100%" viewBox="0 0 1024 1024" enable-background="new 0 0 1024 1024" xml:space="preserve">
<path fill="#000000" opacity="1.000000" stroke="none" 
	d="
M357.579834,611.984680 
	C357.425446,584.009033 356.971558,556.528015 357.198242,529.052734 
	C357.467407,496.427551 357.140015,463.807526 357.135223,431.185303 
	C357.129517,392.385956 358.415985,353.557281 357.256836,314.797699 
	C356.511719,289.881500 375.226349,266.646912 405.235657,266.944153 
	C446.227173,267.350159 487.225708,267.050873 528.221252,267.047485 
	C559.551331,267.044891 590.881592,266.957581 622.211365,267.050934 
	C642.538879,267.111511 658.935974,277.854858 665.931458,295.384338 
	C668.251404,301.197845 668.981995,307.296997 668.981567,313.498474 
	C668.975891,394.819855 668.945129,476.141205 668.945007,557.462585 
	C668.944946,609.288452 669.071411,661.114502 668.966980,712.940125 
	C668.922058,735.238892 655.451172,752.550903 634.679993,757.640564 
	C630.460388,758.674500 626.130615,758.997925 621.797058,758.999451 
	C549.639709,759.025452 477.482361,759.050659 405.325012,759.027161 
	C385.254822,759.020630 369.913208,750.950562 360.977325,732.379456 
	C358.407471,727.038635 357.493561,721.303284 357.476135,715.401245 
	C357.394592,687.754028 357.926605,660.105591 357.147125,632.458679 
	C356.959625,625.809143 357.419434,619.141296 357.579834,611.984680 
M586.499878,331.327393 
	C517.361206,331.319458 448.222504,331.312408 379.083801,331.302124 
	C372.330566,331.301147 372.315887,331.291992 372.316162,338.239777 
	C372.318878,405.714691 372.318756,473.189636 372.336395,540.664551 
	C372.347046,581.482666 372.439178,622.300903 372.338654,663.118713 
	C372.328033,667.429321 373.538879,668.933350 378.017120,668.812439 
	C389.171204,668.511414 400.339081,668.723450 411.501434,668.728210 
	C489.971527,668.761475 568.441589,668.800659 646.911682,668.816650 
	C653.659241,668.817993 653.685425,668.746155 653.685547,662.344482 
	C653.686829,554.051270 653.651611,445.758026 653.772644,337.464966 
	C653.778137,332.563477 652.179321,331.229187 647.473450,331.275391 
	C627.483948,331.471741 607.491333,331.340576 586.499878,331.327393 
M457.500000,684.285034 
	C430.850555,684.279480 404.200867,684.330994 377.552002,684.203979 
	C373.753601,684.185852 372.137939,685.200989 372.284271,689.264343 
	C372.547821,696.583374 372.332336,703.918884 372.363922,711.247314 
	C372.451691,731.622192 384.382446,743.660645 404.618317,743.668457 
	C477.404083,743.696594 550.189819,743.693176 622.975586,743.681824 
	C638.279297,743.679443 649.436707,734.956970 652.756104,720.032593 
	C654.872803,710.516052 653.363464,700.785461 653.640015,691.156006 
	C653.837097,684.294128 653.666748,684.278015 646.877808,684.278076 
	C584.085205,684.278564 521.292603,684.283264 457.500000,684.285034 
M396.338043,316.573792 
	C404.324921,315.759979 412.309601,316.656464 420.296417,316.611450 
	C454.752899,316.417389 489.209534,316.217438 523.666443,316.136902 
	C564.826965,316.040680 605.987793,316.070190 647.148499,316.029358 
	C653.713623,316.022858 654.269714,315.355957 653.577148,308.770569 
	C651.979187,293.575134 639.536377,282.331146 624.064636,282.320038 
	C570.070984,282.281250 516.077393,282.305756 462.083771,282.308899 
	C441.586243,282.310089 421.087555,282.187592 400.591492,282.364441 
	C383.622162,282.510864 369.508331,299.753235 373.120697,315.860596 
	C380.476837,316.879669 387.953613,316.467529 396.338043,316.573792 
z"/>
<path fill="#000000" opacity="1.000000" stroke="none" 
	d="
M427.755371,606.755615 
	C424.469757,610.097046 421.534973,613.297852 418.359985,616.239380 
	C414.479706,619.834351 410.376709,619.852356 407.316681,616.577515 
	C404.107574,613.143127 404.187347,609.335510 407.927521,605.518677 
	C416.441254,596.830322 425.086609,588.271057 433.660919,579.641846 
	C434.779572,578.516052 435.794739,577.287476 437.724243,575.144043 
	C432.226532,575.144043 427.961273,575.177002 423.696899,575.130859 
	C421.370697,575.105774 418.997253,575.209961 416.731140,574.790710 
	C412.594696,574.025574 410.217194,571.372070 410.410950,567.086426 
	C410.594574,563.024414 413.229706,560.216980 417.024811,560.138000 
	C430.342224,559.860657 443.676331,559.883972 456.991272,560.254578 
	C461.761078,560.387390 463.883911,564.261841 463.910278,568.643738 
	C463.987396,581.467590 464.491913,594.309143 463.372406,607.111755 
	C462.979340,611.607300 459.834930,614.344910 455.841675,614.173828 
	C451.968201,614.007874 448.905273,610.923035 448.781708,606.533081 
	C448.604675,600.245300 448.736572,593.948730 448.736572,585.961914 
	C441.097748,593.527466 434.548706,600.013672 427.755371,606.755615 
z"/>
<path fill="#000000" opacity="1.000000" stroke="none" 
	d="
M586.668213,595.332153 
	C583.832947,592.569458 581.249329,590.055176 578.665649,587.540833 
	C578.204956,587.690247 577.744324,587.839600 577.283630,587.988953 
	C577.283630,594.044250 577.313477,600.099731 577.272583,606.154785 
	C577.247253,609.904663 575.437866,612.441711 571.854675,613.659912 
	C568.564392,614.778442 566.010803,613.526917 563.857849,611.115784 
	C562.439575,609.527466 562.092468,607.499451 562.111816,605.511108 
	C562.236145,592.714661 562.379395,579.917297 562.679443,567.124146 
	C562.790100,562.404297 566.079529,560.193542 570.259705,560.100647 
	C582.898254,559.819458 595.546936,559.781616 608.188049,559.938232 
	C612.729187,559.994385 615.241516,562.986572 615.332397,567.291138 
	C615.432190,572.022705 613.123230,574.780579 608.116638,575.004333 
	C601.987305,575.278259 595.836304,575.069580 589.271790,575.069580 
	C589.790649,577.551025 591.362976,578.601685 592.560486,579.814575 
	C600.859741,588.220520 609.238708,596.547852 617.541382,604.950439 
	C621.542297,608.999451 621.990784,613.058289 618.976624,616.408752 
	C615.975220,619.745056 611.120972,619.614441 607.052063,615.678894 
	C600.237061,609.087219 593.620117,602.290710 586.668213,595.332153 
z"/>
<path fill="#000000" opacity="1.000000" stroke="none" 
	d="
M591.999512,448.294861 
	C584.844421,448.293579 578.188599,448.347046 571.534119,448.274872 
	C565.427979,448.208679 562.227478,445.668915 562.102173,439.751526 
	C561.835022,427.124512 561.816040,414.483795 562.587219,401.861847 
	C562.857422,397.438599 565.427917,395.202362 569.617126,394.947998 
	C573.746948,394.697235 577.096985,397.984131 577.237671,402.495544 
	C577.423828,408.466553 577.283508,414.447693 577.283508,420.345886 
	C579.347107,421.157104 579.939331,419.565155 580.768250,418.764313 
	C589.741028,410.094543 598.678772,401.388092 607.574036,392.638702 
	C610.520569,389.740479 613.690247,388.638672 617.420715,390.972656 
	C621.785889,393.703827 622.141357,398.630035 618.034973,402.826111 
	C610.006165,411.030243 601.846313,419.107117 593.674927,427.170013 
	C592.152832,428.671906 590.322449,429.861450 587.731934,431.908020 
	C593.397217,433.692139 597.510803,432.752441 601.522644,433.023438 
	C604.009216,433.191406 606.526733,433.055939 608.990601,433.369385 
	C613.399109,433.930237 616.070251,437.002716 615.946960,441.033264 
	C615.827820,444.927155 612.731323,448.098846 608.470337,448.240570 
	C603.151978,448.417480 597.823486,448.290588 591.999512,448.294861 
z"/>
<path fill="#000000" opacity="1.000000" stroke="none" 
	d="
M448.704712,409.054657 
	C448.800018,406.080780 448.539062,403.508698 449.072906,401.113708 
	C449.977417,397.055542 452.794983,394.649872 457.028900,395.110474 
	C460.918823,395.533691 463.385193,397.892975 463.383606,402.129669 
	C463.378754,415.119415 463.480743,428.111206 463.269470,441.097809 
	C463.194885,445.681549 459.914978,448.091217 455.684570,448.166138 
	C443.026520,448.390411 430.359558,448.373718 417.700867,448.163849 
	C413.162720,448.088654 410.621277,445.023102 410.615326,440.750702 
	C410.609192,436.383667 413.001129,433.801025 417.820526,433.631500 
	C423.749390,433.422943 429.691193,433.581757 435.612122,433.581757 
	C435.863342,429.928467 433.883575,428.885132 432.572266,427.554352 
	C424.270569,419.129089 415.835175,410.835266 407.561707,402.382782 
	C404.465881,399.219940 404.125549,395.444336 407.044556,392.035065 
	C409.496429,389.171387 412.829010,388.888672 416.117523,390.720398 
	C417.399689,391.434570 418.489502,392.544800 419.555206,393.588684 
	C427.647064,401.514984 435.696075,409.485107 443.799896,417.399078 
	C445.066071,418.635590 446.030060,420.297424 448.705872,421.021576 
	C448.705872,417.033356 448.705872,413.284698 448.704712,409.054657 
z"/>
<path fill="#000000" opacity="1.000000" stroke="none" 
	d="
M501.904297,737.366272 
	C483.975250,726.165710 483.694366,703.532166 501.021606,693.688293 
	C510.558258,688.270386 522.989990,690.147034 530.777100,698.179993 
	C538.347656,705.989563 539.917358,719.181152 534.341614,728.136719 
	C528.120911,738.128174 516.753723,742.509277 505.924133,739.052063 
	C504.665070,738.650085 503.471161,738.043945 501.904297,737.366272 
M509.801117,706.242859 
	C503.932007,709.620544 501.931213,714.308838 504.246948,719.257263 
	C506.374451,723.803467 511.573059,725.890381 516.412842,724.140991 
	C521.104248,722.445374 523.596802,717.751282 522.343445,712.972168 
	C520.961060,707.700989 516.311462,704.959473 509.801117,706.242859 
z"/>
<path fill="#000000" opacity="1.000000" stroke="none" 
	d="
M552.711548,307.282196 
	C526.785095,307.289917 501.325439,307.296906 475.865784,307.290527 
	C474.037262,307.290070 472.182434,307.369019 470.385620,307.102448 
	C466.596375,306.540314 464.469604,303.994873 463.966980,300.415680 
	C463.436340,296.636780 465.530182,294.112762 468.917084,292.639282 
	C470.797272,291.821320 472.812317,291.872589 474.813446,291.874451 
	C499.940308,291.898102 525.067200,291.916840 550.194031,291.939514 
	C551.192261,291.940430 552.193848,291.920135 553.188110,291.991180 
	C558.830139,292.394379 562.332703,295.519470 562.198120,299.998444 
	C562.070496,304.242279 558.922119,306.783295 552.711548,307.282196 
z"/>
</svg>