<svg version="1.1" id="Layer_1" xmlns="http://www.w3.org/2000/svg" xmlns:xlink="http://www.w3.org/1999/xlink" x="0px" y="0px"
	 width="100%" viewBox="0 0 1024 1024" enable-background="new 0 0 1024 1024" xml:space="preserve">
<path fill="none" opacity="1.000000" stroke="#000000" stroke-linecap="round" stroke-linejoin="round" stroke-width="13.000000"
	d="
M705.500000,233.500000 
	C706.840149,236.009140 707.020264,238.709549 707.019958,241.500000 
	C706.997803,422.500000 707.097717,603.500122 706.816711,784.499695 
	C706.793945,799.168579 707.453857,813.823792 707.096436,828.502319 
	C706.619324,848.093506 694.753967,866.657593 671.490417,871.957947 
	C670.064453,872.282776 668.500000,872.000000 667.000000,872.000000 
	C564.833313,872.000000 462.666626,871.952576 360.500061,872.049438 
	C344.616150,872.064514 326.944550,860.816711 321.484344,843.504944 
	C319.785797,838.119568 318.769958,832.708923 318.937317,826.998169 
	C319.181305,818.671997 318.455872,810.289429 319.123901,802.010010 
	C320.202759,788.639526 318.466034,775.344482 318.904144,761.996826 
	C319.341309,748.677917 319.000000,735.333313 319.000000,722.000000 
	C319.000000,708.666687 319.000000,695.333313 319.000000,682.000000 
	C319.000000,668.666687 319.000000,655.333313 319.000000,642.000000 
	C319.000000,628.666687 319.000000,615.333313 319.000000,602.000000 
	C319.000000,588.666687 319.000000,575.333313 319.000000,562.000000 
	C319.000000,548.666687 319.000000,535.333313 319.000000,522.000000 
	C319.000000,508.833344 319.000000,495.666656 319.000000,482.500000 
	C319.000000,469.166656 319.000000,455.833344 319.000000,442.500000 
	C319.000000,429.166656 319.000000,415.833344 319.000000,402.500000 
	C319.000000,389.166656 319.000000,375.833344 319.000000,362.500000 
	C319.000000,349.166656 319.000000,335.833344 319.000000,322.500000 
	C319.000000,309.166656 319.000000,295.833344 319.000000,282.500000 
	C319.000000,269.166656 319.013733,255.833298 318.988617,242.500015 
	C318.983490,239.781067 318.893738,237.052399 320.036102,234.516251 
	C320.342224,233.836639 320.732025,233.336487 320.520996,232.494736 
	C317.247864,219.439774 318.620270,206.095535 319.269806,193.013397 
	C320.337769,171.503738 339.724426,153.956055 360.000031,153.978287 
	C416.833313,154.040604 473.666656,154.000000 530.500000,154.000000 
	C570.666687,154.000000 610.833313,153.997620 651.000000,154.003006 
	C656.000000,154.003662 660.991516,153.782883 666.001526,153.827454 
	C683.545349,153.983582 702.007263,167.858765 705.956421,187.508759 
	C708.314880,199.243973 706.455872,211.173279 707.021179,222.998993 
	C707.186646,226.459457 706.672668,229.767578 705.500000,233.000000 
"/>
<path fill="none" opacity="1.000000" stroke="#000000" stroke-linecap="round" stroke-linejoin="round" stroke-width="13.000000"
	d="
M705.250000,793.000000 
	C577.166687,793.000000 449.083344,793.000000 321.000000,793.000000 
"/>
<path fill="none" opacity="1.000000" stroke="#000000" stroke-linecap="round" stroke-linejoin="round" stroke-width="13.000000"
	d="
M705.250000,233.000000 
	C577.166687,233.000000 449.083344,233.000000 321.000000,233.000000 
"/>
<path fill="none" opacity="1.000000" stroke="#000000" stroke-linecap="round" stroke-linejoin="round" stroke-width="13.000000"
	d="
M559.500000,195.750000 
	C533.333313,195.833344 507.166687,195.937317 480.999969,195.979584 
	C476.665771,195.986572 472.305664,196.386154 468.000000,195.500000 
"/>
<path fill="none" opacity="1.000000" stroke="#000000" stroke-linecap="round" stroke-linejoin="round" stroke-width="13.000000"
	d="
M631.500000,429.000000 
	C630.456360,422.020874 631.144653,414.999847 631.024109,407.999573 
	C630.850586,397.918152 623.434021,389.163422 612.991211,389.869720 
	C605.536560,390.373932 598.000000,389.666656 590.500000,389.499969 
"/>
<path fill="none" opacity="1.000000" stroke="#000000" stroke-linecap="round" stroke-linejoin="round" stroke-width="13.000000"
	d="
M625.000000,397.000000 
	C605.895691,414.723511 587.635925,433.298584 569.466064,451.966980 
	C567.967712,453.506439 566.801331,455.854462 564.000000,455.500000 
"/>
<path fill="none" opacity="1.000000" stroke="#000000" stroke-linecap="round" stroke-linejoin="round" stroke-width="13.000000"
	d="
M462.000000,455.500000 
	C459.537964,455.825623 458.401245,453.886292 457.012604,452.487488 
	C439.493408,434.839905 422.001770,417.164948 404.489227,399.510681 
	C404.074585,399.092651 403.500000,398.833344 403.000000,398.500000 
"/>
<path fill="none" opacity="1.000000" stroke="#000000" stroke-linecap="round" stroke-linejoin="round" stroke-width="13.000000"
	d="
M435.500000,389.500000 
	C427.500000,389.666687 419.484406,389.578674 411.504120,390.067291 
	C402.426666,390.623108 395.659180,397.406219 395.053925,406.503601 
	C394.611603,413.151917 394.666656,419.833344 394.500000,426.500000 
"/>
<path fill="none" opacity="1.000000" stroke="#000000" stroke-linecap="round" stroke-linejoin="round" stroke-width="12.000000"
	d="
M509.500000,814.000000 
	C502.426361,815.940674 496.708130,819.890381 494.642365,827.041138 
	C492.505219,834.438904 493.988190,841.583679 500.033722,846.962097 
	C506.030945,852.297546 513.034241,853.715210 520.475891,850.445129 
	C527.510620,847.353699 531.922668,842.086304 531.989624,833.999939 
	C532.096924,821.039978 524.324646,814.000000 510.000000,814.000000 
"/>
</svg>