<?xml version="1.0" standalone="no"?>
<!DOCTYPE svg PUBLIC "-//W3C//DTD SVG 20010904//EN"
 "http://www.w3.org/TR/2001/REC-SVG-20010904/DTD/svg10.dtd">
<svg version="1.0" xmlns="http://www.w3.org/2000/svg"
 width="600.000000pt" height="600.000000pt" viewBox="0 0 600.000000 600.000000"
 preserveAspectRatio="xMidYMid meet">
<metadata>
Created by potrace 1.16, written by Peter Selinger 2001-2019
</metadata>
<g transform="translate(0.000000,600.000000) scale(0.100000,-0.100000)"
fill="#000000" stroke="none">
<path d="M1685 3738 c-48 -17 -94 -56 -115 -98 -19 -38 -20 -60 -20 -815 0
-752 1 -777 20 -814 11 -22 32 -49 47 -61 67 -53 -10 -50 1493 -50 1018 0
1406 3 1431 11 51 18 97 55 122 102 l22 42 0 770 0 770 -22 42 c-25 47 -71 84
-122 102 -46 15 -2812 14 -2856 -1z m2835 -106 c19 -9 40 -28 47 -42 10 -19
13 -193 13 -765 0 -572 -3 -746 -13 -765 -7 -14 -28 -33 -47 -42 -33 -17 -121
-18 -1405 -18 -1284 0 -1372 1 -1405 18 -56 27 -60 47 -57 237 l2 170 125 5
c212 8 210 5 210 395 0 390 2 387 -210 395 l-125 5 -2 170 c-3 190 1 210 57
237 33 17 121 18 1405 18 1284 0 1372 -1 1405 -18z m-2656 -518 c14 -5 16 -40
16 -290 l0 -284 -22 -5 c-13 -3 -63 -5 -113 -3 l-90 3 -3 280 c-1 154 0 285 3
292 5 14 178 19 209 7z"/>
<path d="M2903 3450 c-45 -27 -62 -58 -74 -131 -17 -110 9 -99 -237 -99 -249
0 -280 -8 -320 -79 -23 -40 -23 -42 -20 -470 3 -416 4 -430 24 -457 11 -15 33
-37 48 -48 27 -21 35 -21 806 -21 770 0 779 0 807 21 15 11 38 40 51 65 23 44
23 44 20 466 -3 408 -4 422 -24 449 -50 68 -53 69 -305 72 -262 3 -239 -6
-253 102 -4 30 -16 69 -27 86 -35 57 -65 64 -276 64 -169 0 -191 -2 -220 -20z
m400 -94 c8 -8 18 -41 22 -73 10 -80 28 -119 67 -143 30 -18 50 -20 251 -20
l218 0 24 -25 25 -24 0 -388 c0 -336 -2 -392 -16 -411 l-15 -22 -749 0 c-667
0 -750 2 -764 16 -14 13 -16 65 -16 415 0 386 1 400 20 419 19 19 33 20 245
20 l224 0 36 31 c35 31 47 62 60 151 4 29 13 52 23 58 9 5 88 10 174 10 124 0
160 -3 171 -14z"/>
<path d="M3055 3031 c-88 -23 -167 -84 -211 -163 -27 -49 -29 -61 -29 -153 0
-87 3 -106 25 -149 29 -57 91 -115 158 -147 36 -18 65 -23 128 -23 73 -1 87 2
150 34 236 121 228 467 -14 578 -58 26 -154 37 -207 23z m173 -122 c24 -12 57
-39 72 -61 106 -145 8 -349 -168 -351 -188 -1 -289 213 -169 359 60 73 176 96
265 53z"/>
<path d="M1730 2820 c-17 -17 -20 -33 -20 -103 0 -92 15 -127 55 -127 40 0 55
35 55 127 0 70 -3 86 -20 103 -11 11 -27 20 -35 20 -8 0 -24 -9 -35 -20z"/>
</g>
</svg>
