<?xml version="1.0" standalone="no"?>
<!DOCTYPE svg PUBLIC "-//W3C//DTD SVG 20010904//EN"
 "http://www.w3.org/TR/2001/REC-SVG-20010904/DTD/svg10.dtd">
<svg version="1.0" xmlns="http://www.w3.org/2000/svg"
 width="600.000000pt" height="600.000000pt" viewBox="0 0 600.000000 600.000000"
 preserveAspectRatio="xMidYMid meet">

<g transform="translate(0.000000,600.000000) scale(0.100000,-0.100000)"
fill="#000000" stroke="none">
<path d="M2190 3943 c-49 -8 -120 -50 -120 -71 0 -5 -7 -12 -15 -16 -9 -3 -15
-18 -15 -35 0 -16 -4 -33 -10 -36 -7 -4 -10 -335 -10 -960 0 -625 3 -956 10
-960 6 -3 10 -17 10 -31 0 -49 42 -105 100 -132 32 -16 117 -17 1030 -17 978
0 995 0 1025 20 37 25 55 43 80 80 20 30 20 47 20 1031 l0 1001 -28 36 c-15
20 -44 49 -64 64 l-36 28 -976 1 c-537 1 -987 0 -1001 -3z m1930 -1128 l0
-955 -955 0 -955 0 0 955 0 955 955 0 955 0 0 -955z"/>
<path d="M4526 3914 l-26 -27 0 -690 0 -691 27 -28 c35 -37 98 -39 128 -5 20
21 20 40 20 722 l0 700 -22 23 c-33 32 -92 30 -127 -4z"/>
<path d="M4906 3914 l-26 -27 0 -310 0 -311 27 -28 c35 -37 98 -39 128 -5 19
21 20 38 20 342 0 319 0 320 -22 343 -33 32 -92 30 -127 -4z"/>
<path d="M1713 3183 c-12 -2 -27 -11 -34 -20 -37 -44 -39 -74 -39 -728 0 -653
2 -684 38 -728 29 -34 92 -27 131 14 21 23 21 26 21 715 l0 691 -26 27 c-15
14 -30 26 -35 26 -4 0 -13 2 -21 4 -7 2 -23 1 -35 -1z"/>
<path d="M1335 2423 c-28 -7 -42 -20 -60 -56 -12 -25 -15 -78 -15 -301 0 -342
10 -379 101 -379 35 0 47 5 66 29 23 29 23 30 23 340 l0 311 -26 27 c-15 14
-30 26 -35 26 -4 0 -13 2 -21 4 -7 2 -22 1 -33 -1z"/>
</g>
</svg>
