<?xml version="1.0" standalone="no"?>
<!DOCTYPE svg PUBLIC "-//W3C//DTD SVG 20010904//EN"
 "http://www.w3.org/TR/2001/REC-SVG-20010904/DTD/svg10.dtd">
<svg version="1.0" xmlns="http://www.w3.org/2000/svg"
 width="1024.000000pt" height="1024.000000pt" viewBox="0 0 1024.000000 1024.000000"
 preserveAspectRatio="xMidYMid meet">
<metadata>
Created by potrace 1.16, written by Peter Selinger 2001-2019
</metadata>
<g transform="translate(0.000000,1024.000000) scale(0.100000,-0.100000)"
fill="#000000" stroke="none">
<path d="M4799 7775 c-769 -11 -869 -14 -897 -29 -38 -20 -54 -42 -83 -118
-12 -32 -26 -58 -31 -58 -5 0 -6 -4 -3 -10 3 -5 2 -10 -3 -10 -5 0 -18 -21
-30 -47 -30 -69 -103 -233 -149 -338 l-40 -90 -124 -6 c-68 -4 -394 -9 -724
-13 -569 -6 -705 -13 -705 -37 0 -5 -7 -6 -15 -3 -8 4 -15 2 -15 -4 0 -5 -21
-19 -47 -30 -71 -31 -123 -72 -172 -138 -25 -32 -51 -64 -58 -70 -21 -18 -52
-100 -68 -182 -14 -68 -15 -290 -13 -1967 l3 -1890 22 -65 c68 -199 248 -348
462 -381 108 -16 5789 55 5971 75 100 11 142 21 202 47 151 64 284 226 323
391 22 93 23 3791 1 3895 -18 81 -43 145 -62 156 -8 5 -12 12 -9 18 4 5 2 9
-2 9 -5 0 -29 27 -53 60 -25 33 -49 60 -55 60 -5 0 -20 11 -32 24 -13 13 -42
33 -65 44 -94 43 -143 55 -260 60 l-118 4 0 65 c0 43 -6 76 -19 102 -23 44
-82 93 -117 95 -13 0 -24 3 -24 6 0 7 -546 1 -588 -6 -43 -7 -118 -81 -131
-131 -6 -21 -11 -64 -11 -95 l0 -58 -185 0 -185 0 -39 83 c-21 45 -73 156
-115 247 -106 231 -148 309 -182 331 -27 18 -50 19 -359 17 -181 0 -719 -7
-1196 -13z m1508 -293 c71 -146 121 -253 188 -403 33 -74 56 -111 76 -125 16
-10 29 -21 29 -24 0 -3 334 -1 742 4 565 7 755 6 793 -3 28 -7 58 -13 68 -14
9 -1 17 -5 17 -9 0 -4 7 -8 15 -8 8 0 15 -4 15 -10 0 -5 4 -10 10 -10 12 0 89
-82 115 -124 11 -17 23 -33 27 -34 5 -2 6 -8 2 -13 -3 -5 -1 -9 5 -9 24 0 31
-116 31 -515 l0 -413 -332 -7 c-183 -4 -493 -9 -688 -10 -195 -1 -469 -4 -608
-7 l-253 -5 -38 51 c-21 28 -70 85 -109 126 -39 41 -72 80 -72 86 0 22 -236
201 -333 253 -147 79 -258 133 -264 128 -3 -3 -12 1 -20 9 -9 8 -22 13 -29 10
-8 -3 -14 -2 -14 3 0 12 -176 55 -189 46 -6 -3 -11 -1 -11 6 0 7 -10 9 -25 7
-14 -3 -25 -2 -25 1 0 10 -127 16 -330 16 -183 -1 -380 -25 -380 -47 0 -4 -10
-8 -22 -8 -33 0 -278 -86 -308 -108 -14 -10 -67 -41 -118 -68 -51 -27 -103
-58 -115 -69 -12 -11 -58 -49 -102 -83 -88 -71 -243 -233 -311 -328 l-44 -61
-252 -6 c-263 -7 -943 -17 -1391 -21 l-258 -2 3 435 3 436 35 69 c53 104 108
159 203 205 l82 39 755 9 c865 9 797 1 843 102 65 141 107 238 107 244 0 4 38
86 85 182 l85 175 108 1 c59 1 478 7 932 13 454 7 911 14 1015 14 l190 2 62
-128z m1461 -314 l3 -48 -265 0 -266 0 0 43 c0 24 3 47 7 50 4 4 122 6 262 5
l256 -3 3 -47z m-2430 -873 c245 -37 453 -116 648 -246 120 -80 197 -144 230
-190 12 -17 47 -57 78 -90 74 -78 131 -168 194 -307 29 -62 52 -115 52 -118 0
-3 9 -26 21 -51 62 -137 96 -457 70 -658 -13 -98 -45 -233 -66 -280 -8 -16
-26 -61 -41 -100 -37 -98 -87 -196 -135 -266 -83 -123 -287 -349 -314 -349 -9
0 -89 -62 -93 -72 -2 -5 -10 -8 -18 -8 -8 0 -14 -4 -14 -9 0 -12 -62 -47 -180
-102 -52 -24 -97 -46 -100 -49 -20 -23 -194 -66 -381 -95 -170 -25 -283 -23
-453 9 -177 34 -418 130 -547 217 -80 53 -223 173 -269 226 -19 21 -59 66 -89
100 -74 83 -182 275 -216 386 -10 31 -22 57 -27 57 -5 0 -6 5 -2 11 3 6 2 14
-3 18 -15 10 -40 115 -59 241 -23 161 -15 384 20 534 14 59 30 114 37 122 6 7
8 18 4 24 -3 5 -2 10 2 10 5 0 17 24 27 53 41 115 153 330 188 360 11 9 17 17
13 17 -4 0 12 19 35 42 23 23 55 61 72 84 30 43 130 134 145 134 5 0 22 14 39
31 49 51 120 95 327 200 29 15 106 41 172 59 66 18 129 36 140 41 66 29 344
37 493 14z m3009 -715 l93 0 0 -990 c0 -936 -1 -990 -17 -990 -10 0 -475 -7
-1033 -15 -558 -8 -1037 -15 -1063 -15 l-48 0 76 78 c41 42 75 82 75 89 0 6
10 20 23 30 29 23 78 87 107 138 70 123 131 242 133 258 1 9 4 17 8 17 19 0
90 275 110 427 16 126 6 417 -19 548 -24 121 -81 298 -117 359 l-26 44 48 5
c26 3 264 6 528 7 264 0 557 5 650 9 94 5 217 7 274 5 57 -2 146 -4 198 -4z
m-4747 -54 c0 -3 -17 -42 -39 -88 -48 -104 -74 -184 -103 -318 -19 -91 -22
-136 -22 -335 -1 -204 2 -243 23 -345 26 -131 79 -300 93 -300 5 0 6 -4 3 -10
-3 -5 -1 -10 4 -10 6 0 11 -7 11 -15 0 -21 56 -130 119 -235 49 -80 123 -171
232 -282 l46 -48 -46 0 c-96 0 -1460 -19 -1783 -25 l-338 -6 0 990 c0 553 4
992 9 995 14 9 343 16 1025 21 357 2 651 7 654 10 6 6 112 7 112 1z m4838
-2360 c2 -241 -7 -357 -28 -364 -6 -2 -8 -8 -4 -13 3 -5 0 -9 -6 -9 -6 0 -8
-4 -5 -10 3 -5 2 -10 -4 -10 -5 0 -12 -9 -16 -20 -10 -31 -116 -135 -161 -158
-22 -11 -65 -25 -95 -31 -35 -7 -1096 -25 -2998 -51 -3223 -43 -3014 -44
-3114 15 -91 53 -177 177 -197 282 -15 84 -13 522 2 528 7 2 548 11 1201 20
1014 14 1192 14 1215 2 15 -8 57 -30 93 -50 93 -52 323 -130 464 -158 104 -21
149 -24 341 -24 142 0 230 4 245 11 13 6 67 19 119 29 139 25 247 65 410 152
l145 77 1160 16 c638 10 1176 17 1195 16 l35 -1 3 -249z"/>
<path d="M7206 6663 c-52 -14 -115 -65 -140 -115 -25 -50 -26 -59 -26 -234 0
-242 17 -291 119 -337 43 -19 58 -19 345 -13 286 7 304 9 353 31 45 20 55 31
77 78 25 52 26 60 26 251 0 215 -5 241 -56 287 -61 55 -89 59 -397 58 -155 -1
-291 -4 -301 -6z m562 -185 c17 -17 17 -302 0 -316 -16 -12 -517 -21 -535 -9
-15 10 -18 283 -4 306 14 22 82 28 317 30 151 1 213 -2 222 -11z"/>
<path d="M4975 5993 c-62 -7 -150 -25 -160 -32 -5 -5 -55 -23 -110 -40 -101
-33 -203 -83 -218 -108 -4 -7 -13 -13 -19 -13 -47 0 -294 -244 -365 -360 -109
-180 -141 -261 -174 -438 -36 -200 -16 -456 52 -636 11 -31 25 -56 30 -56 6 0
7 -5 3 -11 -3 -6 -2 -14 3 -18 6 -3 29 -42 53 -86 23 -44 55 -98 71 -120 32
-44 177 -194 182 -189 1 2 19 -14 39 -34 36 -38 180 -122 273 -161 77 -31 214
-68 299 -80 92 -13 346 -15 346 -2 0 4 24 11 53 15 91 10 322 82 337 105 3 4
44 29 92 56 48 26 109 69 136 94 27 25 73 69 103 97 58 54 181 228 200 282 6
18 15 32 21 32 5 0 7 4 4 9 -4 5 -2 11 2 13 14 5 58 128 83 228 19 80 23 123
23 265 1 258 -41 421 -154 605 -98 159 -227 299 -355 382 -146 96 -351 174
-520 198 -66 9 -264 11 -330 3z m375 -197 c101 -23 256 -86 339 -140 139 -89
278 -243 346 -381 101 -207 118 -270 118 -460 1 -183 -16 -254 -111 -445 -75
-153 -77 -156 -186 -265 -121 -121 -246 -207 -365 -252 -84 -32 -231 -63 -298
-63 -28 0 -54 -4 -57 -8 -11 -18 -224 11 -331 45 -73 23 -256 113 -262 129 -3
8 -9 11 -14 8 -5 -3 -12 2 -15 10 -3 9 -12 16 -20 16 -8 0 -14 4 -14 9 0 5
-27 31 -61 57 -79 63 -148 155 -209 281 -28 57 -50 107 -50 113 0 5 -4 10 -10
10 -5 0 -7 7 -4 15 4 8 2 15 -4 15 -5 0 -18 42 -28 93 -23 111 -25 315 -5 397
28 111 116 310 176 395 48 68 188 205 255 250 25 17 47 34 48 38 4 8 113 60
177 84 44 16 168 50 230 63 60 13 270 4 355 -14z"/>
<path d="M4885 5593 c-42 -10 -165 -65 -165 -74 0 -5 -6 -9 -13 -9 -24 0 -131
-80 -189 -143 -32 -33 -58 -64 -58 -68 0 -4 -6 -9 -14 -12 -31 -12 -126 -245
-126 -309 0 -42 40 -78 87 -78 55 0 79 21 98 87 39 132 135 262 247 336 27 16
48 34 48 39 0 5 4 7 9 4 5 -4 11 -2 13 2 3 10 120 52 143 52 9 0 27 11 40 25
36 35 35 105 -1 134 -26 20 -71 25 -119 14z"/>
<path d="M5050 5195 l0 -85 55 0 55 0 0 85 0 85 -55 0 -55 0 0 -85z"/>
<path d="M4777 5142 l-37 -38 58 -57 58 -57 37 38 37 38 -58 57 -58 57 -37
-38z"/>
<path d="M5326 5124 l-58 -56 38 -39 37 -38 31 27 c17 15 44 42 60 60 l29 33
-34 35 c-18 18 -36 34 -39 34 -3 0 -32 -25 -64 -56z"/>
<path d="M5046 4980 c-16 -5 -46 -26 -67 -46 -69 -67 -64 -170 10 -237 84 -76
211 -54 262 45 27 54 28 102 1 155 -36 70 -129 108 -206 83z"/>
<path d="M4640 4820 l0 -50 85 0 85 0 0 50 0 50 -85 0 -85 0 0 -50z"/>
<path d="M5390 4820 l0 -50 85 0 85 0 0 50 0 50 -85 0 -85 0 0 -50z"/>
<path d="M4793 4593 l-52 -57 37 -40 37 -41 57 60 57 60 -37 38 c-20 20 -39
37 -42 36 -3 0 -28 -25 -57 -56z"/>
<path d="M5308 4613 l-37 -38 59 -61 59 -61 38 39 37 38 -60 60 -60 60 -36
-37z"/>
<path d="M5050 4445 l0 -85 55 0 55 0 0 85 0 85 -55 0 -55 0 0 -85z"/>
</g>
</svg>
