<svg version="1.1" id="Layer_1" xmlns="http://www.w3.org/2000/svg" xmlns:xlink="http://www.w3.org/1999/xlink" x="0px" y="0px"
	 width="100%" viewBox="0 0 1024 1024" enable-background="new 0 0 1024 1024" xml:space="preserve">
<path fill="#000000" opacity="1.000000" stroke="none" 
	d="
M1025.000000,167.531342 
	C1015.113708,165.745667 1005.318909,162.796783 995.309387,161.477905 
	C988.483215,160.578445 981.458435,162.887955 975.374634,166.276749 
	C969.756836,169.405991 968.397522,168.984619 967.622437,162.530243 
	C966.604553,154.054153 967.118652,145.550949 966.787964,137.065811 
	C966.553955,131.059647 965.718811,130.116653 959.692810,130.074249 
	C945.861633,129.976913 932.029419,129.956604 918.197876,130.001755 
	C912.473450,130.020447 911.691406,130.919189 911.554688,136.767319 
	C911.422180,142.431412 911.419250,148.100601 911.171082,153.759277 
	C910.971985,158.300034 908.677917,159.757324 905.089661,157.136490 
	C892.667297,148.063202 879.494019,150.422623 866.424500,154.523102 
	C854.664307,158.212784 854.218750,158.299271 853.239807,146.255264 
	C852.916565,142.278320 853.011353,138.263580 853.005249,134.265976 
	C853.000854,131.358994 851.677795,130.262009 848.752380,130.042053 
	C835.417603,129.039459 831.482727,124.544556 831.442993,110.691345 
	C831.429382,105.960434 828.309692,102.546806 822.862549,102.091660 
	C819.056396,101.773628 815.794922,100.580086 812.657715,98.504921 
	C809.647644,96.513893 806.331909,95.698990 802.652466,96.692245 
	C801.115234,97.107239 799.453552,97.760025 797.306335,96.713127 
	C796.171143,89.431061 796.317993,81.791016 796.080566,74.200256 
	C795.823975,65.999786 795.994507,65.954430 787.733643,65.934731 
	C774.568237,65.903336 761.402710,65.914169 748.237305,65.941437 
	C741.631714,65.955116 741.034363,66.560036 740.916321,72.970039 
	C740.876465,75.135979 740.950378,77.308136 740.813904,79.467430 
	C740.312744,87.395920 738.970398,88.539528 730.929688,87.951981 
	C729.605957,87.855255 728.290161,87.590950 726.982483,87.342316 
	C714.012756,84.876389 700.978149,84.460213 687.919800,86.393799 
	C684.132751,86.954552 682.683594,85.589622 682.638306,81.929802 
	C682.591003,78.103439 682.229797,74.281754 682.140442,70.454880 
	C682.068115,67.356194 680.683411,65.944206 677.528259,65.992126 
	C662.215393,66.224716 646.905762,65.109573 631.585999,65.917938 
	C628.533569,66.079002 626.913513,67.150116 626.881470,70.330353 
	C626.868103,71.653908 626.589966,72.978729 626.385559,74.295731 
	C625.643982,79.075226 623.572998,80.670837 618.871521,79.801994 
	C616.757751,79.411346 614.692444,78.674942 612.659729,77.943840 
	C606.324097,75.665184 600.077698,74.727676 593.139038,75.619492 
	C585.453247,76.607338 577.177612,74.142822 571.261658,70.052521 
	C566.862244,67.010689 562.128418,65.392189 557.686829,62.913956 
	C552.750061,60.159397 550.025391,56.014442 549.228333,50.660297 
	C548.033142,42.631863 542.234253,37.673820 533.941406,38.471626 
	C530.723938,38.781155 527.599487,38.972057 524.574036,37.917770 
	C520.388550,36.459297 517.992981,40.649296 513.748901,40.984001 
	C511.562683,28.029856 511.862183,14.972789 511.947815,1.466374 
	C531.354248,1.000000 550.708435,1.000000 570.393921,1.389744 
	C569.677307,20.554012 570.519165,39.343666 570.218750,58.121967 
	C570.143982,62.791885 571.829834,64.163628 576.298645,64.093620 
	C590.266541,63.874756 604.239502,63.966270 618.210510,63.969521 
	C624.833618,63.971066 625.081970,63.729389 625.070251,56.862892 
	C625.038391,38.241943 625.022278,19.620966 625.000000,1.000000 
	C644.354248,1.000000 663.708435,1.000000 683.574097,1.467096 
	C684.090027,20.741987 684.156982,39.550140 684.048523,58.357285 
	C684.025696,62.310699 685.223572,64.011635 689.483704,63.952106 
	C704.294739,63.745129 719.111389,63.757286 733.923462,63.915039 
	C738.036621,63.958843 739.698181,62.344410 739.649414,58.371746 
	C739.414795,39.248066 740.154663,20.113554 739.000000,1.000000 
	C758.354248,1.000000 777.708435,1.000000 797.456055,1.355722 
	C797.958679,5.354934 798.162903,8.998492 798.160217,12.641900 
	C798.149170,27.619883 798.195190,42.599758 797.952881,57.574612 
	C797.878296,62.185577 799.208130,64.072571 804.147827,63.965557 
	C818.121887,63.662838 832.105774,63.827572 846.085693,63.780678 
	C852.392456,63.759521 852.900391,63.298588 852.921753,56.918484 
	C852.984131,38.279110 852.978821,19.639511 853.000000,1.000000 
	C872.354248,1.000000 891.708435,1.000000 911.399780,1.368049 
	C911.774475,8.534502 912.219421,15.360590 911.759583,22.125191 
	C910.956909,33.935455 911.990662,45.725136 911.593201,57.517929 
	C911.430908,62.334091 913.391663,64.093872 918.462891,63.948902 
	C931.597351,63.573433 944.749451,63.796520 957.894470,63.809055 
	C967.068604,63.817802 966.993225,63.838913 966.973694,54.905590 
	C966.934387,36.937164 966.985962,18.968542 967.000000,1.000000 
	C986.261963,1.000000 1005.523926,1.000000 1025.000000,1.000000 
	C1025.000000,21.020386 1025.000000,41.041534 1024.786621,61.411140 
	C1021.043640,61.228970 1019.498535,65.429657 1015.857422,65.173569 
	C1009.485107,64.725372 1002.883240,66.576965 996.883728,62.793755 
	C996.023865,62.251518 994.482422,62.116409 993.535889,62.493877 
	C987.043884,65.083107 980.260071,65.335503 973.423279,65.369041 
	C970.662537,65.382576 968.946777,66.688980 968.988342,69.584641 
	C969.234070,86.699173 967.436340,103.811569 968.846619,120.921837 
	C969.414795,127.814590 969.554810,127.857780 976.615845,127.887871 
	C992.743713,127.956596 1008.871948,127.966309 1025.000000,128.000000 
	C1025.000000,141.020889 1025.000000,154.041794 1025.000000,167.531342 
M892.496521,66.033516 
	C882.004028,66.014793 871.510742,66.064865 861.019470,65.942886 
	C856.922363,65.895248 854.971863,67.312881 854.958801,71.742180 
	C854.908875,88.710510 853.982544,105.673752 854.965210,122.649529 
	C855.164612,126.095276 856.208313,127.961655 859.889038,127.948212 
	C875.044800,127.892883 890.200684,127.895042 905.356567,127.901283 
	C908.131836,127.902428 909.816833,126.856613 909.809814,123.834663 
	C909.768555,106.013626 909.726929,88.192566 909.724243,70.371513 
	C909.723816,67.451408 908.386536,66.099602 905.483948,66.112175 
	C901.487427,66.129486 897.490662,66.068703 892.496521,66.033516 
z"/>
<path fill="#000000" opacity="1.000000" stroke="none" 
	d="
M682.468628,1025.000000 
	C682.017578,1006.015259 681.969788,987.030029 682.103821,968.046143 
	C682.133301,963.874146 682.375977,960.019409 675.730713,960.758179 
	C678.654114,958.325623 680.987427,957.268433 683.828003,959.019470 
	C685.646240,960.140198 687.670898,959.951782 689.660950,959.949341 
	C704.159363,959.931946 718.670044,959.551636 733.149902,960.058228 
	C738.738892,960.253784 742.279053,956.519470 746.318726,954.493225 
	C751.874207,951.706482 757.111206,950.565796 762.983032,950.837708 
	C766.107117,950.982422 769.127319,950.633057 771.268982,948.212097 
	C774.751282,944.275818 779.161316,942.339355 784.116577,941.017395 
	C788.850952,939.754333 794.189880,939.049194 795.798767,932.541016 
	C797.812073,937.836914 797.791748,942.917847 797.918823,947.895874 
	C798.221436,959.745483 798.090942,959.773865 809.971008,959.809143 
	C822.137085,959.845337 834.303345,959.845459 846.469421,959.822205 
	C852.486511,959.810730 852.947632,959.350647 852.966370,953.195068 
	C853.015442,937.029846 852.995972,920.864380 853.048279,904.699219 
	C853.073242,896.976379 853.121521,897.019226 860.480286,896.582764 
	C876.115601,895.655457 891.747559,896.887146 907.378418,896.576294 
	C910.504822,896.514099 911.339355,897.707458 911.328796,900.681458 
	C911.270264,917.172424 911.366821,933.664062 911.456726,950.155212 
	C911.467529,952.144897 911.757812,954.133118 911.919617,956.121887 
	C912.138672,958.815186 913.738831,959.824768 916.287598,959.825989 
	C931.951904,959.833557 947.616333,959.843872 963.280518,959.906006 
	C967.688904,959.923462 968.751892,957.277954 968.228821,953.656372 
	C965.761536,936.571350 967.421814,919.383911 966.796265,902.256653 
	C966.637634,897.911743 968.031555,895.901245 972.753113,895.985840 
	C989.892578,896.293091 1007.059692,894.835632 1024.586914,896.919678 
	C1025.000000,918.354248 1025.000000,939.708435 1024.654785,961.440918 
	C1008.389954,961.845154 992.472656,962.677734 976.550110,961.426697 
	C970.121033,960.921570 968.321655,962.954285 968.373230,969.721863 
	C968.513794,988.148376 968.782227,1006.574036 969.000000,1025.000000 
	C949.645752,1025.000000 930.291565,1025.000000 910.407959,1024.534424 
	C909.846252,1005.925964 909.898804,987.782166 909.736816,969.640320 
	C909.678040,963.056274 908.641724,962.141785 902.086731,962.082214 
	C888.937927,961.962585 875.787720,961.955078 862.638184,961.976257 
	C855.313049,961.988037 854.998779,962.268066 854.980530,969.574768 
	C854.934265,988.049683 854.986938,1006.524902 855.000000,1025.000000 
	C835.645752,1025.000000 816.291565,1025.000000 796.477783,1024.531494 
	C795.994080,1005.419373 795.889526,986.775452 796.004761,968.132812 
	C796.031921,963.741760 794.673462,961.966614 789.993530,961.984314 
	C776.036194,962.037109 762.077087,961.643677 748.118713,961.428162 
	C742.794861,961.346008 740.964722,963.117798 740.961731,968.567505 
	C740.951477,987.378357 740.983826,1006.189148 741.000000,1025.000000 
	C721.645752,1025.000000 702.291565,1025.000000 682.468628,1025.000000 
z"/>
<path fill="#000000" opacity="1.000000" stroke="none" 
	d="
M285.468658,1025.000000 
	C284.441284,1011.013855 284.479767,997.022705 285.107605,983.046143 
	C285.385162,976.867981 288.541687,971.596680 291.992920,966.698669 
	C294.891144,962.585510 298.483368,962.380371 304.865631,965.158264 
	C308.828339,966.882935 309.963623,969.824768 309.366913,974.056213 
	C308.336792,981.361084 310.217560,983.569946 317.504547,983.848999 
	C329.998444,984.327332 342.447144,984.623840 354.596863,980.492188 
	C360.825531,978.373962 367.379120,978.326050 373.820068,980.174988 
	C376.916199,981.063782 380.134216,981.394470 383.221893,980.681213 
	C388.260712,979.517212 392.359772,981.596802 396.476227,983.835449 
	C399.766602,985.624756 400.058197,988.891479 400.078430,992.081543 
	C400.145966,1002.742188 400.084503,1013.403687 400.036255,1024.532471 
	C361.979095,1025.000000 323.958221,1025.000000 285.468658,1025.000000 
z"/>
<path fill="#000000" opacity="1.000000" stroke="none" 
	d="
M568.468628,1025.000000 
	C569.478760,1010.869446 568.365051,996.694702 568.717834,982.544861 
	C568.759399,980.879395 568.742432,979.211731 568.719971,977.545532 
	C568.661499,973.214722 569.264648,968.733398 568.346008,964.591125 
	C567.160522,959.245605 560.862976,962.962158 558.023254,959.927917 
	C561.520752,955.260681 566.943481,954.576538 570.375549,958.503357 
	C571.701904,960.020813 573.339172,959.922119 574.937988,959.924072 
	C590.600952,959.943176 606.278809,960.264526 621.917725,959.636108 
	C626.526978,959.450867 631.138916,957.816162 635.923767,958.542297 
	C637.039551,958.711609 638.310486,958.342407 638.888062,959.901855 
	C637.372742,961.809143 635.201416,961.060791 633.381470,960.999390 
	C628.675110,960.840454 626.875732,962.859375 626.919312,967.574402 
	C627.093201,986.403137 627.031860,1005.234009 627.028809,1024.531982 
	C607.645752,1025.000000 588.291565,1025.000000 568.468628,1025.000000 
z"/>
<path fill="#000000" opacity="1.000000" stroke="none" 
	d="
M455.468658,1025.000000 
	C455.032684,1006.052307 455.046051,987.104614 455.108185,968.157043 
	C455.130859,961.242371 456.134827,960.173401 463.309540,960.103149 
	C477.138458,959.967651 490.971497,959.839294 504.797150,960.062256 
	C508.538025,960.122498 512.156677,958.716431 516.889282,959.140564 
	C512.255066,963.934021 513.077393,969.186462 513.383972,974.170288 
	C514.407104,990.805359 513.209229,1007.458679 514.008667,1024.544434 
	C494.645782,1025.000000 475.291534,1025.000000 455.468658,1025.000000 
z"/>
<path fill="#000000" opacity="1.000000" stroke="none" 
	d="
M341.531342,1.000000 
	C339.281555,3.356053 339.945465,6.368114 340.374237,9.340319 
	C341.639801,18.112583 338.099335,22.350769 329.173340,21.959185 
	C321.986420,21.643900 315.720062,23.591282 310.134338,27.940968 
	C303.206696,33.335613 294.709717,32.604446 286.778748,33.838135 
	C277.753357,35.242065 268.683899,36.285049 259.793030,38.500164 
	C254.316086,39.864719 248.770218,40.859035 243.102341,41.297607 
	C238.674301,41.640240 234.224350,42.332333 229.100525,44.973843 
	C227.125732,30.210203 228.107620,16.039394 227.941010,1.465715 
	C265.687561,1.000000 303.375122,1.000000 341.531342,1.000000 
z"/>
<path fill="#000000" opacity="1.000000" stroke="none" 
	d="
M171.468658,1025.000000 
	C171.037292,1011.211609 170.748993,997.411438 171.245499,983.639587 
	C171.504272,976.461914 176.723297,970.684082 178.599655,963.842834 
	C179.050812,962.197937 180.817612,961.916138 182.359131,962.004333 
	C184.839172,962.146362 187.353424,962.231628 189.776978,962.719543 
	C197.527847,964.280029 198.490631,965.925476 196.623474,973.734070 
	C194.739929,981.611206 202.388687,987.721130 211.703598,985.714600 
	C213.150391,985.403015 214.513718,984.712524 215.923950,984.221069 
	C223.063995,981.732666 228.840149,985.217834 229.212387,992.718750 
	C229.730316,1003.155273 229.779648,1013.615112 230.014771,1024.532471 
	C210.645767,1025.000000 191.291550,1025.000000 171.468658,1025.000000 
z"/>
<path fill="#000000" opacity="1.000000" stroke="none" 
	d="
M57.468658,1025.000000 
	C58.165085,1005.556824 57.441116,986.092163 57.667080,966.638306 
	C57.741379,960.242004 57.757866,960.239929 63.989250,960.646912 
	C65.980087,960.776978 68.004929,960.733765 69.953796,961.095337 
	C76.260689,962.265747 79.204102,967.148682 77.422829,973.251648 
	C77.329666,973.570862 77.200890,973.880005 77.113968,974.200684 
	C76.005859,978.289368 71.642670,982.802979 76.529839,986.459839 
	C81.929024,990.499817 87.953506,993.789551 95.469818,990.937561 
	C108.238060,986.092957 112.872993,988.956482 115.412361,1002.650635 
	C116.729561,1009.754028 115.728432,1016.928162 116.015152,1024.531494 
	C96.645775,1025.000000 77.291542,1025.000000 57.468658,1025.000000 
z"/>
<path fill="#000000" opacity="1.000000" stroke="none" 
	d="
M172.531342,1.000000 
	C173.314590,8.645610 172.965652,16.267046 172.243164,23.880358 
	C172.005020,26.389729 171.717896,28.312399 168.261429,28.143747 
	C150.542877,27.279192 133.344788,30.499735 115.555496,35.144096 
	C113.759995,24.224468 114.035164,13.063823 113.950699,1.466702 
	C133.354233,1.000000 152.708450,1.000000 172.531342,1.000000 
z"/>
<path fill="#000000" opacity="1.000000" stroke="none" 
	d="
M456.531342,1.000000 
	C457.194885,9.156946 457.445007,17.302855 456.415131,25.445797 
	C455.950043,29.123371 454.217407,30.004490 450.719360,29.816738 
	C437.925751,29.130051 425.191589,27.861469 412.452271,26.570427 
	C409.847168,26.306423 407.150299,26.834574 404.505890,27.099108 
	C400.507568,27.499081 398.677460,25.878021 398.657928,21.737940 
	C398.626556,15.092660 398.279999,8.448868 398.033325,1.402223 
	C417.354218,1.000000 436.708466,1.000000 456.531342,1.000000 
z"/>
<path fill="#000000" opacity="1.000000" stroke="none" 
	d="
M513.999878,728.331360 
	C439.345673,728.327026 365.191498,728.337585 291.037292,728.311462 
	C251.636627,728.297607 218.625977,695.971436 217.599838,656.622314 
	C216.544098,616.138306 216.909500,575.646362 217.255112,535.165283 
	C217.519699,504.175415 217.876617,473.180756 217.406769,442.202942 
	C217.042801,418.205048 217.366928,394.228668 217.646088,370.245728 
	C218.076614,333.256653 247.235428,301.455048 283.991760,297.639587 
	C286.968384,297.330566 289.959106,296.953705 292.943420,296.952515 
	C383.428101,296.915863 473.912811,296.881744 564.397461,296.944580 
	C595.473145,296.966156 622.861389,315.247162 634.596680,343.646027 
	C638.251099,352.489624 640.259521,361.778717 640.264038,371.366699 
	C640.308716,465.350861 640.389587,559.335144 640.245239,653.319092 
	C640.181274,694.949158 606.157410,728.394470 564.492676,728.339417 
	C547.828430,728.317444 531.164185,728.332703 513.999878,728.331360 
M625.642395,365.908234 
	C621.577454,333.884064 596.135925,311.389191 563.852905,311.382935 
	C474.377106,311.365662 384.901306,311.392731 295.425507,311.373230 
	C290.403564,311.372131 285.425415,311.759247 280.546234,312.859131 
	C250.282303,319.681366 231.446960,343.817780 231.410660,375.967499 
	C231.351044,428.786377 231.260513,481.605835 231.435303,534.424255 
	C231.569809,575.072632 230.366013,615.739075 232.105255,656.365845 
	C233.500656,688.961182 259.597260,713.784973 292.154816,713.825867 
	C383.463257,713.940430 474.772003,713.934937 566.080444,713.811401 
	C598.791138,713.767151 625.470825,686.971497 625.734924,654.253784 
	C625.884155,635.759949 625.799927,617.264099 625.791565,598.769165 
	C625.756592,521.457214 625.710510,444.145264 625.642395,365.908234 
z"/>
<path fill="#000000" opacity="1.000000" stroke="none" 
	d="
M808.956421,635.984558 
	C808.770142,641.306458 808.717102,646.141113 808.371094,650.954712 
	C807.027405,669.645203 789.580322,680.026794 772.755066,671.964294 
	C747.819336,660.015320 723.002869,647.817200 698.125000,635.747192 
	C688.983154,631.311768 679.799438,626.962769 670.655396,622.531921 
	C659.330261,617.044128 653.719360,607.949890 653.713989,595.391602 
	C653.695679,552.233337 653.697693,509.075043 653.672607,465.916779 
	C653.665771,454.190155 658.511658,445.197327 669.062866,439.922241 
	C704.074097,422.418213 739.083984,404.905945 774.293152,387.806061 
	C789.873230,380.239410 808.183289,392.162720 808.348877,409.592346 
	C808.655945,441.911774 809.388367,474.246674 808.739014,506.550873 
	C807.874878,549.542603 809.534363,592.509583 808.956421,635.984558 
M668.081482,547.500000 
	C668.056091,562.822083 668.274719,578.149902 667.910645,593.463928 
	C667.703918,602.156067 671.506775,607.382935 679.171753,610.972595 
	C698.166504,619.867737 716.987366,629.134155 735.884521,638.237976 
	C750.281799,645.173950 764.768433,651.930542 779.061035,659.075562 
	C787.088806,663.088806 794.714783,657.042969 794.611694,649.113708 
	C794.596558,647.948242 794.623962,646.782166 794.623901,645.616394 
	C794.618469,568.506165 794.615234,491.395966 794.602905,414.285767 
	C794.600830,401.195435 787.639343,396.948273 775.765869,402.831177 
	C743.548523,418.793823 711.446838,434.995209 679.068787,450.624451 
	C671.006592,454.516113 667.846924,459.788391 667.959900,468.558990 
	C668.294434,494.535522 668.080322,520.519165 668.081482,547.500000 
z"/>
<path fill="#000000" opacity="1.000000" stroke="none" 
	d="
M462.405823,489.527283 
	C479.429260,498.393707 496.116821,507.097290 512.805969,515.797913 
	C521.540405,520.351562 526.366150,527.394714 526.332642,537.393311 
	C526.299255,547.375061 522.202026,554.956787 513.143494,559.740295 
	C474.704315,580.038818 436.343262,600.485474 397.873444,620.725464 
	C382.819397,628.645752 366.988220,622.034058 362.407043,606.317566 
	C361.739227,604.026611 361.651917,601.728638 361.651123,599.398071 
	C361.637238,558.910645 361.590790,518.423096 361.637604,477.935730 
	C361.659973,458.583435 379.346436,447.285797 396.690277,455.886017 
	C418.624023,466.762115 440.289459,478.179382 462.405823,489.527283 
M375.687256,512.061768 
	C374.725586,533.374756 376.161133,554.677490 375.967163,575.988098 
	C375.892914,584.147339 375.891663,592.312012 376.108704,600.467590 
	C376.301147,607.699768 382.639618,611.725220 389.402802,609.074280 
	C391.254974,608.348389 393.001434,607.341187 394.766876,606.407227 
	C431.556427,586.944519 468.322540,567.437195 505.153687,548.053528 
	C509.516602,545.757385 512.556030,542.685486 512.502197,537.706604 
	C512.450684,532.953369 509.532593,529.951233 505.303680,527.785156 
	C467.665070,508.506744 430.101105,489.082611 392.467529,469.794373 
	C382.149414,464.506042 375.437622,468.645905 375.441406,480.169312 
	C375.444794,490.489807 375.656006,500.810211 375.687256,512.061768 
z"/>
</svg>