<?xml version="1.0" standalone="no"?>
<!DOCTYPE svg PUBLIC "-//W3C//DTD SVG 20010904//EN"
 "http://www.w3.org/TR/2001/REC-SVG-20010904/DTD/svg10.dtd">
<svg version="1.0" xmlns="http://www.w3.org/2000/svg"
 width="600.000000pt" height="600.000000pt" viewBox="0 0 600.000000 600.000000"
 preserveAspectRatio="xMidYMid meet">

<g transform="translate(0.000000,600.000000) scale(0.100000,-0.100000)"
fill="#000000" stroke="none">
<path d="M2740 4289 c-222 -21 -430 -120 -590 -279 -134 -134 -228 -307 -265
-485 -32 -156 -18 -367 35 -521 81 -234 280 -452 514 -560 142 -65 211 -79
401 -79 177 0 219 7 345 54 48 18 157 76 227 121 22 14 27 10 123 -85 l100
-100 87 88 88 87 -102 102 -102 103 30 40 c48 62 116 211 140 305 115 447 -97
911 -509 1115 -87 43 -219 82 -304 90 -34 3 -79 7 -98 9 -19 2 -73 -1 -120 -5z
m264 -326 c129 -32 258 -116 347 -226 227 -282 175 -715 -114 -933 -122 -93
-246 -135 -397 -135 -148 -1 -248 29 -372 110 -94 61 -166 143 -217 245 -53
105 -74 189 -74 302 0 117 15 177 70 292 132 277 449 422 757 345z"/>
<path d="M2769 3714 c-22 -24 -24 -34 -27 -159 l-4 -133 -135 -4 c-134 -3
-135 -3 -159 -31 -26 -30 -31 -75 -13 -109 19 -35 70 -48 194 -48 l115 0 0
-115 c0 -158 22 -205 95 -205 73 0 95 47 95 205 l0 115 115 0 c158 0 205 22
205 95 0 73 -47 95 -205 95 l-115 0 0 108 c0 167 -21 212 -100 212 -26 0 -43
-7 -61 -26z"/>
<path d="M3765 2390 l-140 -141 215 -213 c200 -199 218 -214 263 -224 91 -19
183 21 226 98 27 49 30 133 6 182 -15 29 -411 438 -425 438 -3 0 -68 -63 -145
-140z"/>
</g>
</svg>
